<svg xmlns="http://www.w3.org/2000/svg">
<defs>
<font id="DecoRated" horiz-adv-x="1569" >
  <font-face 
    font-family="DecoRated"
    font-weight="400"
    font-stretch="normal"
    units-per-em="2048"
    panose-1="2 0 5 0 0 0 0 0 0 0"
    ascent="1638"
    descent="-410"
    x-height="1411"
    cap-height="1418"
    bbox="0 -673 3229 2620"
    underline-thickness="150"
    underline-position="-142"
    unicode-range="U+001D-F002"
  />
<missing-glyph horiz-adv-x="1200" 
d="M104 995h272q4 -1 4 -3v-274q0 -4 -4 -4h-274q-3 0 -3 4v272q0 2 5 5zM460 995h34q4 -1 4 -3v-76h39v35q0 4 3 4h115v37q1 3 3 3h36q3 -1 3 -3v-37h37v37q1 3 4 3h34q2 0 4 -5v-113q0 -4 -3 -4h-37v-37h37q3 0 3 -3v-35q0 -4 -3 -4h-37v-37h37q3 -1 3 -4v-35q0 -4 -3 -4
h-37v-37h76q3 0 3 -3v-35q0 -4 -3 -4h-36v-37h36q3 0 3 -3v-36q0 -3 -3 -3h-36v-38h76q4 0 4 -2v-38h37v78h-35q-4 0 -4 3v115q1 3 4 3h33q4 0 4 -3v-113q0 -4 3 -4h32q3 0 3 4v34q1 3 4 3h34q3 0 3 -3v-36q0 -3 -3 -3h-36v-78h37v38q1 2 4 2h76v38h-36l-5 3l2 9v98l-2 8
l5 3h34q4 0 4 -3v-76h37q3 0 3 -3v-116q0 -2 -3 -2h-37v-38h37q3 -1 3 -3v-75q0 -3 -3 -3h-36q-3 0 -3 3v36h-36l-5 3l2 9v64q0 4 -4 4h-35v-117h37q4 -1 4 -4v-75h76q3 -1 3 -4v-272q0 -2 -5 -5h-231q-4 0 -4 3v114q0 3 -3 3h-34q-4 0 -4 3v36h-37v-36q0 -3 -3 -3h-34
q-3 0 -3 -3v-32q0 -4 3 -4h73q3 0 3 -3v-34q0 -4 -3 -4h-115v-35q0 -2 -5 -5h-34q-3 0 -3 3v37h-38v-37q0 -3 -2 -3h-37q-2 0 -2 3v75q0 3 2 3h34q4 0 4 4v32q0 3 -4 3h-34q-2 0 -2 3v36h-78v-34q1 -3 3 -3h34q3 -1 3 -4v-115q0 -3 -3 -3h-114q-2 0 -4 5v192q0 4 3 4h37v37
h-37q-3 0 -3 4v74q0 4 3 4h34q3 0 3 2v34q1 4 3 4h34q4 -1 4 -4v-35q0 -3 -4 -3h-35v-37h156q2 -1 2 -4v-35q0 -4 -2 -4h-38v-74q1 -3 4 -3h111q3 0 3 3v32q0 3 -3 3h-34q-3 0 -3 4v33q1 4 3 4h36q3 -1 3 -4v-35h37v78h-35q-4 0 -4 3v36h-37q-3 0 -3 3v37h-38v-37
q0 -3 -2 -3h-37q-2 0 -2 3v74q0 4 2 4h34q4 0 4 3v32q0 4 -4 4h-34q-2 0 -2 3v36h-38v-36q0 -3 -3 -3h-34q-3 -1 -3 -4v-34q0 -3 -4 -3h-34q-3 0 -3 3v34q0 4 -3 4h-33q-2 -1 -2 -4v-73q0 -3 -4 -3h-35v-37q0 -3 -4 -3h-74q-4 0 -4 3v35q1 4 4 4h76v37h-117q-3 0 -3 3v38

<glyph glyph-name=".notdef" horiz-adv-x="1200" 
d="M104 995h272q4 -1 4 -3v-274q0 -4 -4 -4h-274q-3 0 -3 4v272q0 2 5 5zM460 995h34q4 -1 4 -3v-76h39v35q0 4 3 4h115v37q1 3 3 3h36q3 -1 3 -3v-37h37v37q1 3 4 3h34q2 0 4 -5v-113q0 -4 -3 -4h-37v-37h37q3 0 3 -3v-35q0 -4 -3 -4h-37v-37h37q3 -1 3 -4v-35q0 -4 -3 -4
h-37v-37h76q3 0 3 -3v-35q0 -4 -3 -4h-36v-37h36q3 0 3 -3v-36q0 -3 -3 -3h-36v-38h76q4 0 4 -2v-38h37v78h-35q-4 0 -4 3v115q1 3 4 3h33q4 0 4 -3v-113q0 -4 3 -4h32q3 0 3 4v34q1 3 4 3h34q3 0 3 -3v-36q0 -3 -3 -3h-36v-78h37v38q1 2 4 2h76v38h-36l-5 3l2 9v98l-2 8
l5 3h34q4 0 4 -3v-76h37q3 0 3 -3v-116q0 -2 -3 -2h-37v-38h37q3 -1 3 -3v-75q0 -3 -3 -3h-36q-3 0 -3 3v36h-36l-5 3l2 9v64q0 4 -4 4h-35v-117h37q4 -1 4 -4v-75h76q3 -1 3 -4v-272q0 -2 -5 -5h-231q-4 0 -4 3v114q0 3 -3 3h-34q-4 0 -4 3v36h-37v-36q0 -3 -3 -3h-34
q-3 0 -3 -3v-32q0 -4 3 -4h73q3 0 3 -3v-34q0 -4 -3 -4h-115v-35q0 -2 -5 -5h-34q-3 0 -3 3v37h-38v-37q0 -3 -2 -3h-37q-2 0 -2 3v75q0 3 2 3h34q4 0 4 4v32q0 3 -4 3h-34q-2 0 -2 3v36h-78v-34q1 -3 3 -3h34q3 -1 3 -4v-115q0 -3 -3 -3h-114q-2 0 -4 5v192q0 4 3 4h37v37
h-37q-3 0 -3 4v74q0 4 3 4h34q3 0 3 2v34q1 4 3 4h34q4 -1 4 -4v-35q0 -3 -4 -3h-35v-37h156q2 -1 2 -4v-35q0 -4 -2 -4h-38v-74q1 -3 4 -3h111q3 0 3 3v32q0 3 -3 3h-34q-3 0 -3 4v33q1 4 3 4h36q3 -1 3 -4v-35h37v78h-35q-4 0 -4 3v36h-37q-3 0 -3 3v37h-38v-37
q0 -3 -2 -3h-37q-2 0 -2 3v74q0 4 2 4h34q4 0 4 3v32q0 4 -4 4h-34q-2 0 -2 3v36h-38v-36q0 -3 -3 -3h-34q-3 -1 -3 -4v-34q0 -3 -4 -3h-34q-3 0 -3 3v34q0 4 -3 4h-33q-2 -1 -2 -4v-73q0 -3 -4 -3h-35v-37q0 -3 -4 -3h-74q-4 0 -4 3v35q1 4 4 4h76v37h-117q-3 0 -3 3v38
h-37v-78h35q4 -1 4 -4v-35q0 -3 -4 -3h-34q-3 0 -3 3v34q0 3 -3 3h-34q-4 0 -4 3v156h-33q-4 -1 -4 -4v-192q0 -3 -3 -3h-34q-2 0 -5 4v352q1 3 3 3h194q4 0 4 -3v-35q0 -4 -4 -4h-33q-3 -1 -3 -3v-30q0 -4 3 -4h33q4 0 4 -3v-38h37v38q1 3 4 3h37v37h-37q-4 0 -4 4v35
q1 3 4 3h194q3 0 3 -3v-35q0 -4 -3 -4h-37v-74q1 -4 3 -4h32q4 0 4 4v34q0 3 3 3h75q2 0 2 -3v-36q0 -3 -2 -3h-38v-74q1 -4 4 -4h72q3 -1 3 -3v-36h118v74q0 4 -2 4h-34q-4 0 -4 3v36h-37v-36q0 -3 -3 -3h-36q-3 0 -3 3v34q1 3 3 3h34q3 0 3 4v32q0 3 -3 3h-34q-3 0 -3 4
v35h-77q-2 0 -2 4v114q0 4 2 4h38v37h-38q-2 0 -2 4v33q0 3 -4 3h-30q-4 0 -4 -3v-113q0 -4 -3 -4h-36q-3 0 -3 4v113q0 3 -4 3h-72q-3 0 -3 4v34q0 3 3 3h34q3 0 3 3v32q0 4 -3 4h-34q-3 0 -3 3v34q0 4 3 4h34q3 0 3 3v34q1 3 3 3zM817 995h272q2 0 5 -5v-272q0 -4 -3 -4
h-274q-4 0 -4 4v274q1 3 4 3zM141 953v-196h196v196h-196zM656 953v-36q0 -3 -3 -3h-72q-4 0 -4 -4v-74h39v36q1 3 3 3h73q3 0 3 3v71q0 4 -3 4h-36zM856 953v-196h196v196h-196zM184 916h112q4 -1 4 -4v-114q0 -4 -4 -4h-114q-4 0 -4 4v112q0 3 6 6zM897 916h112q3 0 6 -6
v-112q0 -4 -4 -4h-114q-4 0 -4 4v114q0 4 4 4zM498 870v-34h39v37h-36q-3 0 -3 -3zM656 831v-32q1 -3 4 -3h74v35q0 3 -3 3h-71q-4 0 -4 -3zM420 796h35q4 -1 4 -4v-74q0 -4 -4 -4h-35q-3 0 -3 4v74q0 4 3 4zM617 755v-78h38v75q0 3 -4 3h-34zM697 752v-36h37v36q0 3 -3 3
h-30q-4 0 -4 -3zM656 673v-33q1 -3 4 -3h34q3 -1 3 -3v-36h37v77h-74q-4 0 -4 -2zM937 677h34q3 0 3 -3v-35q0 -4 -3 -4h-34q-4 0 -4 4v35q1 3 4 3zM180 632v-24l2 -8l-5 -4h-32q-4 -1 -4 -3v-36h75q3 0 3 4v74h-35q-4 -1 -4 -3zM380 596v-39h37v39h-37zM339 552v-30
q0 -4 3 -4h36v38h-36q-3 -1 -3 -4zM419 556v-38h38v38h-38zM221 517v-35q0 -4 3 -4h32q4 -1 4 -3v-32q0 -4 3 -4h35v74q0 4 -3 4h-74zM380 517v-38q0 -2 -4 -2h-34q-3 -1 -3 -4v-30q0 -4 3 -4h75v78h-37zM498 513v-31q1 -4 3 -4h32q4 0 4 4v31q0 4 -4 4h-32q-3 -1 -3 -4z
M459 477v-38h37v38h-37zM815 477v-36q0 -3 -3 -3h-36v-39h115q4 -1 4 -4v-35h35q3 0 3 3v110q0 4 -3 4h-35v-36q0 -3 -4 -3h-33q-4 0 -4 3v36h-39zM656 397v-37h116q2 0 2 3v34h-118zM935 358v-38h34q3 0 3 2v36h-37zM776 318v-117h117v117h-117zM102 281h274q4 -1 4 -4
v-274q0 -3 -4 -3h-272q-2 0 -5 5v272q1 4 3 4zM817 281h35q4 -1 4 -4v-35q0 -4 -4 -4h-35q-4 0 -4 4v35q1 4 4 4zM141 238v-196h196v196h-196zM974 238v-37h78v37h-78zM182 201h114q4 0 4 -4v-114q0 -4 -4 -4h-112q-3 0 -6 6v112q1 4 4 4zM697 159v-37h37v37h-37zM935 159
v-36q0 -3 -3 -3h-34q-3 0 -3 -3v-32q0 -4 3 -4h71q3 0 3 4v74h-37zM1015 120v-35q0 -3 -6 -6h-35v-37h78v78h-37zM656 79v-37h36q3 0 3 4v33h-39z" />
    <glyph glyph-name=".null" horiz-adv-x="0" 
 />
    <glyph glyph-name=".null" horiz-adv-x="0" 
 />
    <glyph glyph-name="nonmarkingreturn" horiz-adv-x="508" 
 />
    <glyph glyph-name="space" unicode=" " horiz-adv-x="441" 
 />
    <glyph glyph-name="space" unicode="&#xa0;" horiz-adv-x="441" 
 />
    <glyph glyph-name="exclam" unicode="!" horiz-adv-x="442" 
d="M2 1410h16v-645h-1q-12 29 -17 44v599q1 2 2 2zM34 1410h18v-706h-1q-14 20 -17 29v677zM68 1410h18v-752q-18 19 -18 23v729zM103 1410h18v-787q0 -2 -2 -2l-16 17v772zM136 1410h18v-816q0 -1 -1 -1q-17 13 -17 14v803zM171 1410h18v-840q0 -2 -2 -2l-16 12v830z
M205 1410h18v-860l-1 -1q-17 8 -17 10v851zM238 1410h18v-877q-15 5 -18 8v869zM273 1410h18v-888q0 -2 -2 -2q-16 5 -16 7v883zM307 1410h18v-898l-1 -2q-15 3 -17 6v894zM341 1410h18v-905q0 -1 -2 -1q-16 2 -16 4v902zM375 1410h18v-911h-1q-17 0 -17 3v908zM409 1410h17
q1 0 1 -2v-911l-9 1h-7q-2 0 -2 1v911zM206 416h14q90 0 159 -80q43 -60 43 -122v-11q0 -88 -75 -155q-59 -48 -133 -48q-105 0 -173 91q-36 54 -36 119q0 102 91 171q57 35 110 35z" />
    <glyph glyph-name="quotedbl" unicode="&#x22;" horiz-adv-x="804" 
d="M440 72v493l154 -35h1l194 49v-512q0 -2 -196 -67q-153 54 -153 72zM0 72v493l154 -35h1l194 49v-512q0 -2 -196 -67q-153 54 -153 72z" />
    <glyph glyph-name="numbersign" unicode="#" horiz-adv-x="1991" 
d="M973 1389l2 -1q-99 -285 -99 -287h15q96 279 100 288h17q-5 -18 -99 -288h16q96 281 100 288h16q1 0 1 -1l-99 -287h15q2 0 35 101q4 8 66 187h16l2 -1q-99 -285 -99 -287h13q94 274 100 288h449q0 -2 -99 -288h8q2 0 35 101q3 8 66 187h16l2 -1q-99 -285 -99 -287h15
q96 279 100 288h17q-5 -18 -99 -288h16q96 281 100 288h16q1 0 1 -1q-100 -290 -100 -293q6 -21 8 -21q0 2 109 315h16l2 -1q-112 -323 -118 -341q7 -18 7 -20q2 1 26 69q97 284 101 293h17q0 -2 -133 -388v-1l7 -21h1q3 11 142 409l1 1h15q2 0 2 -1l-151 -435q7 -19 7 -21
h2q4 15 158 457h16l2 -1q-164 -474 -167 -484q7 -18 7 -20h1q171 496 175 505h18q0 -2 -252 -728q-18 -51 -21 -63l8 -21l255 737q23 67 27 75h15q2 0 2 -1l-290 -837q8 -18 8 -20h1l290 838q7 20 8 20h16l1 -1q-299 -864 -306 -885q6 -15 8 -21h1q280 812 296 858
q14 42 18 49h17q-5 -17 -275 -797l-48 -136q8 -21 9 -21l236 683q91 262 95 271h15q2 0 2 -1q-321 -927 -326 -943l-13 -37q8 -19 8 -21q2 0 44 127q2 2 225 650l78 225h17l1 -1q-299 -864 -331 -957l-149 -430l-1 -1h-17q4 15 128 370h-16q-13 -41 -128 -369l-2 -1h-14
q-2 0 -2 1l128 369h-15q-2 0 -69 -197l-60 -173h-17l-1 1q125 362 127 369h-15q-126 -366 -129 -370h-17q4 15 128 370h-17q-13 -41 -127 -369l-2 -1h-15q-1 0 -1 1l127 369h-14q-2 0 -69 -197l-61 -173h-16l-2 1q126 362 128 369h-16q-125 -366 -128 -370h-17q4 15 127 370
h-16q-13 -41 -127 -369l-2 -1h-15q-1 0 -1 1l127 369h-15q-1 0 -68 -197l-61 -173h-16l-2 1q126 362 128 369h-16q-126 -366 -128 -370h-17q4 15 127 370h-16q-13 -41 -128 -369l-1 -1h-15q-2 0 -2 1l128 369h-15q-1 0 -69 -197l-60 -173h-16l-2 1q126 362 128 369h-16
q-126 -366 -128 -370h-18q4 15 128 370h-8q-4 -6 -37 -104q-5 -13 -92 -266h-449l-1 1q123 355 127 369h-13q-126 -366 -128 -370h-17q4 15 127 370h-16q-6 -19 -128 -369l-1 -1h-15q-2 0 -2 1l128 369h-15q-1 0 -69 -197l-60 -173h-16l-2 1q126 362 128 369h-16
q-126 -366 -128 -370h-455l-2 1q128 367 128 369h-79q-3 2 -54 143q-2 5 -32 87l1 1h243q2 0 61 173q30 85 33 98h-252q-3 1 -22 56l-64 173h418q95 277 100 288h455zM795 872l-93 -271h15q2 0 60 172q1 1 34 99h-16zM737 601h15l93 271h-14q-2 0 -60 -172q-2 -2 -34 -99z
M863 872q-6 -22 -93 -271h16q7 22 94 271h-17zM898 872l-94 -271h13q1 0 27 78q62 175 67 193h-13zM1267 601h10q7 22 93 271h-8q-1 -1 -24 -67q-1 -5 -71 -204zM1388 872l-93 -271h15q2 0 60 172q1 1 34 99h-16zM1329 601h16l93 271h-14q-2 0 -60 -172q-2 -2 -35 -99z
M1456 872q-5 -20 -93 -271h16q7 22 94 271h-17zM1491 872l-94 -271h15q2 0 60 172q1 1 34 99h-15zM1432 601h15l94 271h-15q-2 0 -60 -172q-2 -2 -34 -99zM1559 872q-6 -20 -94 -271h17q6 22 93 271h-16zM1593 872l-93 -271h14q2 0 60 172q2 1 34 99h-15z" />
    <glyph glyph-name="dollar" unicode="$" horiz-adv-x="1030" 
d="M876 1788l1 -2v-375l2 -2v-447q0 -1 -17 -10l-1 1v451h-16v-463l-17 -15h-1v478h-16v-497q0 -2 -15 -26q-1 -4 -1 -5h-2v528h-16v-951q0 -179 -130 -317q-136 -136 -337 -136h-40q-1 0 -1 1v376h-2q0 -1 -246 -375q0 -1 -3 -2h-17q-1 0 -1 1v435q0 2 1 2h117q71 0 129 65
q35 50 35 79v520q4 18 16 44h2v-341q1 0 16 -5v380q2 7 17 29l1 -1v-413q0 -2 16 -6v444q12 16 17 21h1v-472q1 0 16 -5v496q0 1 17 17l1 -1v-519l16 -6v542q8 7 18 14v-562l16 -5v578q3 4 16 12h2v-597q1 0 16 -5v612q1 3 17 11l1 -2v-628l17 -5v642q5 5 17 8l1 -1v-654
q0 -1 15 -7v668q0 2 17 8l1 -2v-681q2 0 17 -4v691q0 1 17 5l1 -1v-702l16 -6v712q12 16 169 256zM897 1411h15q1 -1 1 -2v-435q0 -1 -17 -6l-1 2v439q0 2 2 2zM931 1411h15q2 -1 2 -2v-430q0 -3 -18 -3v433q0 2 1 2zM965 1411h14q2 -1 2 -2v-430q0 -2 -2 -2h-14q-2 0 -2 2
v430q0 2 2 2zM999 1411h15q1 -1 1 -2v-430q0 -2 -1 -2h-15q-2 0 -2 2v430q1 2 2 2zM641 1405v-718l15 -5v723h-15zM674 1405v-730q2 0 17 -5v735h-17zM709 1405v-742l16 -5v747h-16zM743 1405v-753q0 -1 16 -6v759h-16z" />
    <glyph glyph-name="percent" unicode="%" horiz-adv-x="1603" 
d="M169 1442h1312l-299 -866h236q10 -2 30 -16v-1h-271q-2 0 -7 -17h303q9 -7 19 -16v-1h-328l-6 -18h352q7 -8 14 -17h-372q0 -2 -6 -18h390q8 -10 11 -17h-406q-1 0 -7 -18h422q8 -11 8 -17h-435q-2 0 -7 -17h448q2 0 6 -16l-2 -1h-458l-6 -18h469q3 0 4 -17h-480
q0 -3 -5 -18h486q3 0 3 -9v-7q0 -2 -2 -2h-492q-3 0 -7 -17h500l2 -1l-1 -9v-5q0 -2 -2 -2h-505q-6 -17 -6 -18h509q1 0 1 -2q-1 -15 -4 -15h-513q0 -1 -5 -17h514q2 0 2 -2q-4 -15 -6 -15h-515q-2 0 -8 -18h517v-1q-5 -17 -7 -17h-515q-1 0 -6 -17h511l2 -1q-7 -13 -11 -16
h-509q-6 -21 -49 -142h-869q5 18 184 535q4 11 127 368h-268l-27 16v2h302q0 3 6 17h-331q-4 2 -18 17v1h355q0 1 5 16h-375q-14 14 -14 18h396l5 17h-413q-10 13 -10 18h430q5 15 5 17h-443q-3 2 -9 17l2 1h456q3 2 6 17h-468q-3 0 -7 17l2 1h479q2 0 6 17h-489q-3 0 -5 16
l2 1h499q0 1 6 17h-507q-2 0 -2 9v8q0 1 2 1h513q0 3 6 18h-519q-2 0 -2 1q1 10 1 15l1 1h524q2 0 6 17h-527l-2 1q3 17 5 17h531l6 17h-534v1q4 16 6 16h534q0 3 6 17h-532l-2 1q7 17 9 17h532l4 18h-528q6 11 11 17h524l6 17h-516q-2 0 -2 2l15 16h509q0 1 6 17h-498v1
q10 10 19 16h484q2 0 6 17h-465v1q25 17 30 17zM194 886h223v-1q-48 -17 -66 -17h-92q-18 0 -65 17v1zM1277 609h9q40 0 87 -13v-2h-182v2q47 13 86 13zM1037 124h491v-2q-9 -11 -13 -15h-466q-6 5 -14 16zM1065 90h433v-1q-13 -14 -17 -17h-396q-5 0 -20 17v1zM1107 55h350
v-1q-22 -17 -27 -17h-298l-25 16v2zM1171 20h222v-1q-46 -16 -63 -16h-98q-15 0 -61 16v1z" />
    <glyph glyph-name="ampersand" unicode="&#x26;" horiz-adv-x="1380" 
d="M607 1415q-235 -679 -236 -684h16q0 1 236 684h18q-1 -5 -237 -684h17l169 492q2 3 67 192h17q1 0 1 -1q-2 -6 -236 -683h15q1 0 45 131l193 553h17q0 -2 -236 -684h16q208 603 236 683h12l5 -1v-1q-23 -68 -235 -681h16l232 671q3 9 4 10q9 -1 16 -1h1l-235 -680h15
q1 0 22 62q209 603 214 617l17 -2q-6 -18 -234 -677h16q230 666 234 675q11 0 17 -2l-233 -673h16q5 16 228 659q4 12 5 12q13 -1 16 -1v-1q-4 -13 -231 -669h15q1 0 41 116q189 548 191 551q17 -2 17 -4l-229 -663h15q208 602 229 662h1q9 -1 16 -4l-228 -658h17l169 492
q2 3 57 164h1q15 -2 15 -5l-224 -651h14q2 0 43 121l183 528h1q14 -3 15 -3q-2 -10 -222 -646h15q6 16 222 641l2 1q15 -3 15 -5l-221 -637h17l185 536l34 99h1q15 -4 15 -6q-163 -471 -217 -629h15q1 0 27 77q32 90 187 541q2 8 5 8q14 -4 14 -6q-213 -615 -214 -620h16
q208 603 213 617q16 -4 16 -7q-6 -19 -211 -610h16l187 544q20 56 23 63h1q13 -4 15 -7q-19 -53 -208 -600h15q1 0 51 147l156 448l1 1q15 -5 15 -6q-204 -589 -204 -590h16l202 585h1q15 -5 15 -7l-200 -578h16l189 549q9 23 10 24q12 -4 15 -7l-196 -566h15q2 0 52 147
q0 1 143 413l15 -6q0 -3 -93 -272q-97 -280 -97 -282h15q185 537 190 547q15 -6 15 -8q-147 -425 -188 -542q231 -683 246 -727l-2 -1h-868q-1 0 -1 1h-7v1q5 4 577 272q62 30 64 30v1q-70 59 -178 147l-543 -254l9 29q-7 20 -7 21h-1q-18 -54 -22 -61q-17 -8 -20 -8v1
l34 96q-8 19 -8 22q-1 0 -40 -114q-5 -18 -13 -18q-11 -7 -14 -7v1l57 166q-7 20 -7 22h-1q0 -2 -68 -199q-19 -9 -21 -9v1l80 235q-7 21 -8 21q-2 -7 -92 -267l-20 -8h-1q103 301 105 302q-2 3 -7 22h-2q-109 -317 -116 -335q-19 -9 -21 -9v1q0 1 129 371q-8 20 -8 22
q-1 0 -32 -93l-109 -312l-20 -8h-1l153 441q-1 1 -8 22h-1q0 -2 -163 -474l-21 -9v1q170 491 175 510q-6 21 -8 21q-182 -531 -188 -542q-7 -3 -20 -9v1q198 572 200 577q-7 20 -7 22h-2q-19 -59 -211 -610l-20 -9v1q16 49 223 646q-1 1 -8 22q-1 0 -36 -105
q-3 -6 -199 -573q-18 -10 -21 -10l247 716q-3 5 -3 9h5q2 0 46 131l189 544q3 3 19 3v-1q-234 -675 -234 -677h15q5 15 235 679q1 1 18 2l1 -1l-236 -680h17l234 681q4 2 13 2h6v-1l-235 -682h14q2 0 37 105q174 498 179 518q2 2 22 60q4 1 18 1zM465 1406q-4 -15 -227 -660
h-2q-190 547 -190 550q76 34 186 65q69 20 178 37q22 4 55 8z" />
    <glyph glyph-name="quotesingle" unicode="'" horiz-adv-x="364" 
d="M0 72v493l154 -35h1l194 49v-512q0 -2 -196 -67q-153 54 -153 72z" />
    <glyph glyph-name="parenleft" unicode="(" horiz-adv-x="748" 
d="M630 438q1 0 1 -2v-435q0 -1 -1 -1h-15q-2 0 -2 1v435q0 2 2 2h15zM663 438q1 0 2 -2v-435q0 -1 -2 -1h-14q-1 0 -1 1v435q0 2 1 2h14zM697 438q2 0 2 -2v-435q0 -1 -2 -1h-14q-2 0 -2 1v435q0 2 2 2h14zM732 438q1 0 1 -2v-435q0 -1 -1 -1h-15q-2 0 -2 1v435q0 2 2 2h15
zM580 441q17 -2 17 -4v-436q0 -1 -2 -1h-15q-1 0 -1 1v438zM545 450q17 -4 17 -6v-443q0 -1 -1 -1h-14q-2 0 -2 1v449zM511 469q14 -7 18 -11v-457q0 -1 -2 -1h-14q-2 0 -2 1v468zM495 483v-482q0 -1 -2 -1h-15q-1 0 -1 1v500zM445 566q0 -6 15 -41v-524q0 -1 -1 -1h-14
q-2 0 -2 1v565h2zM425 2182q1 0 2 -2v-2179l-1 -1l-15 1q-2 0 -2 1v751l-1 2h1v333h-1q0 -7 -16 -44v-289l1 -1q-1 0 -1 -1v-752q-18 2 -18 4v1011l-16 -18v-243l1 -1q-1 0 -1 -1v-745l-1 -2q-16 2 -16 4v743l-1 2h1v227q-13 -11 -17 -11v-216l1 -1q-1 0 -1 -1v-740
q-18 3 -18 6v940q-15 -7 -16 -8v-196l1 -1q-1 0 -1 -1v-729l-1 -1q-17 5 -17 7v723l-1 2h1v190q-14 -4 -16 -4v-186l1 -1q-1 0 -1 -1v-717q-6 0 -17 8v709l-1 2h1v183l-17 -1v-182l1 -1q-1 0 -1 -1v-700l-1 -2q-17 8 -17 11v691l-1 2h1v182l-16 1v-183l1 -1q-1 0 -1 -1v-681
l-1 -1q-17 11 -17 12v670l-1 2h1v186l-16 4v-848l-1 -2q-13 10 -17 14v843q-1 0 -16 7v-204l1 -1q-1 0 -1 -1v-627l-1 -2q-17 16 -17 17v612l-1 2h1v214q0 1 -16 12v-820h-1q-17 18 -17 23v569l-1 2h1v241q0 3 -17 21v-262l1 -1q-1 0 -1 -1v-546h-1q-16 23 -16 27v519l-1 2
h1v288q-11 24 -15 44h-1v-332l1 -1q-1 0 -1 -1v-485h-2q-10 23 -16 43v1560q10 32 17 43h1v-485l1 -1q-1 0 -1 -1v-237h1q0 6 15 43v194l-1 2h1v518q2 8 16 28h1v-546l1 -1q-1 0 -1 -1v-168l17 19v149l-1 2h1v571q12 17 17 21h1v-727q14 12 16 12v121l-1 2h1v611l16 18
q2 0 2 -2v-627l1 -1q-1 0 -1 -1v-110q16 7 16 9v747q15 13 17 13h1v-756q11 4 16 4v93l-1 2h1v669q1 3 17 13l1 -2v-680l1 -1q-1 0 -1 -1v-89l16 1v88l-1 2h1v691q2 3 17 10q1 0 1 -1v-700l1 -1q-1 0 -1 -1v-88l17 -1v89l-1 2h1v709q3 4 16 9l1 -2v-716l1 -1q-1 0 -1 -1v-91
q0 -2 16 -5v96l-1 2h1v723q0 3 18 7v-730l1 -1q-1 0 -1 -1v-103q3 0 16 -7v846q0 3 17 6q1 0 1 -2v-738l1 -1q-1 0 -1 -1v-120q13 -11 17 -13v133l-1 2h1v742q0 3 16 5l1 -2v-745l1 -1q-1 0 -1 -1v-148q16 -18 16 -20v918q0 2 18 3v-751l1 -1q-1 0 -1 -1v-195q16 -37 16 -44
h1v239l-1 2h1v751q0 2 1 2h15zM459 2182q1 0 1 -2v-523q-15 -35 -15 -41h-2v564q0 2 2 2h14zM493 2182q1 0 2 -2v-482q-15 -13 -17 -18q-1 0 -1 2v498q0 2 1 2h15zM527 2182q2 0 2 -2v-456q-16 -11 -16 -12q-2 0 -2 2v466q0 2 2 2h14zM561 2182q1 0 1 -2v-441q0 -2 -16 -8
l-1 2v447q0 2 2 2h14zM595 2182q2 0 2 -2v-435q0 -2 -17 -4l-1 2v437q0 2 1 2h15zM630 2182q1 0 1 -2v-434q0 -2 -1 -2h-15q-2 0 -2 2v434q0 2 2 2h15zM663 2182q1 0 2 -2v-434q0 -2 -2 -2h-14q-1 0 -1 2v434q0 2 1 2h14zM697 2182q2 0 2 -2v-434q0 -2 -2 -2h-14q-2 0 -2 2
v434q0 2 2 2h14zM732 2182q1 0 1 -2v-434q0 -2 -1 -2h-15q-2 0 -2 2v434q0 2 2 2h15z" />
    <glyph glyph-name="parenright" unicode=")" horiz-adv-x="748" 
d="M118 438q2 0 2 -2v-435q0 -1 -2 -1h-15q-1 0 -1 1v435q0 2 1 2h15zM84 438q1 0 1 -2v-435q0 -1 -1 -1h-14q-2 0 -2 1v435q1 2 2 2h14zM50 438q2 0 2 -2v-435q0 -1 -2 -1h-14q-2 0 -2 1v435q0 2 2 2h14zM16 438q2 0 2 -2v-435q0 -1 -2 -1h-15q-1 0 -1 1v435q0 2 1 2h15z
M154 439v-438q0 -1 -1 -1h-15q-2 0 -2 1v436q0 2 17 4zM188 1q0 -1 -2 -1h-14q-1 0 -1 1v443q0 2 17 6v-449zM222 1q0 -1 -2 -1h-14q-2 0 -2 1v457q4 4 18 11v-468zM256 501v-500q0 -1 -1 -1h-15q-2 0 -2 1v482zM290 566v-565q0 -1 -2 -1h-14q-1 0 -1 1v524q15 35 15 41h2z
M323 2182q1 0 1 -2v-751h1l-1 -2v-239h1q0 7 16 44v195q0 1 -1 1l1 1v751q18 -1 18 -3v-918q0 2 16 20v148q0 1 -1 1l1 1v745l1 2q16 -2 16 -5v-742h1l-1 -2v-133q4 2 17 13v120q0 1 -1 1l1 1v738q0 2 1 2q17 -3 17 -6v-846q13 7 16 7v103q0 1 -1 1l1 1v730q18 -4 18 -7
v-723h1l-1 -2v-96q16 3 16 5v91q0 1 -1 1l1 1v716l1 2q13 -5 16 -9v-709h1l-1 -2v-89l17 1v88q0 1 -1 1l1 1v700q0 1 1 1q15 -7 17 -10v-691h1l-1 -2v-88l16 -1v89q0 1 -1 1l1 1v680l1 2q16 -10 17 -13v-669h1l-1 -2v-93q5 0 16 -4v756h1q2 0 17 -13v-747q0 -2 16 -9v110
q0 1 -1 1l1 1v627q0 2 2 2l16 -18v-611h1l-1 -2v-121q2 0 16 -12v727h1q5 -4 17 -21v-571h1l-1 -2v-149l17 -19v168q0 1 -1 1l1 1v546h1q14 -20 16 -28v-518h1l-1 -2v-194q15 -37 15 -43h1v237q0 1 -1 1l1 1v485h1q7 -11 17 -43v-1560q-6 -20 -16 -43h-2v485q0 1 -1 1l1 1
v332h-1q-4 -20 -15 -44v-288h1l-1 -2v-519q0 -4 -16 -27h-1v546q0 1 -1 1l1 1v262q-17 -18 -17 -21v-241h1l-1 -2v-569q0 -5 -17 -23h-1v820q-16 -11 -16 -12v-214h1l-1 -2v-612q0 -1 -17 -17l-1 2v627q0 1 -1 1l1 1v204q-15 -7 -16 -7v-843q-4 -4 -17 -14l-1 2v848l-16 -4
v-186h1l-1 -2v-670q0 -1 -17 -12l-1 1v681q0 1 -1 1l1 1v183l-16 -1v-182h1l-1 -2v-691q0 -3 -17 -11l-1 2v700q0 1 -1 1l1 1v182l-17 1v-183h1l-1 -2v-709q-11 -8 -17 -8v717q0 1 -1 1l1 1v186q-2 0 -16 4v-190h1l-1 -2v-723q0 -2 -17 -7l-1 1v729q0 1 -1 1l1 1v196
q-1 1 -16 8v-940q0 -3 -18 -6v740q0 1 -1 1l1 1v216q-4 0 -17 11v-227h1l-1 -2v-743q0 -2 -16 -4l-1 2v745q0 1 -1 1l1 1v243l-16 18v-1011q0 -2 -18 -4v752q0 1 -1 1l1 1v289q-16 37 -16 44h-1v-333h1l-1 -2v-751q0 -1 -2 -1l-15 -1l-1 1v2179q1 2 2 2h15zM288 2182
q2 0 2 -2v-564h-2q0 6 -15 41v523q0 2 1 2h14zM255 2182q1 0 1 -2v-498q0 -2 -1 -2q-2 5 -17 18v482q1 2 2 2h15zM220 2182q2 0 2 -2v-466q0 -2 -2 -2q0 1 -16 12v456q0 2 2 2h14zM186 2182q2 0 2 -2v-447l-1 -2q-16 6 -16 8v441q0 2 1 2h14zM153 2182q1 0 1 -2v-437l-1 -2
q-17 2 -17 4v435q0 2 2 2h15zM118 2182q2 0 2 -2v-434q0 -2 -2 -2h-15q-1 0 -1 2v434q0 2 1 2h15zM84 2182q1 0 1 -2v-434q0 -2 -1 -2h-14q-2 0 -2 2v434q1 2 2 2h14zM50 2182q2 0 2 -2v-434q0 -2 -2 -2h-14q-2 0 -2 2v434q0 2 2 2h14zM16 2182q2 0 2 -2v-434q0 -2 -2 -2
h-15q-1 0 -1 2v434q0 2 1 2h15z" />
    <glyph glyph-name="asterisk" unicode="*" horiz-adv-x="641" 
d="M625 1121h1v-27l-197 -262v-23l195 259h2v-28l-197 -261v-24l196 259h1v-27l-197 -262v-23q3 4 196 259h1v-26q0 -4 -39 -52l-158 -211v-24l195 259h2v-27l-197 -261v-24l196 259h1v-27l-188 -250v-1q184 -138 188 -142v-20h-1l-196 148v-18l197 -150v-21h-1
q-37 27 -196 148v-17q2 -4 48 -37q135 -103 149 -114v-19q0 -1 -2 -1q-25 20 -195 148v-19q11 -7 197 -149v-20h-1q-14 9 -196 148v-18q24 -20 169 -129q26 -19 28 -22v-19q0 -1 -2 -1q-3 3 -195 148v-19q33 -24 197 -149v-20h-1l-196 148v-165q0 -2 -46 -18
q-21 -8 -184 -69l-1 2v150h-1q-8 -12 -196 -260h-1v25q0 4 39 53q26 36 159 211v24q-4 -4 -196 -259h-2v27q180 238 198 262v24h-1q-22 -31 -196 -260h-1v27l198 262v24q-184 -242 -196 -260h-2v28l198 262v23l-197 -259h-1v27l198 263v23h-1q-5 -8 -196 -260h-1v26
q0 3 31 43q155 205 155 206v1q-163 122 -186 141v19q0 2 2 2q0 -1 196 -149v18l-198 150v21h1l197 -148v17q-19 15 -164 124q-33 25 -34 27v19q0 2 2 2q8 -8 196 -149v18l-198 150v21h1l196 -148h1v17q-5 5 -189 143q-9 7 -9 8v20h2l196 -148v19q-195 145 -198 149v21h1
l197 -149v191q1 2 146 55q82 31 84 31l1 -1v-171z" />
    <glyph glyph-name="plus" unicode="+" horiz-adv-x="1433" 
d="M939 445v-444q0 -1 -2 -1h-14q-1 0 -1 1v444h17zM922 973v443q0 2 1 2h14q2 0 2 -2v-443h-17zM905 445v-444q0 -1 -2 -1h-14q-2 0 -2 1v444h18zM887 973v443q1 2 2 2h14q2 0 2 -2v-443h-18zM871 445v-444q0 -1 -2 -1h-13q-2 0 -2 1v444h17zM854 973v443q0 2 2 2h13
q2 0 2 -2v-443h-17zM837 445v-444q0 -1 -2 -1h-14q-1 0 -1 1v444h17zM820 973v443q0 2 1 2h14q2 0 2 -2v-443h-17zM802 445v-444q0 -1 -1 -1h-14q-2 0 -2 1v444h17zM785 973v443q0 2 2 2h14q1 0 1 -2v-443h-17zM769 445v-444q0 -1 -2 -1h-14q-1 0 -1 1v444h17zM752 973v443
q0 2 1 2h14q2 0 2 -2v-443h-17zM735 445v-444q0 -1 -2 -1h-14q-2 0 -2 1v444h18zM717 973v443q1 2 2 2h14q2 0 2 -2v-443h-18zM700 445v-444q0 -1 -1 -1h-14q-2 0 -2 1v444h17zM683 973v443q0 2 2 2h14q1 0 1 -2v-443h-17zM667 445v-444q0 -1 -2 -1h-14q-2 0 -2 1v444h18z
M649 973v443q1 2 2 2h14q2 0 2 -2v-443h-18zM632 445v-444q0 -1 -1 -1h-14q-2 0 -2 1v444h17zM615 973v443q0 2 2 2h14q1 0 1 -2v-443h-17zM598 445v-444q0 -1 -2 -1h-14q-1 0 -1 1v444h17zM581 973v443q0 2 1 2h14q2 0 2 -2v-443h-17zM564 445v-444q0 -1 -1 -1h-14
q-2 0 -2 1v444h17zM547 973v443q0 2 2 2h14q1 0 1 -2v-443h-17zM530 445v-444q0 -1 -2 -1h-13q-2 0 -2 1v444h17zM513 973v443q0 2 2 2h13q2 0 2 -2v-443h-17zM496 445v-444q0 -1 -2 -1h-14q-1 0 -1 1v444h17zM479 973v443q0 2 1 2h14q2 0 2 -2v-443h-17zM445 479h-444
q-1 0 -1 2v14q0 1 1 1h444v-17zM973 496h443q2 0 2 -1v-14q0 -2 -2 -2h-443v17zM445 513h-444q-1 0 -1 2v14q0 2 1 2h444v-18zM973 531h443q2 -1 2 -2v-14q0 -2 -2 -2h-443v18zM445 547h-444q-1 0 -1 2v13q0 2 1 2h444v-17zM973 564h443q2 0 2 -2v-13q0 -2 -2 -2h-443v17z
M445 581h-444q-1 0 -1 2v14q0 1 1 1h444v-17zM973 598h443q2 0 2 -1v-14q0 -2 -2 -2h-443v17zM445 616h-444q-1 0 -1 1v14q0 2 1 2h444v-17zM973 633h443q2 0 2 -2v-14q0 -1 -2 -1h-443v17zM445 649h-444q-1 0 -1 2v14q0 1 1 1h444v-17zM973 666h443q2 0 2 -1v-14
q0 -2 -2 -2h-443v17zM445 683h-444q-1 0 -1 2v14q0 2 1 2h444v-18zM973 701h443q2 -1 2 -2v-14q0 -2 -2 -2h-443v18zM445 718h-444q-1 0 -1 1v14q0 2 1 2h444v-17zM973 735h443q2 0 2 -2v-14q0 -1 -2 -1h-443v17zM445 751h-444q-1 0 -1 2v14q0 2 1 2h444v-18zM973 769h443
q2 -1 2 -2v-14q0 -2 -2 -2h-443v18zM445 786h-444q-1 0 -1 1v14q0 2 1 2h444v-17zM973 803h443q2 0 2 -2v-14q0 -1 -2 -1h-443v17zM445 820h-444q-1 0 -1 2v14q0 1 1 1h444v-17zM973 837h443q2 0 2 -1v-14q0 -2 -2 -2h-443v17zM445 854h-444q-1 0 -1 1v14q0 2 1 2h444v-17z
M973 871h443q2 0 2 -2v-14q0 -1 -2 -1h-443v17zM445 888h-444q-1 0 -1 2v13q0 2 1 2h444v-17zM973 905h443q2 0 2 -2v-13q0 -2 -2 -2h-443v17zM445 922h-444q-1 0 -1 2v14q0 1 1 1h444v-17zM973 939h443q2 0 2 -1v-14q0 -2 -2 -2h-443v17zM973 445v-444q0 -1 -1 -1h-14
q-2 0 -2 1v461h444q2 0 2 -2v-14q0 -1 -2 -1h-427zM462 462v-444q0 -1 -1 -1h-14q-2 0 -2 1v427h-444q-1 0 -1 1v14q0 2 1 2h461zM956 1416q0 2 2 2h14q1 0 1 -2v-443h443q2 0 2 -2v-14q0 -1 -2 -1h-460v460zM445 973v443q0 2 2 2h14q1 0 1 -2v-460h-461q-1 0 -1 1v14
q0 2 1 2h444z" />
    <glyph glyph-name="comma" unicode="," horiz-adv-x="760" 
d="M344 714h399q2 0 2 -2v-283q0 -210 -159 -339q-118 -90 -251 -90h-177q-3 0 -38 106q-3 5 -120 344l1 1h179q91 0 141 80q21 37 21 84v97q1 2 2 2z" />
    <glyph glyph-name="hyphen" unicode="-" horiz-adv-x="594" 
d="M72 349h493l-35 -154v-1l49 -194h-512q-2 0 -67 196q54 153 72 153z" />
    <glyph glyph-name="hyphen" unicode="&#xad;" horiz-adv-x="594" 
d="M72 349h493l-35 -154v-1l49 -194h-512q-2 0 -67 196q54 153 72 153z" />
    <glyph glyph-name="period" unicode="." horiz-adv-x="431" 
d="M200 416h16q71 0 135 -56q65 -66 65 -150v-3q0 -102 -89 -170q-56 -37 -120 -37q-103 0 -171 90q-36 55 -36 115v7q0 96 85 166q59 38 115 38z" />
    <glyph glyph-name="slash" unicode="/" horiz-adv-x="901" 
d="M886 1416l-490 -1416h-395q-1 0 -1 1l486 1415h400z" />
    <glyph glyph-name="zero" unicode="0" 
d="M400 1411h14q1 -1 1 -2v-527q-13 -24 -15 -32h-2v559q0 2 2 2zM434 1411h14q2 -1 2 -2v-474l-17 -22v496q0 2 1 2zM468 1411h14q1 -1 1 -2v-434q-15 -18 -16 -18h-1v452q0 2 2 2zM502 1411h14q2 -1 2 -2v-402q0 -1 -17 -15v417q0 2 1 2zM536 1411h14q2 -1 2 -2v-377
q0 -1 -16 -12h-1v389q0 2 1 2zM570 1411h14q2 -1 2 -2v-357q0 -2 -18 -9v366q1 2 2 2zM604 1411h14q2 -1 2 -2v-340q0 -2 -16 -8l-1 1v347q0 2 1 2zM639 1411h14q1 -1 1 -2v-327q0 -3 -17 -7v334q0 2 2 2zM672 1411h14q2 -1 2 -2v-318q0 -2 -17 -5v323q0 2 1 2zM707 1411h14
q1 -1 1 -2v-312q0 -1 -16 -4l-1 2v314q0 2 2 2zM741 1411h14q2 -1 2 -2v-308q0 -2 -17 -3l-1 2v309q1 2 2 2zM774 1411h381q63 -4 146 -44q44 -18 110 -76q143 -140 143 -332v-505q0 -196 -152 -340q-93 -78 -196 -102q-55 -12 -102 -12h-330q-1 0 -1 1v261q0 2 1 2h10
q175 0 306 133q48 56 66 95q45 89 45 191q0 148 -98 269q-130 149 -326 149h-3q-1 0 -1 1v307q0 2 1 2zM380 1409l1 -2v-604l-12 -60q-3 -25 -3 -39h-2v700q0 2 16 5zM347 1402l1 -2v-1387h-1q-17 2 -17 5v1378q0 3 17 6zM312 1392h1v-1369q-17 3 -17 6v1356q0 2 16 7z
M278 1379h1v-1342l-1 -2q-14 6 -16 8v1327q0 3 16 9zM244 1363h1v-1312q-17 7 -17 10v1292q1 3 16 10zM210 1343l1 -1v-1270l-1 -1q-12 7 -16 11v1250q0 1 16 11zM176 1319h1v-1224h-1q-11 8 -17 14v1196q4 5 17 14zM142 1290l1 -1v-1165h-1q-1 0 -16 16v1134q0 1 16 16z
M108 1254h1v-1093h-1q-3 2 -16 19v1054q15 20 16 20zM73 1208h1v-1001q-2 0 -17 26v949zM39 1146h2v-878h-2q-13 31 -15 43v793q0 4 15 42zM5 1030h2v-646h-2q-5 38 -5 68v510q0 29 5 68zM364 660h2v-1q0 -34 15 -97v-555l-1 -2q-16 3 -16 5v650zM398 514h2l15 -34v-477
q0 -2 -1 -2q-16 1 -16 4v509zM433 451q17 -21 17 -24v-426q0 -1 -2 -1h-14q-1 0 -1 1v450zM466 407h1l16 -17v-389q0 -1 -1 -1h-14q-2 0 -2 1v406zM501 372q2 0 17 -14v-357q0 -1 -2 -1h-14q-1 0 -1 1v371zM535 344h1q16 -10 16 -11v-332q0 -1 -2 -1h-14q-1 0 -1 1v343z
M568 322h1q14 -7 17 -10v-311q0 -1 -2 -1h-14q-2 0 -2 1v321zM604 304q15 -7 16 -8v-295q0 -1 -2 -1h-14q-1 0 -1 1v301zM639 289q15 -4 15 -6v-282q0 -1 -1 -1h-14q-2 0 -2 1v287q0 1 2 1zM671 279q17 -4 17 -6v-272q0 -1 -2 -1h-14q-1 0 -1 1v278zM705 270h1q16 -1 16 -4
v-265q0 -1 -1 -1h-14q-2 0 -2 1v269zM739 266q18 0 18 -3v-262q0 -1 -2 -1h-14q-2 0 -2 1v265z" />
    <glyph glyph-name="one" unicode="1" horiz-adv-x="931" 
d="M232 1418h15q1 0 1 -2v-1241h17v1241q0 2 1 2h14q2 0 2 -2v-1241h16v1241q0 2 2 2h14q2 0 2 -2v-1241h16v1241q1 2 2 2h15q1 0 1 -2v-1241h17v1241q0 2 1 2h14q2 0 2 -2v-1241h16v1241q1 2 2 2h15q1 0 1 -2v-1241h17v1241q0 2 1 2h15q2 0 2 -2v-1241h16v1241q0 2 2 2h14
q1 0 1 -2v-1241h17v1241q0 2 1 2h15q2 0 2 -2v-1241h16v1241q0 2 2 2h14q2 0 2 -2v-1241h16v1241q0 2 2 2h14q1 0 1 -2v-1241h17v1241q0 2 1 2h15q2 0 2 -2v-1241h16v1241q0 2 2 2h15q1 0 1 -2v-1241h17v1241q0 2 1 2h14q2 0 2 -2v-1241h16v1241q0 2 2 2h14q2 0 2 -2v-1241
h16v1241q1 2 2 2h15q1 0 1 -2v-1241h156q1 0 1 -2v-172q0 -1 -1 -1h-846q-2 0 -2 1v172q1 2 2 2h161v569q-5 19 -226 658q-4 10 -4 13h230q0 3 2 3z" />
    <glyph glyph-name="two" unicode="2" horiz-adv-x="1183" 
d="M154 1411h14q1 0 1 -3h17q0 3 1 3h15q2 0 2 -3h16q0 3 2 3h15q1 0 1 -3h17q0 3 1 3h14q2 0 2 -3h16q0 3 2 3h14q2 -1 2 -2v-456l-1 -1q-17 9 -17 10v426h-1q-15 -46 -15 -48v-372q-17 3 -17 6v317h-1q-16 -45 -16 -48v-266l-1 -2q-17 1 -17 4v213h-1q-15 -46 -15 -48
v-165q0 -2 -2 -2h-15q-1 0 -1 2v113h-1q-16 -45 -16 -48v-65q0 -2 -1 -2h-14q-2 0 -2 2v17h-1q0 -2 -3 -12h-1q-1 1 -25 71l-122 352l2 1h150q0 3 2 3zM324 1411h15q1 -1 1 -2v-483q0 -1 -1 -1q0 1 -17 15v469q1 2 2 2zM358 1411h14q2 -1 2 -2v-533h-2q-4 10 -15 29v504
q0 2 1 2zM392 1411h15q1 -1 1 -2v-763q15 5 17 5v758q0 2 1 2h15q2 -1 2 -2v-752q3 2 16 6v746q0 2 2 2h14q1 -1 1 -2v-739h1q13 4 16 4v735q0 2 1 2h15q2 -1 2 -2v-728q15 6 16 6v720l1 2q17 -3 17 -5v-711q16 5 16 7v700q0 2 2 2q15 -4 15 -6v-691l17 5v680q0 2 1 2
q14 -4 17 -7v-668q16 5 16 7v654l1 1q17 -6 17 -9v-641h1l15 5v627l1 2q15 -7 17 -10v-612l16 5v596l1 1q16 -9 17 -12v-579l16 6v561h2q16 -13 16 -14v-541q17 5 17 7v519h1q1 0 16 -17v-497l16 6v471q0 1 2 1l16 -21v-445q17 5 17 7v414h1q17 -27 17 -30v-379l16 5v341h2
q11 -28 15 -43v-520q2 -36 37 -83q55 -63 136 -63h108q2 0 2 -1v-435q0 -1 -2 -1h-323q-172 0 -308 122q-56 57 -76 92q-69 108 -69 255v940q0 2 2 2z" />
    <glyph glyph-name="three" unicode="3" horiz-adv-x="1377" 
d="M1 1417h1357q2 0 2 -2v-379q-1 -6 -54 -79q-12 -18 -160 -230h1q121 -1 177 -1q9 0 35 -1l1 -1v-349l2 -2q0 -28 -22 -103q-17 -48 -41 -87q-19 -34 -69 -89q-1 0 -25 -23q-70 -56 -116 -71q-615 0 -1069 1l-1 1v14q1 2 2 2h565v17h-565q-2 0 -2 2v13q1 2 2 2h565v18
h-565q-2 0 -2 2v14q1 1 2 1h565v17h-565q-2 0 -2 2v14q1 2 2 2h565v18h-565q-2 0 -2 1v14q1 2 2 2h565v17h-565q-2 0 -2 2v13q1 2 2 2h565v18h-565q-2 0 -2 2v14q1 1 2 1h565v17h-565q-2 0 -2 2v14q1 2 2 2h565v18h-565q-2 0 -2 1v14q1 2 2 2h565v17h-565q-2 0 -2 2v13
q1 2 2 2h565v18h-566v1q9 14 13 16h553v17h-540q-2 0 -2 2q11 16 12 16h530v18h-516q-1 0 -1 1q11 16 12 16h505v17h-493v2q9 13 12 15h481v18h-468v2q8 13 11 15h457v18h-444v2q11 16 12 16h432v17h-420v1q7 11 12 16h408v18h-396v1q7 11 13 16h383v17h-370q-2 0 -2 2
l12 15h360v77h-317v2l13 19h-281q-1 0 -1 1v14q0 2 1 2h292q1 0 14 18h-306q-1 0 -1 2v13q0 2 1 2h317q4 4 12 17h-329q-1 0 -1 2v14q0 1 1 1h341q4 4 13 18h-354q-1 0 -1 2v14q0 2 1 2h365q1 0 13 16v1h-378q-1 0 -1 1v14q0 2 1 2h391q1 2 11 17v1h-402q-1 0 -1 2v13
q0 2 1 2h415q1 2 12 17h-427q-1 0 -1 2v14q0 1 1 1h438q3 3 13 18h-451q-1 0 -1 2v14q0 2 1 2h463q2 1 12 17h-475q-1 0 -1 1v14q0 2 1 2h486q4 3 13 18h-499q-1 0 -1 2v14q0 1 1 1h512q0 2 11 16v1h-523q-1 0 -1 2v14q0 1 1 1h535q1 0 13 18h-548q-1 0 -1 2v14q0 2 1 2h560
q1 0 12 17h-572q-1 0 -1 1v14q0 2 1 2h584q1 0 13 18h-597q-1 0 -1 2v14q0 1 1 1h608q1 0 12 17h-620q-1 0 -1 2v14q0 2 1 2h634q0 1 11 17v1h-645q-1 0 -1 1v14q0 2 1 2h658q0 1 12 17h-670q-1 0 -1 2v13q0 2 1 2h681q1 0 13 18h-694q-1 0 -1 2v14q0 1 1 1h706q1 0 12 17
h-718q-1 0 -1 2v14q0 2 1 2h729q5 4 13 18h-742q-1 0 -1 1v12q0 2 1 2z" />
    <glyph glyph-name="four" unicode="4" horiz-adv-x="1141" 
d="M564 1417h15q1 0 1 -2v-1414q0 -1 -1 -1h-14q-2 0 -2 1v561q-378 1 -562 1l-1 2q10 13 444 673l118 178zM599 1417h14q2 0 2 -2v-1414q0 -1 -2 -1h-14q-2 0 -2 1v1414q1 2 2 2zM633 1417h14q2 0 2 -2v-1414q0 -1 -2 -1h-14q-1 0 -1 1v1414q0 2 1 2zM667 1417h14q1 0 1 -2
v-1414q0 -1 -1 -1h-14q-2 0 -2 1v1414q0 2 2 2zM701 1417h14q2 0 2 -2v-1414q0 -1 -2 -1h-14q-1 0 -1 1v1414q0 2 1 2zM736 1417h13q2 0 2 -2v-1414q0 -1 -2 -1h-13q-2 0 -2 1v1414q0 2 2 2zM769 1417h14q2 0 2 -2v-1414q0 -1 -2 -1h-14q-2 0 -2 1v1414q1 2 2 2zM803 1417
h14q2 0 2 -2v-1414q0 -1 -2 -1h-14q-1 0 -1 1v1414q0 2 1 2zM838 1417h14q1 0 1 -2v-1414q0 -1 -1 -1h-14q-2 0 -2 1v1414q0 2 2 2zM871 1417h14q2 0 2 -2v-1414q0 -1 -2 -1h-14q-1 0 -1 1v1414q0 2 1 2zM906 1417h14q1 0 1 -2v-1414q0 -1 -1 -1h-14q-2 0 -2 1v1414q0 2 2 2
zM940 1417h14q2 0 2 -2v-1414q0 -1 -2 -1h-14q-2 0 -2 1v1414q1 2 2 2zM974 1417h13q2 0 2 -2v-1414q0 -1 -2 -1h-13q-2 0 -2 1v1414q0 2 2 2zM1008 1417h14q1 0 1 -2v-1414q0 -1 -1 -1h-14q-2 0 -2 1v1414q1 2 2 2zM1042 1417h14q2 0 2 -2v-1414q0 -1 -2 -1h-14q-1 0 -1 1
v1414q0 2 1 2zM1076 1417h14q1 0 1 -2v-1414q0 -1 -1 -1h-14q-2 0 -2 1v1414q0 2 2 2zM1110 1417h14q2 0 2 -2v-1414q0 -1 -2 -1h-14q-1 0 -1 1v1414q0 2 1 2z" />
    <glyph glyph-name="five" unicode="5" horiz-adv-x="1407" 
d="M988 1418q3 0 3 -4h400q1 0 1 -2v-14q0 -1 -1 -1h-394l6 -18h388q1 -1 1 -2v-14q0 -2 -1 -2h-382q5 -17 7 -17h375q1 0 1 -1v-14q0 -2 -1 -2h-370q6 -18 7 -18h363q1 0 1 -1v-14q0 -2 -1 -2h-358q1 -1 6 -17h352q1 0 1 -2v-14q0 -1 -1 -1h-346l6 -18h340q1 -1 1 -2v-14
q0 -2 -1 -2h-333q5 -17 6 -17h327q1 0 1 -1v-14q0 -2 -1 -2h-322q6 -16 6 -18h316q1 0 1 -2v-13q0 -2 -1 -2h-310l6 -17h304q1 0 1 -2v-14q0 -1 -1 -1h-297v-1q0 -1 5 -17h292q1 -1 1 -2v-14q0 -2 -1 -2h-286q6 -14 6 -17h280q1 0 1 -1v-14q0 -2 -1 -2h-274l6 -18h268
q1 0 1 -2v-13q0 -2 -1 -2h-261q5 -17 6 -17h255q1 0 1 -2v-14q0 -1 -1 -1h-250q6 -18 8 -18h242q1 -1 1 -2v-14q0 -2 -1 -2h-238q1 -1 6 -17h232q1 0 1 -1v-14q0 -2 -1 -2h-225l5 -18h220q1 0 1 -2v-14q0 -1 -1 -1h-213v-1q5 -16 7 -16h206q1 -1 1 -2v-14q0 -2 -1 -2h-202
q6 -15 6 -17h196q1 -1 1 -2v-14q0 -2 -1 -2h-189l5 -17h184q1 0 1 -1v-14q0 -2 -1 -2h-177v-1l119 -346q-290 -417 -297 -424h-425q-1 0 -1 2h-608q-2 0 -2 2v14q0 1 2 1h601q-6 17 -6 18h-595q-2 0 -2 2v14q0 2 2 2h589q-5 17 -7 17h-582q-2 0 -2 1v14q0 2 2 2h577
q-6 18 -7 18h-570q-2 0 -2 1v14q0 2 2 2h565q-6 15 -6 17h-559q-2 0 -2 2v14q0 1 2 1h553l-6 18h-547q-2 0 -2 2v14q0 2 2 2h540q-4 17 -6 17h-534q-2 0 -2 1v14q0 2 2 2h529q-6 18 -7 18h-522q-2 0 -2 2v13q0 2 2 2h517v1q-2 3 -6 16h-511q-2 0 -2 2v14q0 1 2 1h504v1
q0 1 -5 17h-499q-2 0 -2 2v14q0 2 2 2h492q-5 15 -5 17h-487v1q8 13 11 16h470q-6 16 -6 18h-451v2q9 12 12 15h433q-5 17 -7 17h-414v1q7 11 12 16h397q-6 18 -7 18h-377v1q6 12 12 17h360q-6 15 -6 17h-341q-2 0 -2 1q12 16 13 16h324l-6 18h-304q-2 0 -2 2l12 15h287v1
q-5 16 -6 16h-269v2q11 15 12 15h252q-6 18 -8 18h-231v1q6 10 11 17h216q-2 4 -6 17h-197v1q9 14 12 16h178v1q0 1 -5 17h-161v1q9 14 12 16h142v1q-173 500 -177 516q124 178 154 221h637z" />
    <glyph glyph-name="six" unicode="6" horiz-adv-x="1165" 
d="M1 1412h15q2 0 2 -1v-1145h-2q-12 27 -16 45v1100q0 1 1 1zM36 1412h14q2 0 2 -1v-1208h-1q-5 6 -17 27v1181q0 1 2 1zM70 1412h14q1 0 1 -1v-1253q-3 2 -17 20v1233q1 1 2 1zM103 1412h15q2 0 2 -1v-1288q0 -1 -2 -1l-16 17v1272q0 1 1 1zM138 1412h15q1 0 1 -1v-1317
q0 -2 -1 -2q-17 14 -17 15v1304q0 1 2 1zM172 1412h14q2 0 2 -1v-1341q0 -2 -2 -2l-15 12v1331q0 1 1 1zM206 1412h14q2 0 2 -1v-1361q0 -1 -2 -1q-12 6 -16 10v1352q0 1 2 1zM240 1412h15q1 0 1 -1v-1377q0 -2 -1 -2q-17 8 -17 9v1370q1 1 2 1zM274 1412h14q2 0 2 -1v-1391
q-14 3 -17 7v1384q0 1 1 1zM308 1412h15q1 0 1 -1v-897h1q6 29 16 54v843q0 1 1 1h15q2 0 2 -1v-802l16 29v773q0 1 2 1h14q1 0 1 -1v-747l17 21v726q0 1 1 1h15q2 0 2 -1v-705q130 132 306 132q165 0 292 -119q61 -63 86 -121q39 -88 39 -167v-22q0 -128 -87 -247
q-54 -63 -88 -83q-110 -78 -239 -78h-2l-2 -1h-15q-3 2 -12 2h-6q0 -2 -2 -2h-14q-1 0 -1 5q-3 0 -17 1v-5q0 -1 -1 -1h-15q-2 0 -2 1v8q0 1 -16 5v-13q0 -1 -2 -1h-14q-2 0 -2 1v18l-16 4v-22q0 -1 -2 -1h-14q-2 0 -2 1v28q0 2 -16 8v-36q0 -1 -2 -1h-14q-2 0 -2 1v45
q-1 0 -16 8v-53q0 -1 -2 -1h-15q-1 0 -1 1v64q-2 0 -17 10v-74q0 -1 -1 -1h-14q-2 0 -2 1v86q0 1 -16 14v-100q0 -1 -2 -1h-14q-2 0 -2 1v116l-16 17v-133q0 -1 -2 -1h-15q-1 0 -1 1v153q-12 14 -16 22h-1v-175q0 -1 -1 -1h-7q-9 0 -9 2v198q0 2 -15 28l-1 2v-225l-1 -2
q-17 2 -17 5v262q-12 36 -16 55h-1v-313q0 -2 -1 -2q-17 4 -17 6v1395q1 1 2 1z" />
    <glyph glyph-name="seven" unicode="7" horiz-adv-x="1043" 
d="M2 1417h102q2 0 2 -5h742l2 -1q-1 -262 -1 -422v-311h178q1 0 1 -2v-172q0 -1 -1 -1h-178v-502q0 -1 -1 -1h-14q-2 0 -2 1v1241h-16v-1241q0 -1 -2 -1h-15q-1 0 -1 1v1241h-17v-1241q0 -1 -1 -1h-15q-2 0 -2 1v1241h-16v-1241q0 -1 -2 -1h-14q-1 0 -1 1v1241h-17v-1241
q0 -1 -1 -1h-15q-2 0 -2 1v1241h-16v-1241q0 -1 -2 -1h-14q-2 0 -2 1v1241h-16v-1241q0 -1 -2 -1h-14q-1 0 -1 1v1241h-17v-1241q0 -1 -1 -1h-15q-2 0 -2 1v1241h-16v-1241q0 -1 -2 -1h-14q-2 0 -2 1v1241h-16v-1241q0 -1 -2 -1h-14q-2 0 -2 1v1241h-16v-1241q0 -1 -2 -1
h-14q-2 0 -2 1v1241h-16v-1241q0 -1 -2 -1h-15q-1 0 -1 1v1241h-17v-1241q0 -1 -1 -1h-14q-2 0 -2 1v1241h-16v-1241q0 -1 -2 -1h-15q-1 0 -1 1v1241h-17v-1241q0 -1 -1 -1h-15q-2 0 -2 1v1241h-16v-1241q0 -1 -2 -1h-13q-2 0 -2 1v502h-178q-2 0 -2 1v172q0 2 2 2h178v564
h-319q-2 0 -2 2v171q0 2 2 2z" />
    <glyph glyph-name="eight" unicode="8" horiz-adv-x="852" 
d="M402 1415h5q2 0 2 -1v-1413q0 -1 -2 -1h-1q-15 0 -15 2v1411q0 2 11 2zM427 1415h13q1 0 3 -2v-1411q-1 -2 -7 -2h-9q-2 0 -2 1v1413q1 1 2 1zM460 1414q17 -2 17 -3v-1406q0 -2 -17 -4l-1 2v1409zM374 1413l1 -2v-1407q0 -2 -2 -2q-16 1 -16 3v1405q0 2 17 3zM495 1409
q16 -3 16 -5v-1393q0 -2 -17 -5l-1 2v1399q1 2 2 2zM340 1408v-1399q0 -2 -1 -2q-16 3 -16 5v1391q0 3 17 5zM528 1401q17 -3 17 -6v-1375q0 -3 -17 -6v1387zM306 1400h1v-1385h-1q-3 0 -17 5v1374q0 2 17 6zM561 1390h1q15 -4 17 -7v-1351q0 -2 -17 -7h-1v1365zM272 1389
v-1363q-14 5 -18 8v1347q1 2 18 8zM596 1376q17 -8 18 -10v-1317q-1 -2 -18 -10v1337zM237 1375l1 -2v-1331l-1 -1q-16 7 -16 9v1316q0 1 16 9zM632 1358q15 -10 15 -11v-1279q-12 -10 -17 -10v1299q0 1 2 1zM204 1357l1 -2v-1295q0 -1 -2 -1l-16 11v1275q0 2 17 12z
M665 1336q85 -67 119 -135q53 -95 53 -200v-8q0 -158 -116 -286q51 -53 81 -121q35 -83 35 -164v-8q0 -150 -105 -274q-47 -48 -68 -61l-1 2v1253q1 2 2 2zM169 1334l1 -2v-1250h-1q-53 40 -90 92q-79 111 -79 244q0 162 116 290q-116 126 -116 290q0 166 121 294
q26 25 48 42z" />
    <glyph glyph-name="nine" unicode="9" horiz-adv-x="1165" 
d="M334 1405h167q6 0 18 -3q0 3 2 3h14q2 0 2 -2v-6l16 -5v11q1 2 2 2h14q1 0 1 -2v-17q0 -1 17 -7v24q0 2 1 2h15q2 0 2 -2v-33q1 0 16 -9v42q0 2 2 2h15q1 0 1 -2v-53q2 0 17 -10v63q0 2 1 2h14q2 0 2 -2v-75l16 -14v89q0 2 2 2h14q2 0 2 -2v-104q16 -16 16 -18v122
q1 2 2 2h15q1 0 1 -2v-142q16 -19 16 -21h1v163q0 2 1 2h14q2 0 2 -2v-190q12 -20 16 -28v218q1 2 2 2h15q1 0 1 -2v-257q16 -50 16 -56h1v313q0 2 1 2q17 -3 17 -6v-1398q0 -1 -2 -1h-15q-1 0 -1 1v900h-1q0 -8 -16 -54v-846q0 -1 -1 -1h-15q-2 0 -2 1v805q0 -1 -16 -29
v-776q0 -1 -2 -1h-14q-1 0 -1 1v750h-1q0 -1 -16 -21v-729q0 -1 -1 -1h-15q-2 0 -2 1v709q-129 -133 -307 -133q-145 0 -265 96q-41 36 -60 60q-91 120 -91 255v18q0 126 85 245q45 53 84 82q84 59 165 72zM860 1395q14 -3 17 -7v-1387q0 -1 -1 -1h-14q-2 0 -2 1v1394z
M895 1383q17 -7 17 -8v-1374q0 -1 -2 -1h-15q-1 0 -1 1v1380q0 2 1 2zM930 1366q12 -6 16 -9v-1356q0 -1 -2 -1h-14q-2 0 -2 1v1364q0 1 2 1zM964 1347l15 -12v-1334q0 -1 -1 -1h-14q-2 0 -2 1v1344q0 2 2 2zM997 1323q17 -14 17 -15v-1307q0 -1 -2 -1h-15q-1 0 -1 1v1320
q0 2 1 2zM1032 1294l16 -18v-1275q0 -1 -1 -1h-15q-2 0 -2 1v1291q0 2 2 2zM1064 1257h1q3 -2 17 -20v-1236q0 -1 -2 -1h-14q-2 0 -2 1v1256zM1098 1212h1q6 -8 17 -27v-1184q0 -1 -2 -1h-14q-2 0 -2 1v1211zM1132 1150h2q16 -40 16 -45v-1104q0 -1 -1 -1h-15q-2 0 -2 1
v1149z" />
    <glyph glyph-name="colon" unicode=":" horiz-adv-x="431" 
d="M216 984q71 0 135 -56q65 -66 65 -150v-3q0 -102 -89 -170q-56 -37 -120 -37q-103 0 -171 90q-36 55 -36 115v7q0 96 85 166q59 38 115 38h16zM216 416q71 0 135 -56q65 -66 65 -150v-3q0 -102 -89 -170q-56 -37 -120 -37q-103 0 -171 90q-36 55 -36 115v7q0 96 85 166
q59 38 115 38h16z" />
    <glyph glyph-name="semicolon" unicode=";" horiz-adv-x="766" 
d="M344 714h399q2 0 2 -2v-283q0 -210 -159 -339q-118 -90 -251 -90h-177q-3 0 -38 106q-3 5 -120 344l1 1h179q91 0 141 80q21 37 21 84v97q1 2 2 2zM551 1200q71 0 135 -56q65 -66 65 -150v-3q0 -102 -89 -170q-56 -37 -120 -37q-103 0 -171 90q-36 55 -36 115v7
q0 96 85 166q59 38 115 38h16z" />
    <glyph glyph-name="semicolon" unicode="&#x37e;" horiz-adv-x="766" 
d="M344 714h399q2 0 2 -2v-283q0 -210 -159 -339q-118 -90 -251 -90h-177q-3 0 -38 106q-3 5 -120 344l1 1h179q91 0 141 80q21 37 21 84v97q1 2 2 2zM551 1200q71 0 135 -56q65 -66 65 -150v-3q0 -102 -89 -170q-56 -37 -120 -37q-103 0 -171 90q-36 55 -36 115v7
q0 96 85 166q59 38 115 38h16z" />
    <glyph glyph-name="less" unicode="&#x3c;" horiz-adv-x="596" 
d="M249 0q-2 1 -31 87q-120 346 -218 629q3 0 31 87q2 2 173 498l41 117h16l2 -1l-242 -700h14q2 0 30 84q2 4 197 569q14 42 18 48h16q0 -2 -234 -682q-7 -16 -7 -19h16q29 87 242 700l1 1h15q2 0 2 -2l-242 -699q9 1 16 1q6 20 242 700h16l2 -1l-242 -699h16l233 676
q8 23 10 24h17q-5 -15 -242 -700h15q2 0 37 105q32 89 200 579q6 16 8 16h14q2 0 2 -2q-241 -696 -241 -698h15q6 20 242 700h17l1 -1l-242 -699h16l234 676q8 23 9 24h17q-4 -15 -242 -700h15q2 0 37 105q32 89 200 579q6 16 8 16h14q2 0 2 -2q-241 -696 -241 -698h15
q7 20 242 700l18 -1l-242 -699l254 -718h-332z" />
    <glyph glyph-name="equal" unicode="=" horiz-adv-x="645" 
d="M72 349h493l-35 -154v-1l49 -194h-512q-2 0 -67 196q54 153 72 153zM558 440h-493l35 154v1l-49 194h512q2 0 67 -196q-54 -153 -72 -153z" />
    <glyph glyph-name="greater" unicode="&#x3e;" horiz-adv-x="596" 
d="M0 0l254 718l-242 699l18 1q235 -680 242 -700h15q0 2 -241 698q0 2 2 2h14q2 0 8 -16q168 -490 200 -579q35 -105 37 -105h15q-238 685 -242 700h17q1 -1 9 -24l234 -676h16l-242 699l1 1h17q236 -680 242 -700h15q0 2 -241 698q0 2 2 2h14q2 0 8 -16q168 -490 200 -579
q35 -105 37 -105h15q-237 685 -242 700h17q2 -1 10 -24l233 -676h16l-242 699l2 1h16q236 -680 242 -700q7 0 16 -1l-242 699q0 2 2 2h15l1 -1q213 -613 242 -700h16q0 3 -7 19q-234 680 -234 682h16q4 -6 18 -48q195 -565 197 -569q28 -84 30 -84h14l-242 700l2 1h16
l41 -117q171 -496 173 -498q28 -87 31 -87q-98 -283 -218 -629q-29 -86 -31 -87h-332z" />
    <glyph glyph-name="question" unicode="?" horiz-adv-x="647" 
d="M2 1926h15q1 0 1 -2v-435q0 -2 -1 -2h-15q-2 0 -2 2v435q1 2 2 2zM36 1926h15q2 0 2 -2v-437q0 -2 -2 -2q-16 2 -16 3v436q0 2 1 2zM71 1926h14q2 0 2 -2v-448l-1 -2q-17 7 -17 8v442q0 2 2 2zM104 1926h15q2 0 2 -2v-468h-1q-17 11 -17 12v456q0 2 1 2zM139 1926h14
q2 0 2 -2v-500h-1l-17 18v482q0 2 2 2zM173 1926h15q1 0 1 -2v-567h-1q-5 19 -17 44v523q1 2 2 2zM207 1926q8 -1 13 -1h1q2 0 2 -2v-1426h-16q-2 0 -2 2v1425q0 2 2 2zM240 1924q17 -1 17 -3v-1424h-18v1426zM275 1919q17 -2 17 -4v-1418h-18v1421q0 1 1 1zM308 1913
q17 -4 17 -6v-1410h-18v1414zM343 1903q16 -5 16 -7v-1399h-18v1404q1 2 2 2zM376 1890h1q12 -4 17 -8v-1385h-18v1393zM410 1874q11 -5 17 -10v-1367h-18v1376zM445 1855q17 -12 17 -13v-1345h-18v1356q0 2 1 2zM480 1830q16 -13 16 -15v-1318h-18v1332q0 1 2 1zM513 1802
l17 -18v-1287h-18v1303q0 2 1 2zM546 1765h1q17 -18 17 -23v-1245h-18v1268zM580 1719h1q17 -25 17 -30v-1192h-18v1222zM614 1658h1q17 -39 17 -45v-1114q0 -2 -2 -2h-16v1161zM411 416h16q71 0 135 -56q65 -66 65 -150v-3q0 -102 -89 -170q-56 -37 -120 -37
q-103 0 -171 90q-36 55 -36 115v7q0 96 85 166q59 38 115 38z" />
    <glyph glyph-name="at" unicode="@" 
d="M1108 1415q141 0 269 -94q52 -42 83 -83q94 -125 94 -276v-507q0 -178 -126 -314q-139 -140 -334 -140l-1 1v684q3 43 3 48q0 144 -115 247q-94 75 -200 75h-15q-107 0 -202 -76q-40 -37 -55 -61q-58 -86 -58 -184t57 -184q12 -21 56 -62q93 -77 210 -77q35 0 72 8v134
q-38 -14 -73 -14q-93 0 -157 80q-36 54 -36 108v11q0 90 82 155q53 34 108 34h7q79 0 141 -64q50 -57 50 -132l-1 -12q2 0 2 -1v-241h2v-476q0 -1 -3 -2h-13q-67 0 -181 1l-1 1v316q-3 0 -16 -3v-313q0 -1 -2 -1h-14q-2 0 -2 1v310q0 -1 -17 -2v-308q0 -1 -1 -1h-14
q-2 0 -2 1v306q-11 -1 -16 -1h-1v-305q0 -1 -2 -1h-14q-1 0 -1 1v305h-17v-305q0 -1 -1 -1h-14q-2 0 -2 1v307l-17 2v-309q0 -1 -2 -1h-14q-1 0 -1 1v312q-5 0 -17 3v-315q0 -1 -2 -1h-14q-2 0 -2 1v319l-16 4v-323q0 -1 -2 -1h-14q-1 0 -1 1v330l-17 5v-335q0 -1 -2 -1h-14
q-1 0 -1 1v344q-2 0 -18 8v-352q0 -1 -1 -1h-14q-2 0 -2 1v362q-1 0 -15 9h-1v-371q0 -1 -3 -1q-14 0 -14 2v381q0 1 -17 13h-1v-395q-17 1 -17 3v407l-17 16v-419q0 -2 -2 -2q-15 2 -15 4v435l-16 19v-450l-1 -1q-17 3 -17 5v468q0 2 -16 29h-1v-491q0 -2 -1 -2
q-16 6 -16 7v519q-10 22 -16 43h-1v-555q-17 5 -17 8v615q-4 44 -4 67q0 19 4 64v581q0 2 16 8l1 -1v-520h1q0 3 16 44v483q0 2 16 7l1 -1v-457l17 27v435q0 2 17 6l1 -1v-417q16 19 16 20v401q0 1 16 4l1 -2v-385q17 15 17 16v371q0 1 2 1h14q1 0 1 -1v-357q16 12 18 12
v345q0 1 1 1h14q2 0 2 -1v-332q16 9 16 10v322q0 1 2 1h14q1 0 1 -1v-313h1q16 8 17 9v304q0 1 1 1h14q2 0 2 -1v-297q15 6 17 6v291q0 1 1 1h14q2 0 2 -1v-285q16 5 16 6v279q1 1 2 1h14q2 0 2 -1v-276l17 3v273q0 1 1 1h14q2 0 2 -1v-270l17 2v268q0 1 2 1h14q1 0 1 -1
v-267q11 1 17 1v266q0 1 1 1h14q2 0 2 -1v-266l8 -1h9v267q0 1 2 1h14q1 0 1 -1v-269l17 -2v271q1 1 2 1h14q2 0 2 -1v-274q3 0 16 -4v278q4 3 4 5h331zM245 1364v-1312q-17 8 -17 10v1293q13 9 17 9zM211 1344v-1272h-2q-13 9 -15 12v1249q0 2 17 11zM177 1320v-1222
q0 -2 -2 -2l-16 14v1197q15 13 18 13zM142 1291h1v-1165h-1q-10 8 -16 16v1133q0 1 16 16zM108 1254h1v-1092h-1q-16 18 -16 22v1051q11 15 16 19zM74 1209v-1002h-1q-14 22 -16 29v945q0 4 17 28zM39 1147h2v-878h-2q-15 38 -15 43v793q2 11 15 42zM5 1031h2v-646h-2v1
q-5 38 -5 68v508q0 31 5 69z" />
    <glyph glyph-name="A" unicode="A" horiz-adv-x="1870" 
d="M1364 1418q491 -1416 491 -1417v-1h-868l-57 162h464l-79 214h-467l-2 1q4 10 4 14l-7 20h-1q-9 -28 -13 -35h-17q5 19 22 63q-4 10 -8 22q-1 0 -22 -61q-7 -24 -10 -24h-14q-2 0 -2 2l39 111q-3 3 -8 22h-1q-13 -40 -46 -135h-17l-1 1l55 161q-7 21 -7 22h-1
q-60 -175 -64 -184h-17q0 2 72 212q-7 20 -7 21h-1q-77 -226 -81 -233h-16q-1 0 -1 2q89 256 89 259q-7 21 -8 21q-3 -12 -98 -282h-16l-2 1q104 298 108 308q-2 3 -8 22h-1q-6 -20 -115 -331h-17l123 358q-7 21 -7 22q-3 -3 -132 -379l-2 -1h-15q-1 0 -1 2l140 406
q-7 20 -7 22h-1l-149 -430h-16l-2 1l158 456q-7 21 -7 23h-1l-166 -480h-17l174 507q-1 1 -7 22h-1q-182 -528 -184 -529h-15q-2 0 -2 2q188 540 192 554q-7 21 -8 21l-330 -953h-16q-2 0 -2 1q333 961 339 981q-7 19 -7 20h-2l-346 -1002h-17l-1 1l356 1029q-7 19 -7 22
q-2 0 -183 -526t-184 -526h-16q0 3 373 1079q-7 21 -7 22h-1q-381 -1101 -382 -1101h-16q-1 0 -1 1l390 1128q-6 15 -8 22l-399 -1151h-16l-2 1q400 1154 408 1178q-4 8 -8 21h-1q-3 -11 -414 -1199l-2 -1h-16q0 4 212 615t212 612q-7 22 -9 22q-5 -18 -432 -1249h-16
q-2 0 -2 1q438 1263 441 1276l-6 21h-2l-449 -1298h-16l-2 1l459 1325q-7 19 -7 22q-2 -1 -22 -61l-445 -1286l-2 -1h-16q0 2 475 1375q-8 20 -8 22q-20 -57 -484 -1397h-16q-2 0 -2 1l491 1417h873zM466 361h1q8 -21 8 -24q-4 -16 -116 -336l-1 -1h-17q0 2 125 361z
M485 314q0 -2 8 -24l-100 -290h-17l-1 1l109 313h1zM501 266h1q8 -20 9 -23l-84 -243h-16q-2 0 -2 1zM520 219l9 -25l-67 -193l-2 -1h-16q0 2 72 212q2 7 4 7zM536 171h1q2 0 4 -9h10q0 -3 -27 -81.5t-30 -80.5h-15l-2 1q55 156 59 170zM569 162h14q2 -1 2 -2l-56 -160h-16
q-2 0 -2 1l56 160zM602 162h16l1 -1l-55 -160l-2 -1h-16q53 158 56 162zM653 162q0 -3 -27 -81.5t-30 -80.5h-15l-2 1q53 153 57 161h17zM671 162h15q1 -1 1 -2l-55 -160h-17q-1 0 -1 1l55 160zM704 162h16l2 -1l-56 -160l-2 -1h-16q53 158 56 162zM755 162q0 -3 -27 -81.5
t-29 -80.5h-16l-1 1q53 153 56 161h17zM773 162h15q2 -1 2 -2l-56 -160h-16q-2 0 -2 1l56 160zM807 162h15l2 -1l-56 -160l-1 -1h-17q53 158 57 162zM857 162q0 -3 -27 -81.5t-29 -80.5h-16l-1 1q53 153 56 161h17zM875 162h15q2 -1 2 -2l-56 -160h-16q-2 0 -2 1l56 160z
M909 162h15l2 -1l-56 -160l-1 -1h-17q54 158 57 162z" />
    <glyph glyph-name="B" unicode="B" horiz-adv-x="1343" 
d="M2 1418h14q1 0 1 -2v-1415q0 -1 -1 -1h-14q-2 0 -2 1v1415q0 2 2 2zM36 1418h14q2 0 2 -2v-1415q0 -1 -2 -1h-14q-2 0 -2 1v1415q1 2 2 2zM70 1418h13q2 0 2 -2v-1415q0 -1 -2 -1h-13q-2 0 -2 1v1415q0 2 2 2zM104 1418h14q1 0 1 -2v-1415q0 -1 -1 -1h-14q-2 0 -2 1v1415
q0 2 2 2zM138 1418h14q2 0 2 -2v-1415q0 -1 -2 -1h-14q-1 0 -1 1v1415q0 2 1 2zM172 1418h14q1 0 1 -2v-1415q0 -1 -1 -1h-14q-2 0 -2 1v1415q0 2 2 2zM206 1418h14q2 0 2 -2v-1415q0 -1 -2 -1h-14q-2 0 -2 1v1415q1 2 2 2zM240 1418h14q2 0 2 -2v-1415q0 -1 -2 -1h-14
q-1 0 -1 1v1415q0 2 1 2zM274 1418h14q2 0 2 -2v-1415q0 -1 -2 -1h-14q-2 0 -2 1v1415q1 2 2 2zM308 1418h14q2 0 2 -2v-1415q0 -1 -2 -1h-14q-1 0 -1 1v1415q0 2 1 2zM343 1418h14q1 0 1 -2v-1415q0 -1 -1 -1h-14q-2 0 -2 1v1415q0 2 2 2zM376 1418h14q2 0 2 -2v-1415
q0 -1 -2 -1h-14q-1 0 -1 1v1415q0 2 1 2zM411 1418h13q2 0 2 -2v-1415q0 -1 -2 -1h-13q-2 0 -2 1v1415q0 2 2 2zM445 1418h14q1 0 1 -2v-1415q0 -1 -1 -1h-14q-2 0 -2 1v1415q0 2 2 2zM478 1418h14q2 0 2 -2v-1415q0 -1 -2 -1h-14q-1 0 -1 1v1415q0 2 1 2zM513 1418h14
q1 0 1 -2v-1415q0 -1 -1 -1h-14q-2 0 -2 1v1415q0 2 2 2zM547 1418h344q105 0 220 -66q136 -84 194 -242q23 -72 23 -147q0 -136 -76 -253q76 -112 76 -252q0 -185 -137 -326q-50 -45 -93 -70q-109 -58 -551 -62q-1 0 -1 1v1415q0 2 1 2z" />
    <glyph glyph-name="C" unicode="C" horiz-adv-x="1132" 
d="M261 1418l2 -1l-242 -700h14q2 0 121.5 347.5t123.5 353.5h16q0 -2 -120.5 -350t-120.5 -351h16l242 700l1 1h15q2 0 2 -2l-242 -699q9 1 16 1l242 700h16l2 -1l-242 -699h16q241 699 243 700h17l-242 -700h15q2 0 122.5 350t122.5 350h14q2 0 2 -2q-241 -696 -241 -698
h15l242 700h17l1 -1l-242 -699h16q242 699 243 700h17l-242 -700h15q2 0 122.5 350t122.5 350h14q2 0 2 -2q-241 -696 -241 -698h15l242 700h17l1 -1l-242 -699h17q241 699 243 700h16l-241 -700h14q2 0 122.5 350t122.5 350h15q1 0 1 -2q-241 -696 -241 -698h16l242 700h16
l2 -1l-242 -699h16q241 699 243 700h16l-241 -700h15q1 0 121.5 350t122.5 350h15q2 0 2 -2q-242 -696 -242 -698h16l242 700h16l2 -1q-241 -696 -241 -698h15q239 692 242 699h17l-241 -699h17l241 698l1 1h15q2 0 2 -2l-241 -697h14q2 0 243 699h17l1 -1
q-241 -696 -241 -698h15q239 692 243 699h17l-242 -699h17l241 698l2 1h14q2 0 2 -2l-241 -697h14q2 0 243 699h17l1 -1q-241 -696 -241 -698h16q238 692 242 699h17l-241 -699h16l241 698l2 1h15q1 0 1 -2l-241 -697h15q1 0 243 699h16l2 -1q-242 -696 -242 -698h16
q239 692 242 699h17l-243 -705q244 -702 246 -713h-868q-2 1 -31 87q-120 346 -218 629q3 0 245 702h16z" />
    <glyph glyph-name="D" unicode="D" horiz-adv-x="1343" 
d="M2 1418h14q1 0 1 -2v-1415q0 -1 -1 -1h-14q-2 0 -2 1v1415q0 2 2 2zM35 1418h14q2 0 2 -2v-1415q0 -1 -2 -1h-14q-1 0 -1 1v1415q0 2 1 2zM70 1418h13q2 0 2 -2v-1415q0 -1 -2 -1h-13q-2 0 -2 1v1415q0 2 2 2zM104 1418h14q1 0 1 -2v-1415q0 -1 -1 -1h-14q-2 0 -2 1v1415
q0 2 2 2zM137 1418h14q2 0 2 -2v-1415q0 -1 -2 -1h-14q-1 0 -1 1v1415q0 2 1 2zM172 1418h14q1 0 1 -2v-1415q0 -1 -1 -1h-14q-2 0 -2 1v1415q0 2 2 2zM206 1418h14q2 0 2 -2v-1415q0 -1 -2 -1h-14q-2 0 -2 1v1415q1 2 2 2zM240 1418h14q1 0 1 -2v-1415q0 -1 -1 -1h-14
q-2 0 -2 1v1415q0 2 2 2zM274 1418h14q2 0 2 -2v-1415q0 -1 -2 -1h-14q-2 0 -2 1v1415q1 2 2 2zM308 1418h14q2 0 2 -2v-1415q0 -1 -2 -1h-14q-1 0 -1 1v1415q0 2 1 2zM342 1418h14q1 0 1 -2v-1415q0 -1 -1 -1h-14q-2 0 -2 1v1415q0 2 2 2zM376 1418h14q2 0 2 -2v-1415
q0 -1 -2 -1h-14q-1 0 -1 1v1415q0 2 1 2zM411 1418h13q2 0 2 -2v-1415q0 -1 -2 -1h-13q-2 0 -2 1v1415q0 2 2 2zM444 1418h14q2 0 2 -2v-1415q0 -1 -2 -1h-14q-2 0 -2 1v1415q1 2 2 2zM478 1418h14q2 0 2 -2v-1415q0 -1 -2 -1h-14q-1 0 -1 1v1415q0 2 1 2zM513 1418h14
q1 0 1 -2v-1415q0 -1 -1 -1h-14q-2 0 -2 1v1415q0 2 2 2zM546 1418h345q99 0 211 -61q146 -89 201 -243q25 -70 25 -167v-473q0 -166 -86 -280q-9 -19 -59 -68q-69 -64 -153 -95q-79 -27 -151 -27h-10q0 -4 -2 -4h-14q-2 0 -2 4h-16q0 -4 -2 -4h-13q-2 0 -2 4h-17
q0 -4 -2 -4h-14q-1 0 -1 4h-18q0 -4 -1 -4h-14q-2 0 -2 4h-16q0 -4 -2 -4h-14q-1 0 -1 4h-18q0 -4 -1 -4h-14q-2 0 -2 4h-17q0 -4 -2 -4h-13q-2 0 -2 4h-16q0 -4 -2 -4h-14q-2 0 -2 4h-17q0 -4 -1 -4h-14q-2 0 -2 4h-17q0 -4 -2 -4h-14q-1 0 -1 1v441q0 2 1 2h111
q113 0 165 102q15 36 15 65v207q0 62 -51 117q-51 50 -129 50h-111q-1 0 -1 2v429q0 2 1 2z" />
    <glyph glyph-name="E" unicode="E" horiz-adv-x="1335" 
d="M2 1418h14q1 0 1 -2v-1415q0 -1 -1 -1h-14q-2 0 -2 1v1415q0 2 2 2zM36 1418h14q2 0 2 -2v-1415q0 -1 -2 -1h-14q-2 0 -2 1v1415q1 2 2 2zM70 1418h13q2 0 2 -2v-1415q0 -1 -2 -1h-13q-2 0 -2 1v1415q0 2 2 2zM104 1418h14q1 0 1 -2v-1415q0 -1 -1 -1h-14q-2 0 -2 1v1415
q0 2 2 2zM138 1418h14q2 0 2 -2v-1415q0 -1 -2 -1h-14q-1 0 -1 1v1415q0 2 1 2zM172 1418h14q1 0 1 -2v-1415q0 -1 -1 -1h-14q-2 0 -2 1v1415q0 2 2 2zM206 1418h14q2 0 2 -2v-1415q0 -1 -2 -1h-14q-2 0 -2 1v1415q1 2 2 2zM240 1418h14q2 0 2 -2v-1415q0 -1 -2 -1h-14
q-1 0 -1 1v1415q0 2 1 2zM274 1418h14q2 0 2 -2v-1415q0 -1 -2 -1h-14q-2 0 -2 1v1415q1 2 2 2zM308 1418h14q2 0 2 -2v-1415q0 -1 -2 -1h-14q-1 0 -1 1v1415q0 2 1 2zM343 1418h14q1 0 1 -2v-1415q0 -1 -1 -1h-14q-2 0 -2 1v1415q0 2 2 2zM376 1418h14q2 0 2 -2v-1415
q0 -1 -2 -1h-14q-1 0 -1 1v1415q0 2 1 2zM411 1418h13q2 0 2 -2v-1415q0 -1 -2 -1h-13q-2 0 -2 1v1415q0 2 2 2zM445 1418h14q1 0 1 -2v-1415q0 -1 -1 -1h-14q-2 0 -2 1v1415q0 2 2 2zM478 1418h14q2 0 2 -2v-1415q0 -1 -2 -1h-14q-1 0 -1 1v1415q0 2 1 2zM513 1418h14
q1 0 1 -2v-1415q0 -1 -1 -1h-14q-2 0 -2 1v1415q0 2 2 2zM1320 1416v-347h-451v-174h451v-348h-451v-202h451v-345h-773q-1 0 -1 1v1415h774zM563 1069v-174h16v174h-16zM596 1069v-174h17v174h-17zM631 1069v-174h17v174h-17zM665 1069v-174h16v174h-16zM698 1069v-174h18
v174h-18zM733 1069v-174h17v174h-17zM767 1069v-174h17v174h-17zM801 1069v-174h17v174h-17zM835 1069v-174h17v174h-17zM563 547v-202h16v202h-16zM596 547v-202h17v202h-17zM631 547v-202h17v202h-17zM665 547v-202h16v202h-16zM698 547v-202h18v202h-18zM733 547v-202h17
v202h-17zM767 547v-202h17v202h-17zM801 547v-202h17v202h-17zM835 547v-202h17v202h-17z" />
    <glyph glyph-name="F" unicode="F" horiz-adv-x="1334" 
d="M2 1418h14q1 0 1 -2v-1415q0 -1 -1 -1h-14q-2 0 -2 1v1415q0 2 2 2zM35 1418h14q2 0 2 -2v-1415q0 -1 -2 -1h-14q-1 0 -1 1v1415q0 2 1 2zM70 1418h14q1 0 1 -2v-1415q0 -1 -1 -1h-14q-2 0 -2 1v1415q0 2 2 2zM104 1418h14q2 0 2 -2v-1415q0 -1 -2 -1h-14q-2 0 -2 1v1415
q1 2 2 2zM138 1418h13q2 0 2 -2v-1415q0 -1 -2 -1h-13q-2 0 -2 1v1415q0 2 2 2zM172 1418h14q1 0 1 -2v-1415q0 -1 -1 -1h-14q-2 0 -2 1v1415q0 2 2 2zM206 1418h14q2 0 2 -2v-1415q0 -1 -2 -1h-14q-1 0 -1 1v1415q0 2 1 2zM240 1418h14q1 0 1 -2v-1415q0 -1 -1 -1h-14
q-2 0 -2 1v1415q0 2 2 2zM274 1418h14q2 0 2 -2v-1415q0 -1 -2 -1h-14q-1 0 -1 1v1415q0 2 1 2zM309 1418h13q2 0 2 -2v-1415q0 -1 -2 -1h-13q-2 0 -2 1v1415q0 2 2 2zM342 1418h14q2 0 2 -2v-1415q0 -1 -2 -1h-14q-2 0 -2 1v1415q1 2 2 2zM376 1418h14q2 0 2 -2v-1415
q0 -1 -2 -1h-14q-1 0 -1 1v1415q0 2 1 2zM411 1418h14q1 0 1 -2v-1415q0 -1 -1 -1h-14q-2 0 -2 1v1415q0 2 2 2zM444 1418h14q2 0 2 -2v-1415q0 -1 -2 -1h-14q-1 0 -1 1v1415q0 2 1 2zM479 1418h14q1 0 1 -2v-1415q0 -1 -1 -1h-14q-2 0 -2 1v1415q0 2 2 2zM513 1418h14
q2 0 2 -2v-1415q0 -1 -2 -1h-14q-2 0 -2 1v1415q1 2 2 2zM547 1418h772v-348h-450v-167h450v-349h-450v-553q0 -1 -2 -1h-14q-1 0 -1 1v553h-17v-553q0 -1 -1 -1h-14q-2 0 -2 1v553h-17v-553q0 -1 -2 -1h-14q-1 0 -1 1v553h-17v-553q0 -1 -2 -1h-14q-2 0 -2 1v553h-16v-553
q0 -1 -2 -1h-14q-1 0 -1 1v553h-17v-553q0 -1 -2 -1h-14q-2 0 -2 1v553h-17v-553q0 -1 -1 -1h-14q-2 0 -2 1v553h-16v-553q0 -1 -2 -1h-14q-1 0 -1 1v553h-18v-553q0 -1 -1 -1h-14q-2 0 -2 1v553h-17v-553q0 -1 -2 -1h-13q-2 0 -2 1v1415q0 2 2 2zM562 1070v-167h17v167h-17
zM596 1070v-167h18v167h-18zM631 1070v-167h16v167h-16zM664 1070v-167h17v167h-17zM699 1070v-167h17v167h-17zM733 1070v-167h16v167h-16zM767 1070v-167h17v167h-17zM801 1070v-167h17v167h-17zM835 1070v-167h17v167h-17z" />
    <glyph glyph-name="G" unicode="G" horiz-adv-x="1366" 
d="M261 1418q2 0 2 -2q-2 -4 -242 -699h15q1 0 243 701h17l1 -1l-242 -700h16l242 700l2 1h16v-1l-242 -700h1q9 1 15 1l242 700h17q1 0 1 -2l-242 -698h17q241 698 242 700h16l2 -1q-2 -4 -243 -699h15q2 0 244 700h17v-1l-241 -699h15l242 700h17q1 0 1 -2l-242 -698h17
q241 698 243 700h15l2 -1q-2 -4 -242 -699h14q2 0 244 700h17v-1l-241 -699h16l242 700h16q2 0 2 -2l-242 -698h16q241 698 243 700h15l2 -1q-2 -4 -242 -699h15q1 0 243 700h18v-1l-242 -699h16l242 700h16q2 0 2 -2l-242 -698h16q241 698 243 700h16l1 -1q-2 -4 -242 -699
h15q2 0 244 700h17v-1l-241 -699h15l242 700h17q1 0 1 -2q-241 -696 -241 -697h15l243 699h16l2 -1l-243 -698h17l241 698l2 1h16v-1l-241 -698h15q1 0 242 699h17q1 0 1 -2q-241 -696 -241 -697h16l242 699h16l2 -1l-242 -698h16l241 698l2 1h16v-1l-241 -698h15
q1 0 243 699h16q2 0 2 -2q-242 -696 -242 -697h16l242 699h16l2 -1l-242 -698h16l242 698l1 1h17v-1l-242 -698h15q2 0 243 699h16q2 0 2 -2q-241 -696 -241 -697h15l242 699h17l1 -1l-243 -700l8 -28q1 2 10 27h16q2 0 2 -1l-18 -54q7 -20 7 -22h2q24 77 26 77h15l2 -1
q-28 -81 -34 -105l7 -22h1q41 128 43 128h16l-50 -156q0 -1 7 -22h1q58 177 60 178h15q2 0 2 -1l-68 -205q7 -20 7 -22q2 0 77 228h16l2 -1l-85 -255q8 -23 9 -23l92 279h18l-101 -307v-1q2 -3 7 -21h1l109 328l2 1h14q2 0 2 -1q-115 -347 -118 -356q8 -21 8 -22
q1 0 126 379h17l1 -1l-135 -406q4 -10 8 -22h1l143 429h17l-151 -457q8 -23 9 -23l159 480h16q1 0 1 -1q-159 -479 -167 -508q7 -20 7 -22h1l176 531h16l2 -1l-185 -557q7 -20 7 -23q2 0 194 581h17l-201 -608q7 -19 7 -22h2l208 629l2 1h15q1 0 1 -1l-217 -658l7 -23h1
l226 682h16l2 -1l-235 -709q2 -3 2 -6h-869q-4 6 -24 69q-2 2 -225 647q3 0 245 702h16z" />
    <glyph glyph-name="H" unicode="H" horiz-adv-x="1327" 
d="M2 1418h14q1 0 1 -2v-522h17v522q0 2 1 2h14q2 0 2 -2v-522h17v522q0 2 2 2h13q2 0 2 -2v-522h17v522q0 2 2 2h14q1 0 1 -2v-522h17v522q0 2 1 2h14q2 0 2 -2v-522h17v522q0 2 2 2h14q1 0 1 -2v-522h17v522q1 2 2 2h14q2 0 2 -2v-522h16v522q0 2 2 2h14q1 0 1 -2v-522h17
v522q1 2 2 2h14q2 0 2 -2v-522h17v522q0 2 1 2h14q2 0 2 -2v-522h16v522q0 2 2 2h14q1 0 1 -2v-522h18v522q0 2 1 2h14q2 0 2 -2v-522h17v522q0 2 2 2h13q2 0 2 -2v-522h16v522q1 2 2 2h14q2 0 2 -2v-522h391v522q1 2 2 2h14q2 0 2 -2v-522h17v522q0 2 1 2h14q2 0 2 -2v-522
h17v522q0 2 2 2h14q1 0 1 -2v-522h17v522q0 2 1 2h14q2 0 2 -2v-522h17v522q0 2 2 2h14q1 0 1 -2v-522h17v522q1 2 2 2h14q2 0 2 -2v-522h16v522q0 2 2 2h13q2 0 2 -2v-522h17v522q0 2 2 2h14q1 0 1 -2v-522h18v522q0 2 1 2h14q2 0 2 -2v-522h16v522q0 2 2 2h14q1 0 1 -2
v-522h17v522q1 2 2 2h14q2 0 2 -2v-522h17v522q0 2 1 2h14q2 0 2 -2v-522h16v522q1 2 2 2h14q2 0 2 -2v-522h17v522q0 2 1 2h14q2 0 2 -2v-1415q0 -1 -2 -1h-14q-1 0 -1 1v544h-17v-544q0 -1 -2 -1h-14q-2 0 -2 1v544h-16v-544q0 -1 -2 -1h-14q-1 0 -1 1v544h-17v-544
q0 -1 -2 -1h-14q-2 0 -2 1v544h-17v-544q0 -1 -1 -1h-14q-2 0 -2 1v544h-16v-544q0 -1 -2 -1h-14q-1 0 -1 1v544h-18v-544q0 -1 -1 -1h-14q-2 0 -2 1v544h-17v-544q0 -1 -2 -1h-13q-2 0 -2 1v544h-16v-544q0 -1 -2 -1h-14q-2 0 -2 1v544h-17v-544q0 -1 -1 -1h-14q-2 0 -2 1
v544h-17v-544q0 -1 -2 -1h-14q-1 0 -1 1v544h-17v-544q0 -1 -1 -1h-14q-2 0 -2 1v544h-17v-544q0 -1 -2 -1h-14q-1 0 -1 1v544h-17v-544q0 -1 -2 -1h-14q-2 0 -2 1v544h-391v-544q0 -1 -2 -1h-14q-2 0 -2 1v544h-16v-544q0 -1 -2 -1h-13q-2 0 -2 1v544h-17v-544q0 -1 -2 -1
h-14q-1 0 -1 1v544h-18v-544q0 -1 -1 -1h-14q-2 0 -2 1v544h-16v-544q0 -1 -2 -1h-14q-1 0 -1 1v544h-17v-544q0 -1 -2 -1h-14q-2 0 -2 1v544h-17v-544q0 -1 -1 -1h-14q-2 0 -2 1v544h-16v-544q0 -1 -2 -1h-14q-2 0 -2 1v544h-17v-544q0 -1 -1 -1h-14q-2 0 -2 1v544h-17
v-544q0 -1 -2 -1h-14q-1 0 -1 1v544h-17v-544q0 -1 -1 -1h-14q-2 0 -2 1v544h-17v-544q0 -1 -2 -1h-13q-2 0 -2 1v544h-17v-544q0 -1 -2 -1h-14q-1 0 -1 1v544h-17v-544q0 -1 -1 -1h-14q-2 0 -2 1v1415q0 2 2 2z" />
    <glyph glyph-name="I" unicode="I" horiz-adv-x="1327" 
d="M341 1070h-17v-719h17v719zM375 351v719h-17v-719h17zM392 351h17v719h-17v-719zM52 1070v-719h16v719h-16zM1278 1070v-719h17v719h-17zM1244 1070v-719h17v719h-17zM1210 1070v-719h17v719h-17zM1176 1070v-719h16v719h-16zM1142 1070v-719h17v719h-17zM1107 1070v-719
h18v719h-18zM1074 1070v-719h16v719h-16zM1040 1070v-719h17v719h-17zM1005 1070v-719h17v719h-17zM972 1070v-719h16v719h-16zM937 1070v-719h17v719h-17zM903 1070v-719h17v719h-17zM869 1070v-719h17v719h-17zM426 351h17v719h-17v-719zM307 1070h-17v-719h17v719z
M272 1070h-16v-719h16v719zM222 1070v-719h17v719h-17zM187 1070v-719h17v719h-17zM154 1070v-719h16v719h-16zM119 1070v-719h18v719h-18zM85 1070v-719h17v719h-17zM20 1070l-1 -720q0 1 1 1h14v719h-14zM0 1q0 1417 2 1417h1310v-1418z" />
    <glyph glyph-name="J" unicode="J" horiz-adv-x="1140" 
d="M614 1418v-699h17v697q0 2 2 2h13q2 0 2 -2v-697h17v697q0 2 2 2h14q1 0 1 -2v-697h17v697q0 2 1 2h14q2 0 2 -2v-697h17v697q0 2 2 2h14q1 0 1 -2v-697h18v697q0 2 1 2h14q2 0 2 -2v-697h16v697q0 2 2 2h14q1 0 1 -2v-697h17v697q1 2 2 2h14q2 0 2 -2v-697h17v697
q0 2 1 2h14q2 0 2 -2v-744l15 -48h1v792q1 2 2 2h14q1 0 1 -2v-841q0 -2 17 -50h1v891q0 2 1 2h14q2 0 2 -2v-941l16 -49h1v990q0 2 2 2h14q1 0 1 -2v-1039q0 -2 16 -49h1v1088q0 2 1 2h14q2 0 2 -2v-1137l16 -49h1v1186q0 2 2 2h13q2 0 2 -2v-1236q0 -1 16 -50h1v1286
q0 2 2 2h14q1 0 1 -2v-1335q0 -2 16 -48h1v1383q0 2 1 2h14q2 0 2 -2v-1415q0 -1 -2 -1h-873l-247 719h594v351h-595q-2 0 -2 1l1 347h613z" />
    <glyph glyph-name="K" unicode="K" horiz-adv-x="1300" 
d="M1 1418h14q2 0 2 -2v-543q0 -1 -2 -1h-14q-1 0 -1 1v543q0 2 1 2zM35 1418h14q1 0 1 -2v-543q0 -1 -1 -1h-14q-2 0 -2 1v543q0 2 2 2zM69 1418h14q2 0 2 -2v-543q0 -1 -2 -1h-14q-1 0 -1 1v543q0 2 1 2zM104 1418h13q2 0 2 -2v-543q0 -1 -2 -1h-13q-2 0 -2 1v543q0 2 2 2
zM137 1418h14q2 0 2 -2v-543q0 -1 -2 -1h-14q-2 0 -2 1v543q1 2 2 2zM171 1418h14q2 0 2 -2v-543q0 -1 -2 -1h-14q-1 0 -1 1v543q0 2 1 2zM206 1418h14q1 0 1 -2v-543q0 -1 -1 -1h-14q-2 0 -2 1v543q0 2 2 2zM239 1418h14q2 0 2 -2v-543q0 -1 -2 -1h-14q-1 0 -1 1v543
q0 2 1 2zM274 1418h14q1 0 1 -2v-543q0 -1 -1 -1h-14q-2 0 -2 1v543q0 2 2 2zM308 1418h14q2 0 2 -2v-543q0 -1 -2 -1h-14q-2 0 -2 1v543q1 2 2 2zM342 1418h13q2 0 2 -2v-543q0 -1 -2 -1h-13q-2 0 -2 1v543q0 2 2 2zM376 1418h14q1 0 1 -2v-543q0 -1 -1 -1h-14q-2 0 -2 1
v543q0 2 2 2zM410 1418h14q2 0 2 -2v-543q0 -1 -2 -1h-14q-1 0 -1 1v543q0 2 1 2zM444 1418h14q1 0 1 -2v-543q0 -1 -1 -1h-14q-2 0 -2 1v543q0 2 2 2zM478 1418h14q2 0 2 -2v-543q0 -1 -2 -1h-14q-1 0 -1 1v543q0 2 1 2zM512 1418h14q2 0 2 -2v-543q0 -1 -2 -1h-14
q-1 0 -1 1v543q0 2 1 2zM758 1418h16q-4 -15 -188 -546h15q1 0 24 67q163 472 166 479h16q2 0 2 -2q-186 -535 -189 -544h16q37 108 189 546h16l2 -1l-189 -545h16l183 530q4 13 7 16h16q-4 -15 -188 -546h15q2 0 24 67q163 472 167 479h15q2 0 2 -2q-186 -535 -188 -544h15
q37 108 189 546h17l1 -1l-189 -545h17l182 530q5 13 7 16h17q-4 -15 -188 -546h14q2 0 24 67q164 472 167 479h15q2 0 2 -2q-186 -535 -188 -544h15q37 108 189 546h17l1 -1l-189 -545h17l182 530q5 13 8 16h16q-4 -15 -188 -546h15q1 0 23 67q164 472 167 479h16q1 0 1 -2
q-185 -535 -188 -544h16q37 108 189 546h16l2 -1l-189 -545h16l182 530q5 13 8 16h16q-4 -15 -188 -546h15q1 0 23 67q164 472 167 479h16q2 0 2 -2q-186 -535 -189 -544h16q37 108 189 546h16l2 -1l-189 -545h16l183 530q4 13 7 16h16q-4 -15 -241 -700v-1
q142 -406 142 -419q41 -148 41 -297l-1 -1h-14q-2 0 -2 2q0 209 -87 432q0 2 -30 89h-15q63 -177 81 -248q34 -139 34 -267v-7q0 -1 -2 -1h-14q-1 0 -1 1v6q0 204 -87 428q-27 82 -31 88h-15q79 -223 79 -239q37 -143 37 -283l-1 -1h-14l-2 1q0 206 -84 426l-33 96h-15v-1
q63 -177 82 -254q33 -136 33 -267l-2 -1h-13q-2 0 -2 2q0 209 -87 432q0 2 -30 89h-16q63 -177 81 -248q35 -139 35 -267v-7q0 -1 -2 -1h-14q-1 0 -1 1v6q0 204 -87 428q-27 82 -31 88h-15q79 -223 79 -239q37 -143 37 -283l-1 -1h-14l-2 1q0 206 -84 426l-33 96h-15v-1
q63 -177 82 -254q33 -136 33 -267l-2 -1h-14q-1 0 -1 2q0 209 -87 432q0 2 -30 89h-16q63 -177 81 -248q35 -139 35 -267v-7q0 -1 -2 -1h-14q-2 0 -2 1v6q0 204 -86 428q-27 82 -31 88h-15q78 -223 78 -239q38 -143 38 -283l-2 -1h-14l-1 1q0 206 -84 426l-33 96h-16v-1
q63 -177 83 -254q33 -136 33 -267l-2 -1h-14q-2 0 -2 2q0 209 -86 432q0 2 -31 89h-15q63 -177 81 -248q34 -139 34 -267v-7q0 -1 -1 -1h-14q-2 0 -2 1v6q0 204 -87 428q-27 82 -31 88h-14q78 -223 78 -239q38 -143 38 -283l-2 -1h-14l-1 1q0 206 -85 426l-32 96h-16v-1
q63 -177 83 -254q32 -136 32 -267l-1 -1h-14q-2 0 -2 2q0 209 -86 432q0 2 -31 89h-15q63 -177 81 -248q34 -139 34 -267v-7q0 -1 -2 -1h-14q-1 0 -1 1v6q0 204 -87 428q-27 82 -31 88h-15q79 -223 79 -239q37 -143 37 -283l-1 -1h-14l-2 1q0 206 -84 426l-33 96h-15v-1
q63 -177 82 -254q33 -136 33 -267l-1 -1h-14q-2 0 -2 2q0 204 -83 421q-31 92 -35 100q-2 0 -67 196l242 698zM1 523h14q2 0 2 -1v-521q0 -1 -2 -1h-14q-1 0 -1 1v521q0 1 1 1zM35 523h14q1 0 1 -1v-521q0 -1 -1 -1h-14q-2 0 -2 1v521q0 1 2 1zM69 523h14q2 0 2 -1v-521
q0 -1 -2 -1h-14q-1 0 -1 1v521q0 1 1 1zM104 523h13q2 0 2 -1v-521q0 -1 -2 -1h-13q-2 0 -2 1v521q0 1 2 1zM137 523h14q2 0 2 -1v-521q0 -1 -2 -1h-14q-2 0 -2 1v521q1 1 2 1zM171 523h14q2 0 2 -1v-521q0 -1 -2 -1h-14q-1 0 -1 1v521q0 1 1 1zM206 523h14q1 0 1 -1v-521
q0 -1 -1 -1h-14q-2 0 -2 1v521q0 1 2 1zM239 523h14q2 0 2 -1v-521q0 -1 -2 -1h-14q-1 0 -1 1v521q0 1 1 1zM274 523h14q1 0 1 -1v-521q0 -1 -1 -1h-14q-2 0 -2 1v521q0 1 2 1zM308 523h14q2 0 2 -1v-521q0 -1 -2 -1h-14q-2 0 -2 1v521q1 1 2 1zM342 523h13q2 0 2 -1v-521
q0 -1 -2 -1h-13q-2 0 -2 1v521q0 1 2 1zM376 523h14q1 0 1 -1v-521q0 -1 -1 -1h-14q-2 0 -2 1v521q0 1 2 1zM410 523h14q2 0 2 -1v-521q0 -1 -2 -1h-14q-1 0 -1 1v521q0 1 1 1zM444 523h14q1 0 1 -1v-521q0 -1 -1 -1h-14q-2 0 -2 1v521q0 1 2 1zM478 523h14q2 0 2 -1v-521
q0 -1 -2 -1h-14q-1 0 -1 1v521q0 1 1 1zM512 523h14q2 0 2 -1v-521q0 -1 -2 -1h-14q-1 0 -1 1v521q0 1 1 1z" />
    <glyph glyph-name="L" unicode="L" horiz-adv-x="1053" 
d="M525 1418v-752h1q0 -1 -1 -9v-41h1q16 50 18 50h15q2 0 2 -1q-36 -102 -36 -106v-42h1q50 149 52 149h15l2 -1q-65 -184 -70 -205v-42h1l85 248h18q0 -2 -51 -147.5t-53 -156.5v-42h1q6 20 119 346h16q2 0 2 -1q-132 -379 -138 -402v-42h1q0 3 153 445h17l1 -1
q-169 -487 -172 -500v-42h1l188 543h17q0 -2 -206 -598v-44h1l220 641q1 1 2 1h16q1 0 1 -1q-227 -658 -230 -665h-535v1418h525zM798 666l2 -1l-231 -665h-16l-2 1l231 665h16zM817 666h16q0 -2 -230 -665l-1 -1h-15q-2 0 -2 1l230 664zM850 666h16q1 0 1 -1
q-227 -658 -230 -665h-17q0 3 114.5 334.5t115.5 331.5zM900 666l2 -1l-231 -665h-16l-2 1l231 665h16zM919 666h16q0 -2 -229 -665l-2 -1h-15q-1 0 -1 1l229 664zM953 666h15q2 0 2 -1q-228 -658 -231 -665h-17q0 3 115 334.5t116 331.5zM1002 666l2 -1l-231 -665h-16l-2 1
l231 665h16zM1021 666h17q0 -2 -230 -665l-2 -1h-15q-1 0 -1 1l230 664z" />
    <glyph glyph-name="M" unicode="M" horiz-adv-x="2882" 
d="M492 1418h869q2 0 74 -212h1q0 2 72 210q-1 0 -1 1l2 1h868l490 -1418h-868l-72 206q-2 -1 -73 -206h-871q-2 0 -57 162q-1 0 -28.5 -80t-29.5 -82h-15l-2 1q2 3 66 188q-8 19 -8 23h-1q0 -2 -72 -211l-2 -1h-16v1l81 238q0 1 -7 22h-1q0 -2 -90 -261h-16q-2 0 -2 1
q99 285 99 287l-7 22h-1l-107 -310h-16l-2 1q114 328 116 336q-6 22 -8 22q-6 -19 -124 -358l-1 -1h-17v1l134 385q-8 19 -8 22q-3 -4 -142 -408h-16q-2 0 -2 1l151 434q-1 1 -8 22q-1 -1 -159 -457h-17l-1 1q1 3 167 484q-5 15 -7 22h-1l-176 -507h-17v1l184 534
q-3 7 -7 21h-1q-7 -21 -192 -556h-17q-1 0 -1 1l201 583q-7 21 -8 21l-210 -605h-16l-2 1q212 610 219 632q-6 20 -8 21l-224 -650q-2 -4 -4 -4h-16v1l235 680q-7 20 -7 22h-2q-4 -16 -123 -359t-120 -344h-16q-1 0 -1 1l252 730q-3 7 -7 22h-1l-261 -753h-16l-2 1l270 779
q-1 1 -7 22h-1l-277 -801l-2 -1h-16v1q0 1 286 828l-7 23h-1q-12 -36 -153 -444t-142 -408h-16q-2 0 -2 1l292 843q3 6 12 35l-8 22l-312 -901h-16l-2 1q318 915 321 929q-7 16 -7 19h-2q-327 -946 -328 -949h-18v1q337 972 337 977l-6 20h-2l-345 -998h-16q-2 0 -2 1
l355 1025q-6 15 -7 22q-2 0 -364 -1048h-17l-1 1q1 3 372 1075q-4 10 -7 22h-1l-381 -1098h-17v1q385 1111 389 1125q-2 3 -8 21l-397 -1147h-16q-2 0 -2 1q399 1151 406 1174l-8 21h-1q0 -2 -413 -1196h-17l-1 1q1 3 211.5 610.5t210.5 612.5q-6 21 -8 21
q-5 -16 -430 -1244l-2 -1h-16v1l440 1271q-3 8 -7 22q-3 -1 -449 -1294h-17q-1 0 -1 1l457 1321q-2 3 -8 22l-466 -1344h-16l-2 1l475 1369l-8 23h-1l-482 -1393h-17v1q487 1410 490 1415q2 0 2 2zM1445 1178l7 -20h1q0 2 72 208q-2 3 -7 22q-2 0 -35.5 -96.5t-37.5 -113.5z
M1533 1339q-4 -15 -72 -209q6 -15 8 -22q1 1 36 102.5t37 106.5q-4 10 -7 22h-2zM1550 1290q-1 -7 -71 -210q3 -7 7 -22h1q72 209 72 210q-7 22 -9 22zM1568 1240l-72 -209q0 -1 7 -22h1l72 210zM1585 1192l-72 -211l7 -21h1l72 210q-7 19 -7 22h-1zM1602 1142
q-65 -189 -72 -210q7 -21 8 -21q3 12 72 208q-7 22 -7 23h-1zM1546 884q8 -19 8 -22h1q5 17 72 208q-7 21 -7 22q-3 -4 -74 -208zM1636 1043q-68 -197 -72 -208q0 -1 7 -22q2 0 73 209l-7 21h-1zM1653 994q-5 -16 -72 -209q5 -15 7 -22h1q71 205 72 210q-7 21 -8 21z
M1670 945q-3 -11 -72 -209q7 -21 7 -23h1l72 211q-7 20 -7 21h-1zM1687 896q-70 -204 -72 -211q2 -3 7 -21h1q0 1 72 210q-7 20 -7 22h-1zM1704 847l-72 -210q6 -21 8 -21l72 209q-2 3 -7 22h-1zM1649 587q7 -19 7 -20h2q9 30 72 208q-4 7 -8 22q-1 0 -37 -103t-36 -107z
M1738 747l-72 -208q3 -8 7 -22q2 0 37.5 103t35.5 107q-7 19 -7 20h-1zM1755 698l-72 -209q2 -3 7 -22h1l72 210q-6 21 -8 21zM1772 650q0 -2 -72 -210q8 -21 8 -22q71 204 72 211q-1 2 -7 21h-1zM1789 601l-72 -211q4 -11 8 -21h1q3 11 71 209q-7 21 -7 23h-1zM1806 551
q-71 -206 -71 -210q6 -22 8 -22q5 17 72 210q-6 15 -8 22h-1zM1752 292l6 -21h2q67 196 72 208q-1 1 -8 22q-2 0 -72 -209zM1840 452q-5 -17 -72 -209q7 -20 7 -22q4 5 74 209q-3 7 -7 22h-2zM1857 403q-3 -12 -72 -209q8 -21 8 -23q66 190 72 211q-6 21 -8 21zM1874 354
l-72 -210q2 -3 8 -22h1l72 211l-8 21h-1zM1892 305l-72 -210l7 -22h1l72 210q-1 1 -8 22zM1909 256q-72 -209 -72 -210q6 -22 8 -22q2 7 72 210q-3 7 -7 22h-1z" />
    <glyph glyph-name="N" unicode="N" horiz-adv-x="1730" 
d="M2 1418h14q1 0 1 -2v-1413q0 -2 -1 -2h-14q-2 0 -2 2v1413q1 2 2 2zM37 1418h14q2 0 2 -2v-1413q0 -2 -2 -2h-14q-2 0 -2 2v1413q1 2 2 2zM71 1418h14q2 0 2 -2v-1413q0 -2 -2 -2h-14q-1 0 -1 2v1413q0 2 1 2zM107 1418h14q1 0 1 -2v-1413q0 -2 -1 -2h-14q-2 0 -2 2v1413
q0 2 2 2zM141 1418h14q2 0 2 -2v-1413q0 -2 -2 -2h-14q-2 0 -2 2v1413q1 2 2 2zM176 1418h14q2 0 2 -2v-1413q0 -2 -2 -2h-14q-1 0 -1 2v1413q0 2 1 2zM211 1418h13q2 0 2 -2v-1413q0 -2 -2 -2h-13q-2 0 -2 2v1413q0 2 2 2zM246 1418h14q1 0 1 -2v-1413q0 -2 -1 -2h-14
q-2 0 -2 2v1413q0 2 2 2zM279 1418h664l267 -760h1v758q0 2 2 2h14q1 0 1 -2v-807q0 -2 18 -52v859q1 2 2 2h14q2 0 2 -2v-908q0 -2 16 -51h1v959q0 2 1 2h14q2 0 2 -2v-1007q0 -3 17 -54h1v1061q0 2 1 2h14q2 0 2 -2v-1110l16 -50h1v1160q0 2 2 2h14q1 0 1 -2v-1209
q0 -2 18 -53v1262q1 2 2 2h14q2 0 2 -2v-1312l16 -49h1v1361q0 2 1 2h14q2 0 2 -2l1 -1416l-672 3l-261 759h-1v-759q0 -2 -2 -2h-13q-2 0 -2 2v807q0 2 -16 51h-1v-858q0 -2 -2 -2h-14q-1 0 -1 2v908l-18 51v-959q0 -2 -2 -2h-14q-2 0 -2 2v1008l-16 51h-1v-1059
q0 -2 -1 -2h-14q-2 0 -2 2v1107q0 3 -17 54h-1v-1161q0 -2 -2 -2h-13q-2 0 -2 2v1210q0 2 -16 50h-1v-1260q0 -2 -2 -2h-14q-1 0 -1 2v1309q0 1 -18 53v-1362q0 -2 -2 -2h-14q-2 0 -2 2v1414zM1457 1418h13q2 0 2 -2v-1413q0 -2 -2 -2h-13q-2 0 -2 2v1413q0 2 2 2z
M1491 1418h14q1 0 1 -2v-1413q0 -2 -1 -2h-14q-2 0 -2 2v1413q0 2 2 2zM1526 1418h14q2 0 2 -2v-1413q0 -2 -2 -2h-14q-2 0 -2 2v1413q1 2 2 2zM1560 1418h14q2 0 2 -2v-1413q0 -2 -2 -2h-14q-1 0 -1 2v1413q0 2 1 2zM1596 1418h13q2 0 2 -2v-1413q0 -2 -2 -2h-13q-2 0 -2 2
v1413q0 2 2 2zM1630 1418h14q1 0 1 -2v-1413q0 -2 -1 -2h-14q-2 0 -2 2v1413q1 2 2 2zM1665 1418h14q2 0 2 -2v-1413q0 -2 -2 -2h-14q-2 0 -2 2v1413q1 2 2 2zM1699 1418h14q2 0 2 -2v-1413q0 -2 -2 -2h-14q-1 0 -1 2v1413q0 2 1 2z" />
    <glyph glyph-name="O" unicode="O" 
d="M400 1411h14q1 -1 1 -2v-1408q-17 1 -17 4v1404q0 2 2 2zM434 1411h14q2 -1 2 -2v-1408q0 -1 -2 -1h-14q-1 0 -1 1v1408q0 2 1 2zM468 1411h14q1 -1 1 -2v-518q-15 -33 -15 -40h-2v558q0 2 2 2zM502 1411h14q2 -1 2 -2v-476l-17 -17v493q0 2 1 2zM536 1411h14q2 -1 2 -2
v-451q0 -1 -16 -11l-1 1v461q0 2 1 2zM570 1411h14q2 -1 2 -2v-437q-1 -1 -17 -7l-1 1v443q1 2 2 2zM604 1411h14q2 -1 2 -2v-430q0 -3 -17 -4v434q0 2 1 2zM639 1411h14q1 -1 1 -2v-429q0 -2 -1 -2h-14q-2 0 -2 2v429q0 2 2 2zM672 1411h14q2 -1 2 -2v-429q0 -2 -2 -2h-14
q-1 0 -1 2v429q0 2 1 2zM707 1411h14q1 -1 1 -2v-429q0 -2 -1 -2h-14q-2 0 -2 2v429q0 2 2 2zM741 1411h14q2 -1 2 -2v-429q0 -2 -2 -2h-14q-2 0 -2 2v429q1 2 2 2zM774 1411h382q69 -5 162 -52q35 -19 86 -61q150 -143 150 -339v-504q0 -200 -155 -343q-133 -112 -300 -112
h-325q-1 0 -1 1v434q0 1 1 1h108q113 0 165 101q16 34 16 79v183q0 107 -96 161q-37 18 -83 18h-110q-1 0 -1 2v429q0 2 1 2zM380 1409l1 -2v-1400l-1 -2q-16 3 -16 5v1394q0 2 16 5zM348 1402v-1389h-1q-17 3 -17 5v1379q0 2 18 5zM313 1392v-1369q-14 2 -17 6v1356
q3 4 17 7zM278 1379l1 -1v-1341l-1 -2q-16 7 -16 8v1328q0 1 16 8zM245 1363v-1312q-12 5 -17 10v1292q6 7 17 10zM210 1343l1 -1v-1270q0 -1 -2 -1l-15 11v1250q6 6 16 11zM176 1319h1v-1224h-1q-12 8 -17 14v1196q5 6 17 14zM142 1290h1v-1166h-1q-1 0 -16 16v1134
q0 1 16 16zM108 1254h1v-1093h-1q-3 2 -16 19v1054q13 17 16 20zM73 1208h1v-1001h-1l-16 26v949zM39 1146h2v-878h-2q-11 25 -15 43v793q2 11 15 42zM5 1030h2v-646h-2q-5 38 -5 68v510q0 30 5 68zM466 563h2q0 -7 15 -40v-522q0 -1 -1 -1h-14q-2 0 -2 1v562zM501 499
l17 -18v-480q0 -1 -2 -1h-14q-1 0 -1 1v498zM536 468q16 -11 16 -12v-455q0 -1 -2 -1h-14q-1 0 -1 1v465q0 2 1 2zM569 450q17 -6 17 -8v-441q0 -1 -2 -1h-14q-2 0 -2 1v447zM603 439h1q16 -1 16 -3v-435q0 -1 -2 -1h-14q-1 0 -1 1v438zM639 436h14q1 0 1 -1v-434
q0 -1 -1 -1h-14q-2 0 -2 1v434q0 1 2 1zM672 436h14q2 0 2 -1v-434q0 -1 -2 -1h-14q-1 0 -1 1v434q0 1 1 1zM707 436h14q1 0 1 -1v-434q0 -1 -1 -1h-14q-2 0 -2 1v434q0 1 2 1zM741 436h14q2 0 2 -1v-434q0 -1 -2 -1h-14q-2 0 -2 1v434q1 1 2 1z" />
    <glyph glyph-name="P" unicode="P" horiz-adv-x="1339" 
d="M2 1418h14q1 0 1 -2v-1415q0 -1 -1 -1h-14q-2 0 -2 1v1415q0 2 2 2zM36 1418h14q2 0 2 -2v-1415q0 -1 -2 -1h-14q-1 0 -1 1v1415q0 2 1 2zM71 1418h13q2 0 2 -2v-1415q0 -1 -2 -1h-13q-2 0 -2 1v1415q0 2 2 2zM104 1418h14q2 0 2 -2v-1415q0 -1 -2 -1h-14q-2 0 -2 1v1415
q1 2 2 2zM138 1418h14q2 0 2 -2v-1415q0 -1 -2 -1h-14q-1 0 -1 1v1415q0 2 1 2zM173 1418h14q1 0 1 -2v-1415q0 -1 -1 -1h-14q-2 0 -2 1v1415q0 2 2 2zM206 1418h14q2 0 2 -2v-1415q0 -1 -2 -1h-14q-1 0 -1 1v1415q0 2 1 2zM241 1418h14q1 0 1 -2v-1415q0 -1 -1 -1h-14
q-2 0 -2 1v1415q0 2 2 2zM275 1418h14q2 0 2 -2v-1415q0 -1 -2 -1h-14q-2 0 -2 1v1415q1 2 2 2zM309 1418h13q2 0 2 -2v-1415q0 -1 -2 -1h-13q-2 0 -2 1v1415q0 2 2 2zM343 1418h14q1 0 1 -2v-1415q0 -1 -1 -1h-14q-2 0 -2 1v1415q0 2 2 2zM377 1418h14q2 0 2 -2v-1415
q0 -1 -2 -1h-14q-1 0 -1 1v1415q0 2 1 2zM411 1418h14q1 0 1 -2v-1415q0 -1 -1 -1h-14q-2 0 -2 1v1415q0 2 2 2zM445 1418h14q2 0 2 -2v-1415q0 -1 -2 -1h-14q-1 0 -1 1v1415q0 2 1 2zM480 1418h13q2 0 2 -2v-1415q0 -1 -2 -1h-13q-2 0 -2 1v1415q0 2 2 2zM513 1418h14
q2 0 2 -2v-1415q0 -1 -2 -1h-14q-2 0 -2 1v1415q1 2 2 2zM547 1418h14q2 0 2 -2v-1415q0 -1 -2 -1h-14q-1 0 -1 1v1415q0 2 1 2zM582 1418h14q1 0 1 -2v-1415q0 -1 -1 -1h-14q-2 0 -2 1v1415q0 2 2 2zM615 1418h14q2 0 2 -2v-1415q0 -1 -2 -1h-14q-1 0 -1 1v1415q0 2 1 2z
M650 1418h14q1 0 1 -2v-1415q0 -1 -1 -1h-14q-2 0 -2 1v1415q0 2 2 2zM684 1418h14q2 0 2 -2v-1415q0 -1 -2 -1h-14q-2 0 -2 1v1415q1 2 2 2zM718 1418h13q2 0 2 -2v-1415q0 -1 -2 -1h-13q-2 0 -2 1v1415q0 2 2 2zM752 1418h14q1 0 1 -2v-1415q0 -1 -1 -1h-14q-2 0 -2 1
v1415q0 2 2 2zM786 1418h14q2 0 2 -2v-1415q0 -1 -2 -1h-14q-1 0 -1 1v1415q0 2 1 2zM820 1418h14q1 0 1 -2v-1415q0 -1 -1 -1h-14q-2 0 -2 1v1415q0 2 2 2zM854 1418h25q121 0 236 -71q30 -17 86 -71q123 -137 123 -312q0 -194 -150 -337q-94 -79 -189 -101
q-59 -15 -115 -15v-510q0 -1 -2 -1h-14q-2 0 -2 1v1415q1 2 2 2z" />
    <glyph glyph-name="Q" unicode="Q" horiz-adv-x="1570" 
d="M400 1415h14q1 -1 1 -2v-1408q-17 1 -17 4v1404q1 2 2 2zM433 1415h14q2 -1 2 -2v-1408q0 -1 -2 -1h-13q-1 0 -2 2v1407q0 2 1 2zM468 1415h14q1 -1 1 -2v-517q-15 -34 -15 -39h-2v556q0 2 2 2zM502 1415h14q2 -1 2 -2v-476l-17 -16v492q0 2 1 2zM536 1415h14q1 -1 1 -2
v-451q-1 -3 -17 -11v462q0 2 2 2zM570 1415h14q2 -1 2 -2v-437q0 -2 -17 -6h-1v443q1 2 2 2zM604 1415h14q2 -1 2 -2v-430q0 -3 -17 -3v433q0 2 1 2zM638 1415h14q1 -1 1 -2v-429q0 -2 -1 -2h-14q-2 0 -2 2v429q1 2 2 2zM672 1415h14q2 -1 2 -2v-429q0 -2 -2 -2h-14
q-1 0 -1 2v429q0 2 1 2zM707 1415h14q1 -1 1 -2v-429q0 -2 -1 -2h-14q-2 0 -2 2v429q0 2 2 2zM740 1415h14q2 -1 2 -2v-429q0 -2 -2 -2h-14q-1 0 -1 2v429q0 2 1 2zM775 1415h381q63 -4 145 -44q45 -18 112 -78q61 -62 80 -102q61 -100 61 -243v-474q0 -143 -64 -248
q63 -18 65 -20v-16l-1 -1l-74 22l-8 -13q77 -23 83 -26v-15q0 -2 -2 -2l-92 28l-10 -12v-1l103 -31l1 -2v-15q0 -1 -2 -1l-115 35q0 -1 -12 -13q129 -37 129 -39v-16l-1 -2q-135 42 -142 43q0 -1 -12 -12q151 -44 155 -47v-15q0 -2 -2 -2q-168 51 -169 51q-14 -10 -15 -12
l185 -55l1 -2v-15q0 -1 -2 -1l-202 61q-15 -10 -17 -12q3 0 221 -66v-16l-1 -2q-17 6 -241 73q-12 -7 -19 -9q4 -3 261 -80v-16q0 -1 -2 -1l-284 86q-13 -6 -23 -9q0 -2 308 -94l1 -1v-15q0 -2 -2 -2l-338 103q-12 -4 -30 -7v-1l370 -111v-16l-1 -2l-411 124l-1 -1
q-25 -1 -41 -1h-2v-1q451 -135 456 -137v-16q0 -2 -2 -2q-485 147 -518 156h-49v-1q563 -169 569 -172v-15q0 -2 -2 -2q-586 178 -630 190h-50v-1q45 -13 682 -205v-17l-1 -1q-690 208 -745 224h-34q-2 0 -2 1v434q0 2 2 2h108q112 0 165 102q14 35 14 64v207q0 63 -50 117
q-51 51 -129 51h-108q-2 0 -2 2v429q0 2 2 2zM380 1413l1 -2v-1400l-1 -1q-16 2 -16 4v1394q0 3 16 5zM346 1406l1 -2v-1385q0 -2 -2 -2q-15 3 -15 6v1377q0 3 16 6zM313 1396v-1369q-17 4 -17 6v1356q0 3 17 7zM278 1384l1 -2v-1341l-1 -2q-13 5 -16 8v1328q0 2 16 9z
M244 1367l1 -1v-1309l-1 -2q-15 7 -17 10v1292q2 3 17 10zM211 1348v-1273h-1q-15 9 -16 11v1250q0 2 17 12zM177 1323v-1224h-1q-2 0 -17 14v1197q15 13 18 13zM141 1294h1v-1165h-1q-1 0 -16 16v1132q0 1 16 17zM107 1258h2v-1094h-2q-15 20 -15 21v1053zM73 1213h1v-1003
h-1q-14 22 -16 29v945q2 7 16 29zM38 1150h2v-877h-2q-13 32 -15 43v790q2 11 15 44zM5 1037h2v-651h-2v1q-5 36 -5 62v525q0 24 5 63zM466 566h2q0 -5 15 -40v-521q0 -1 -1 -1h-14q-2 0 -2 1v561zM501 502l17 -16v-481q0 -1 -2 -1h-14q-1 0 -1 1v497zM534 472h1
q14 -9 16 -11v-456q0 -1 -1 -1h-14q-2 0 -2 1v467zM568 453h1q17 -5 17 -7v-441q0 -1 -2 -1h-14q-2 0 -2 1v448zM603 443q17 -1 17 -3v-435q0 -1 -2 -1h-14q-1 0 -1 1v438zM638 441h14q1 -1 1 -2v-434q0 -1 -1 -1h-14q-2 0 -2 1v434q1 2 2 2zM672 441h14q2 -1 2 -2v-434
q0 -1 -2 -1h-14q-1 0 -1 1v434q0 2 1 2zM707 441h14q1 -1 1 -2v-434q0 -1 -1 -1h-14q-2 0 -2 1v434q0 2 2 2zM740 441h14q2 -1 2 -2v-434q0 -1 -2 -1h-14q-1 0 -1 1v434q0 2 1 2z" />
    <glyph glyph-name="R" unicode="R" horiz-adv-x="1346" 
d="M2 1418h14q1 0 1 -2v-1415q0 -1 -1 -1h-14q-2 0 -2 1v1415q0 2 2 2zM35 1418h14q2 0 2 -2v-1415q0 -1 -2 -1h-14q-1 0 -1 1v1415q0 2 1 2zM70 1418h14q1 0 1 -2v-1415q0 -1 -1 -1h-14q-2 0 -2 1v1415q0 2 2 2zM104 1418h14q2 0 2 -2v-1415q0 -1 -2 -1h-14q-2 0 -2 1v1415
q1 2 2 2zM138 1418h13q2 0 2 -2v-1415q0 -1 -2 -1h-13q-2 0 -2 1v1415q0 2 2 2zM172 1418h14q1 0 1 -2v-1415q0 -1 -1 -1h-14q-2 0 -2 1v1415q0 2 2 2zM206 1418h14q2 0 2 -2v-1415q0 -1 -2 -1h-14q-1 0 -1 1v1415q0 2 1 2zM240 1418h14q1 0 1 -2v-1415q0 -1 -1 -1h-14
q-2 0 -2 1v1415q0 2 2 2zM274 1418h14q2 0 2 -2v-1415q0 -1 -2 -1h-14q-1 0 -1 1v1415q0 2 1 2zM309 1418h13q2 0 2 -2v-1415q0 -1 -2 -1h-13q-2 0 -2 1v1415q0 2 2 2zM342 1418h14q2 0 2 -2v-1415q0 -1 -2 -1h-14q-2 0 -2 1v1415q1 2 2 2zM376 1418h14q2 0 2 -2v-1415
q0 -1 -2 -1h-14q-1 0 -1 1v1415q0 2 1 2zM411 1418h14q1 0 1 -2v-1415q0 -1 -1 -1h-14q-2 0 -2 1v1415q0 2 2 2zM444 1418h14q2 0 2 -2v-1415q0 -1 -2 -1h-14q-1 0 -1 1v1415q0 2 1 2zM479 1418h14q1 0 1 -2v-1415q0 -1 -1 -1h-14q-2 0 -2 1v1415q0 2 2 2zM513 1418h14
q2 0 2 -2v-1415q0 -1 -2 -1h-14q-2 0 -2 1v1415q1 2 2 2zM547 1418h13q2 0 2 -2v-1415q0 -1 -2 -1h-13q-2 0 -2 1v1415q0 2 2 2zM581 1418h14q1 0 1 -2v-1415q0 -1 -1 -1h-14q-2 0 -2 1v1415q0 2 2 2zM615 1418h14q2 0 2 -2v-1415q0 -1 -2 -1h-14q-1 0 -1 1v1415q0 2 1 2z
M649 1418h14q1 0 1 -2v-1415q0 -1 -1 -1h-14q-2 0 -2 1v1415q0 2 2 2zM683 1418h14q2 0 2 -2v-1415q0 -1 -2 -1h-14q-2 0 -2 1v1415q1 2 2 2zM717 1418h14q2 0 2 -2v-1415q0 -1 -2 -1h-14q-1 0 -1 1v1415q0 2 1 2zM751 1418h14q2 0 2 -2v-1415q0 -1 -2 -1h-14q-2 0 -2 1
v1415q1 2 2 2zM785 1418h14q2 0 2 -2v-1415q0 -1 -2 -1h-14q-1 0 -1 1v1415q0 2 1 2zM820 1418h14q1 0 1 -2v-1415q0 -1 -1 -1h-14q-2 0 -2 1v1415q0 2 2 2zM853 1418h22q141 0 272 -93q26 -21 66 -62q118 -137 118 -310q0 -183 -130 -323q-60 -57 -94 -74q-41 -26 -90 -43
q-77 -24 -133 -24v-1q46 -13 373 -112l1 -2v-14q0 -2 -2 -2l-387 117v-16q19 -5 389 -117v-17l-1 -1q-364 110 -388 117v-15q0 -2 44 -14l345 -105v-17q-33 9 -389 117v-16q1 0 388 -117l1 -2v-15q0 -1 -2 -1l-387 117v-17q19 -5 389 -117v-16l-1 -2q-364 111 -388 117v-14
q0 -2 44 -14l345 -105v-17q-33 9 -389 117v-17q1 0 388 -117l1 -1v-15q0 -2 -2 -2l-387 117v-16q19 -5 389 -117v-16l-1 -2q-364 111 -388 117v-15q0 -1 44 -14l345 -104v-17q-33 9 -389 117v-17q1 0 388 -117l1 -1v-15q0 -2 -2 -2l-387 117v-16q19 -5 389 -117v-16l-1 -2
q-364 110 -388 117v-15q0 -2 99 -30q5 -3 289 -88v-1h-51q-7 0 -261 77q-2 0 -76 23v-99q0 -1 -2 -1h-14q-1 0 -1 1v1415q0 2 1 2z" />
    <glyph glyph-name="S" unicode="S" horiz-adv-x="1030" 
d="M659 1411h15q1 -1 1 -2v-735q2 0 16 -4v739q0 2 1 2h15q2 -1 2 -2v-746q13 -4 16 -6v752q0 2 2 2h14q2 -1 2 -2v-758q2 0 16 -5v763q1 2 2 2h15q1 -1 1 -2v-980q-4 -53 -17 -99q-45 -145 -153 -231q-127 -99 -285 -99h-321q-1 0 -1 1v435q0 1 1 1h105q107 0 160 95
q16 33 16 48v521q4 15 16 45h2v-341q15 -5 16 -5v379q0 5 17 30h1v-414q0 -2 17 -7v443q0 5 17 23l1 -1v-471q13 -5 15 -5v496q15 17 18 17v-519q0 -2 16 -7v541q2 3 18 15v-562q11 -3 17 -6v580q0 1 16 11q2 0 2 -1v-596q2 0 15 -5v612q1 1 17 10q1 0 1 -2v-627
q15 -5 17 -5v641q0 3 17 9l1 -1v-654q0 -2 16 -7v668q1 2 17 8l1 -2v-681q13 -4 16 -4v690q0 2 17 6l1 -2v-700q0 -2 16 -7v711q0 2 17 5l1 -2v-720l16 -6v728q0 2 2 2zM795 1411h14q2 -1 2 -2v-505l-17 -28h-1v533q0 2 2 2zM829 1411h15q1 -1 1 -2v-469l-17 -15l-1 1v483
q1 2 2 2zM863 1411h15q2 -1 2 -2v-447q0 -1 -17 -10l-1 1v456q0 2 1 2zM897 1411h15q1 -1 1 -2v-435q0 -2 -18 -6v441q0 2 2 2zM931 1411h15q2 -1 2 -2v-430q0 -3 -18 -4v434q0 2 1 2zM966 1411h14q2 -1 2 -2v-430q0 -2 -2 -2h-14q-2 0 -2 2v430q0 2 2 2zM999 1411h15
q1 -1 1 -2v-430q0 -2 -1 -2h-15q-2 0 -2 2v430q1 2 2 2z" />
    <glyph glyph-name="T" unicode="T" horiz-adv-x="1328" 
d="M1313 1417v-1416q0 -1 -2 -1h-14q-2 0 -2 1v1069h-17v-1069q0 -1 -1 -1h-14q-2 0 -2 1v1069h-17v-1069q0 -1 -2 -1h-14q-1 0 -1 1v1069h-17v-1069q0 -1 -1 -1h-14q-2 0 -2 1v1069h-17v-1069q0 -1 -2 -1h-13q-2 0 -2 1v1069h-17v-1069q0 -1 -2 -1h-14q-1 0 -1 1v1069h-17
v-1069q0 -1 -1 -1h-14q-2 0 -2 1v1069h-17v-1069q0 -1 -2 -1h-14q-1 0 -1 1v1069h-18v-1069q0 -1 -1 -1h-14q-2 0 -2 1v1069h-16v-1069q0 -1 -2 -1h-14q-1 0 -1 1v1069h-17v-1069q0 -1 -2 -1h-14q-2 0 -2 1v1069h-17v-1069q0 -1 -1 -1h-14q-2 0 -2 1v1069h-16v-1069
q0 -1 -2 -1h-14q-1 0 -1 1v1069h-18v-1070q-426 0 -426 1v1069h-17v-1069q0 -1 -2 -1h-14q-1 0 -1 1v1069h-16v-1069q0 -1 -2 -1h-14q-2 0 -2 1v1069h-17v-1069q0 -1 -1 -1h-14q-2 0 -2 1v1069h-17v-1069q0 -1 -2 -1h-14q-1 0 -1 1v1069h-17v-1069q0 -1 -1 -1h-14q-2 0 -2 1
v1069h-17v-1069q0 -1 -2 -1h-14q-1 0 -1 1v1069h-17v-1069q0 -1 -2 -1h-14q-2 0 -2 1v1069h-16v-1069q0 -1 -2 -1h-14q-1 0 -1 1v1069h-17v-1069q0 -1 -2 -1h-14q-1 0 -1 1v1069h-18v-1069q0 -1 -1 -1h-14q-2 0 -2 1v1069h-16v-1069q0 -1 -2 -1h-14q-1 0 -1 1v1069h-18
v-1069q0 -1 -1 -1h-14q-2 0 -2 1v1069h-17v-1069q0 -1 -2 -1h-13q-2 0 -2 1v1416h1313z" />
    <glyph glyph-name="U" unicode="U" horiz-adv-x="1546" 
d="M2 1411h14q2 -1 2 -2v-1141h-2q-16 38 -16 44v1097q0 2 2 2zM36 1411h14q2 -1 2 -2v-1202h-1q-15 19 -17 27v1175q1 2 2 2zM69 1411h15q2 -1 2 -2v-1248h-1q-4 3 -17 20v1228q0 2 1 2zM104 1411h15q1 -1 1 -2v-1283q0 -2 -1 -2l-17 17v1268q0 2 2 2zM138 1411h14
q2 -1 2 -2v-1314h-1q-2 0 -16 13v1301q0 2 1 2zM172 1411h14q2 -1 2 -2v-1337l-1 -1q-16 9 -17 12v1326q0 2 2 2zM206 1411h15q1 -1 1 -2v-1356q0 -2 -1 -2q-14 7 -17 10v1348q1 2 2 2zM240 1411h14q2 -1 2 -2v-1372l-1 -2q-14 6 -16 8v1366q0 2 1 2zM274 1411h15q1 -1 1 -2
v-1386q-18 4 -18 6v1380q1 2 2 2zM308 1411h15q2 -1 2 -2v-1395q0 -1 -2 -1q-16 3 -16 6v1390q0 2 1 2zM343 1411h14q1 -1 1 -2v-1402l-1 -2q-16 3 -16 5v1399q0 2 2 2zM376 1411h15q2 -1 2 -2v-1406l-1 -2q-17 1 -17 4v1404q0 2 1 2zM411 1411h14q2 -1 2 -2v-1408
q0 -1 -2 -1h-14q-1 0 -2 2v1407q0 2 2 2zM1040 1411h489q2 -1 2 -2v-939q0 -176 -96 -294q-5 -12 -54 -59q-134 -117 -305 -117h-324q-2 0 -2 1v435q0 1 2 1h108q106 0 160 94q19 39 19 74v804q0 2 1 2zM443 566h2q0 -7 15 -41v-524q0 -1 -1 -1h-14q-2 0 -2 1v565zM478 501
q3 -5 17 -18v-482q0 -1 -2 -1h-15q-1 0 -1 1v498q0 2 1 2zM513 469l16 -11v-457q0 -1 -1 -1h-15q-2 0 -2 1v467q0 1 2 1zM546 450q16 -5 17 -7v-442q0 -1 -2 -1h-14q-1 0 -1 1v449zM580 441q17 -3 17 -5v-435q0 -1 -2 -1h-14q-2 0 -2 1v438zM615 437h15q1 0 1 -1v-435
q0 -1 -1 -1h-15q-2 0 -2 1v435q1 1 2 1zM649 437h14q2 0 2 -1v-435q0 -1 -2 -1h-14q-1 0 -1 1v435q0 1 1 1zM683 437h15q1 0 1 -1v-435q0 -1 -1 -1h-15q-2 0 -2 1v435q0 1 2 1zM717 437h15q2 0 2 -1v-435q0 -1 -2 -1h-15q-1 0 -1 1v435q0 1 1 1z" />
    <glyph glyph-name="V" unicode="V" horiz-adv-x="1886" 
d="M0 1416h869l66 -189q2 0 33.5 93.5t33.5 95.5h17q-2 -10 -74 -216q7 -21 7 -23q2 0 84 239h16q2 0 2 -1q-80 -229 -92 -265q7 -20 7 -22h1q1 4 100 288h16l2 -1q-102 -294 -109 -315q8 -20 8 -22q3 9 116 337l2 1h16q0 -2 -125 -364q7 -23 9 -23l133 387h16q2 0 2 -1
q-140 -403 -142 -413l6 -21h2l150 435h17l1 -1l-160 -462q4 -10 7 -22q4 7 169 484l1 1h17q-3 -11 -177 -512q7 -20 7 -23h1l185 535h16q2 0 2 -1l-194 -561q8 -20 8 -22l202 584h17l1 -1q-207 -598 -211 -610l8 -22h1l217 632l3 1h16q-3 -9 -224 -650q-3 -8 -3 -11
q6 -21 8 -21l234 681l2 1h16q1 0 1 -1q-243 -703 -245 -708q2 -3 7 -22h2l253 731h16l2 -1q-259 -747 -263 -757q7 -21 7 -22h2l269 779l2 1h16q-2 -11 -279 -808q8 -20 8 -22l288 830h16q2 0 2 -1q-290 -836 -297 -857q4 -7 8 -22h1q10 32 304 880h16l2 -1
q-313 -904 -313 -906q0 -1 7 -22h1q5 16 162 471t159 458h17q-2 -9 -164.5 -477.5t-164.5 -478.5q6 -21 8 -21l338 977h16q2 0 2 -1l-347 -1005q7 -19 7 -20h1l355 1026h16l2 -1l-365 -1053q8 -19 8 -22q1 0 373 1076h18q-3 -9 -381 -1103q0 -1 7 -22q2 0 390 1125h16
q2 0 2 -1l-398 -1152q5 -15 7 -22h1l406 1175h17l1 -1l-415 -1202q3 -8 7 -21h1l425 1224h16q-432 -1249 -432 -1251q7 -22 8 -22l440 1273h17q1 0 1 -1q-449 -1296 -449 -1300q6 -20 8 -21q0 2 458 1322h16l2 -1l-467 -1348q5 -15 7 -22q3 3 77 221q1 1 398 1149l2 1h16
q0 -2 -483 -1399q3 -8 5 -16l-1 -1h-867zM1363 0l490 1416h17q1 0 1 -1l-490 -1415h-18z" />
    <glyph glyph-name="W" unicode="W" horiz-adv-x="2856" 
d="M0 1418h868l55 -157h1q5 17 54 157h885q54 -153 55 -154l53 154h18l-62 -181q2 -3 7 -22q3 3 71 202l2 1h14q2 0 2 -2l-79 -228q7 -20 7 -22q2 1 88 252h17l1 -1l-96 -279q7 -20 7 -22h1q102 297 105 302h17q0 -2 -113 -330q7 -19 7 -21h1q7 21 121 350l2 1h15q1 0 1 -2
q-126 -362 -130 -377l8 -21q1 4 139 400h16l2 -1q-141 -405 -148 -427q7 -21 9 -21q153 446 155 449h17l-164 -476q4 -10 7 -22h2q169 493 172 498h16q1 0 1 -2l-181 -524q2 -3 7 -22h1l190 548h16l2 -1l-199 -574q7 -21 7 -22h1q205 593 207 597h17q0 -2 -215 -625
q8 -20 8 -22q4 11 113.5 329t111.5 318h15q2 0 2 -2q-231 -665 -233 -672l8 -22h1l240 696h16l2 -1q-246 -710 -249 -722q6 -20 6 -21h2l254 737q3 7 4 7h17q-261 -755 -266 -773l6 -20h2l274 792l2 1h14q2 0 2 -2l-284 -819q8 -20 8 -22q1 0 292 843h17l1 -1l-301 -870
q8 -19 8 -22h1q6 20 156 454t153 439h17l-317 -920q0 -1 7 -22h1q323 936 326 942h16q1 0 1 -2l-334 -968l7 -21h1q0 1 343 991h16l2 -1q-351 -1012 -352 -1018q7 -21 8 -21l360 1040h17q-364 -1055 -369 -1067q8 -19 8 -23q2 2 377 1089l2 1h15q1 0 1 -2l-386 -1114
q8 -21 8 -23q4 7 395 1139h16l2 -1l-403 -1165q5 -16 7 -22h1q409 1184 411 1188h17q-417 -1209 -419 -1216q3 -8 7 -22h1q6 19 428 1237l1 1h15q2 0 2 -2l-437 -1263q7 -21 8 -22l445 1287h16l2 -1l-454 -1313q6 -20 8 -22q460 1331 462 1336h18q-469 -1358 -472 -1363
q8 -20 8 -22h1l478 1383l3 2h14q2 0 2 -2l-488 -1411q1 -3 1 -4l-1 -1h-867l-66 183q-59 -176 -61 -176h-2q2 -5 2 -7h-869zM994 1414l-61 -180q7 -21 8 -21q60 175 62 179q-3 7 -7 22h-2zM1011 1365l-61 -180q6 -21 8 -21l61 179q-6 22 -8 22zM1028 1316q-60 -178 -62 -179
q4 -10 8 -23h1l62 180l-8 22h-1zM1046 1267q-6 -19 -63 -180q8 -19 8 -22q1 0 63 180q-2 3 -8 22zM1063 1218q-4 -13 -62 -180q7 -21 7 -22h1q60 175 62 179q-7 20 -7 23h-1zM1018 988q7 -20 7 -22h1q2 9 62 180q-6 15 -7 22q-2 0 -63 -180zM1096 1118l-61 -179l7 -22h1
l62 179v1l-7 21h-2zM1114 1070l-62 -180q7 -23 8 -23l62 180v2q-7 20 -8 21zM1131 1020q-62 -178 -62 -180l7 -21h2l61 180q-4 11 -7 21h-1zM1148 971q-2 -7 -62 -180q7 -19 7 -22q2 1 63 180q-7 21 -7 22h-1zM1103 742q7 -19 7 -23h1q0 2 62 180q-1 2 -7 22q-2 0 -63 -179z
M1120 692q1 -1 7 -22h1l62 180q-3 8 -7 22q-1 0 -63 -180zM1199 823l-62 -180l8 -22q56 162 62 181q-7 19 -7 21h-1zM1216 773l-62 -180q7 -21 9 -21l61 180q-6 20 -8 21zM1233 725l-62 -180q7 -19 7 -22h2l61 180q-1 1 -7 22h-1zM1250 676q-4 -15 -62 -180q7 -20 7 -22
q3 2 63 179q-7 21 -7 23h-1zM1267 626l-62 -180q6 -15 7 -22h1l62 180q-5 15 -7 22h-1zM1222 397q8 -21 8 -23q5 15 63 180q-8 21 -8 22q-3 -4 -63 -179zM1301 527l-62 -180q1 -1 8 -22h1l62 180q-8 19 -8 22h-1zM1318 478l-61 -180q6 -20 8 -21l61 180q-6 21 -8 21z
M1335 429l-61 -181q6 -18 6 -20h2l61 180l-7 21h-1zM1352 380q-7 -23 -62 -180q3 -7 8 -22q1 0 63 180q-1 1 -8 22h-1zM1370 331q0 -1 -63 -180q1 -1 8 -22q1 0 63 180q-8 19 -8 22zM1325 101q7 -20 7 -22h1l62 180q-7 20 -7 22q-2 -1 -63 -180zM1403 231l-61 -180
q4 -10 7 -21h1q61 179 61 181l-6 20h-2z" />
    <glyph glyph-name="X" unicode="X" horiz-adv-x="1378" 
d="M0 1418h475l-237 -686h-1zM511 1416l-242 -698h15q2 0 244 698h17l-241 -698h15l242 698h19l-243 -698h17l242 698h17l-241 -698h14q2 0 244 698h18l-242 -698h15l243 698h18l-243 -698h17l242 698h17l-241 -698h15q1 0 243 698h18l-242 -698h16l242 698h18l-242 -698h16
l242 698h18l-242 -698h15q1 0 243 698h18l-242 -698h16l242 698h18l-242 -698h16l242 698h18l-242 -698h15q2 0 244 698h17l-241 -698h15l242 698h19l-243 -698h17l242 698h17l-241 -698h14q2 0 244 698h18l-242 -698h15l243 698h18l-243 -698h17l242 698h17l-241 -698h14
q2 0 244 698h18l-242 -698h16l242 698h18l-242 -698h16l242 698h18l-242 -698h15q1 0 243 698h18l-242 -698h16l242 698h18l-242 -698h16l242 698h18l-242 -698h15q2 0 244 698h17l-243 -701l241 -714l-1 -1h-880l4 17q-6 16 -6 20h-2q-11 -37 -14 -37h-14q-2 0 -2 1l22 63
q-6 15 -7 22q-2 0 -16.5 -43t-15.5 -43h-16l-1 1l39 113q-7 21 -7 23h-1q-6 -20 -48 -137h-17l56 164v1q-7 20 -8 20q0 -2 -64 -184l-2 -1h-15q-1 0 -1 1q67 193 73 213q-7 19 -7 20h-2q-9 -30 -81 -234h-16l-2 1l91 261q-1 1 -7 22q-2 0 -100 -284h-17l107 313q-2 3 -7 21
h-1q-7 -20 -115 -333l-2 -1h-15q-1 0 -1 1q124 359 124 361q-7 21 -8 21q-1 -4 -133 -383h-16l-2 1q141 407 143 409q-1 2 -8 22h-1l-150 -432h-17l158 460q-7 21 -7 23h-1l-168 -483h-15q-2 0 -2 1q165 475 176 510q-4 10 -7 21h-1q0 -2 -184 -532h-16l-2 1
q187 540 193 559q-6 21 -8 21q-200 -579 -202 -581h-17q208 603 211 608q-8 21 -8 23q-1 0 -220 -631h-15q-2 0 -2 1l227 658q-4 10 -7 22h-1q-6 -21 -235 -681h-17l-1 1q232 670 244 708q-2 6 -2 8l1 1h5l242 698h18z" />
    <glyph glyph-name="Y" unicode="Y" horiz-adv-x="1379" 
d="M1 1418h474v-1l-236 -685h-2l-237 685zM511 1417l-245 -711l-2 -1h-17q0 2 245 712h19zM546 1417q-244 -706 -247 -712h-17l-2 1l246 711h20zM579 1417q-228 -664 -245 -711l-2 -1h-16q-1 0 -1 1l246 711h18zM613 1417l-245 -711l-2 -1h-17q0 2 245 712h19zM648 1417
q-244 -706 -247 -712h-17l-1 1l246 711h19zM681 1417q-228 -664 -245 -711l-2 -1h-15q-2 0 -2 1l246 711h18zM716 1417l-246 -711l-1 -1h-18q0 2 246 712h19zM750 1417q-244 -706 -246 -712h-18l-1 1l246 711h19zM784 1417q-229 -664 -246 -711l-2 -1h-15q-2 0 -2 1l246 711
h19zM818 1417l-246 -711l-1 -1h-17q0 2 245 712h19zM852 1417q-244 -706 -246 -712h-17l-2 1l246 711h19zM886 1417q-229 -664 -246 -711l-1 -1h-16q-2 0 -2 1l246 711h19zM920 1417l-245 -711l-2 -1h-17q0 2 245 712h19zM955 1417q-244 -706 -247 -712h-17l-2 1l246 711h20
zM988 1417q-228 -664 -246 -711l-1 -1h-16q-1 0 -1 1l246 711h18zM1022 1417l-245 -711l-2 -1h-17q0 2 245 712h19zM1057 1417q-244 -706 -247 -712h-17l-1 1l246 711h19zM1090 1417q-228 -664 -245 -711l-2 -1h-15q-2 0 -2 1l246 711h18zM1125 1417l-246 -711l-2 -1h-17
q0 2 245 712h20zM1159 1417q-244 -706 -246 -712h-18l-1 1l246 711h19zM1193 1417q-229 -664 -246 -711l-2 -1h-15q-2 0 -2 1l246 711h19zM1227 1417l-246 -711l-1 -1h-17q0 2 245 712h19zM1261 1417q-244 -706 -246 -712h-17l-2 1l246 711h19zM1295 1417
q-229 -664 -246 -711l-1 -1h-16q-2 0 -2 1l246 711h19zM1329 1417l-245 -711l-2 -1h-17q0 2 245 712h19zM1364 1417q-244 -706 -247 -712h-17l-2 1l246 711h20zM245 704h869q1 0 1 -2v-701q0 -1 -1 -1h-869q-1 0 -1 1v701q0 2 1 2z" />
    <glyph glyph-name="Z" unicode="Z" horiz-adv-x="1377" 
d="M5 1416h1353q1 0 1 -1q-246 -711 -249 -723h250q2 0 2 -1v-14q0 -2 -2 -2h-257l-6 -18h263q2 0 2 -1v-14q0 -2 -2 -2h-269q0 -1 -6 -17h275q2 0 2 -2v-14q0 -1 -2 -1h-280q-1 0 -7 -18h287q2 0 2 -2v-14q0 -1 -2 -1h-292q-2 0 -7 -18h299q2 0 2 -1v-14q0 -2 -2 -2h-305
l-6 -18h311q2 0 2 -1v-14q0 -2 -2 -2h-317q0 -3 -6 -17h323q2 0 2 -2v-14q0 -1 -2 -1h-328q-2 0 -7 -18h335q2 0 2 -2v-14q0 -1 -2 -1h-341l-6 -18h347q2 0 2 -1v-14q0 -2 -2 -2h-353q0 -2 -6 -18h359q2 0 2 -1v-14q0 -2 -2 -2h-364q-2 0 -7 -18h371q2 0 2 -2v-14
q0 -1 -2 -1h-376q-2 0 -7 -17h383q2 -1 2 -2v-14q0 -1 -2 -1h-389l-6 -18h395q2 -1 2 -2v-14q0 -2 -2 -2h-402q0 -2 -5 -17h407q2 0 2 -1v-14q0 -2 -2 -2h-412q-1 0 -8 -18h420q2 0 2 -2v-14q0 -1 -2 -1h-425q-6 -16 -6 -17h431q2 -1 2 -2v-14q0 -2 -2 -2h-438q0 -1 -5 -18
h443q2 0 2 -1v-14q0 -2 -2 -2h-450l-5 -17h455q2 0 2 -2v-13q0 -2 -2 -2h-461q-6 -16 -6 -18h467q2 0 2 -2v-14q0 -1 -2 -1h-474l-5 -17h479q2 -1 2 -2v-14q0 -2 -2 -2h-484q-2 -1 -7 -14h-868q-1 0 -1 1l258 748h-253q-2 0 -2 2v13q0 2 2 2h260q0 3 6 17h-266q-2 0 -2 2v14
q0 1 2 1h271q6 17 6 18h-277q-2 0 -2 2v14q0 2 2 2h284l5 17h-289q-2 0 -2 1v14q0 2 2 2h296q0 2 6 18h-302q-2 0 -2 2v13q0 2 2 2h306q3 0 7 17h-313q-2 0 -2 2v14q0 1 2 1h320l5 18h-325q-2 0 -2 2v14q0 2 2 2h332q0 1 6 17h-338q-2 0 -2 1v14q0 2 2 2h342q2 0 8 18h-350
q-2 0 -2 2v14q0 1 2 1h355q1 0 6 17h-361q-2 0 -2 2v14q0 1 2 1h368q0 2 6 18h-374q-2 0 -2 2v14q0 2 2 2h380q0 3 6 17h-386q-2 0 -2 1v14q0 2 2 2h392q5 16 5 18h-397q-2 0 -2 2v14q0 1 2 1h404q0 1 6 17h-410q-2 0 -2 2v14q0 2 2 2h416q0 2 6 18h-422q-2 0 -2 1v14
q0 2 2 2h427q2 0 6 17h-433q-2 0 -2 2v13q0 2 2 2h440l6 18h-446q-2 0 -2 2v14q0 1 2 1h452q0 2 6 17h-458q-2 0 -2 2v14q0 2 2 2h463q1 0 7 18h-470q-2 0 -2 1v14q0 2 2 2h475q2 0 6 17h-481q-2 0 -2 2v4q0 1 2 1z" />
    <glyph glyph-name="bracketleft" unicode="[" horiz-adv-x="744" 
d="M2 1861h14q1 0 1 -2v-1921q0 -1 -1 -1h-14q-2 0 -2 1v1921q0 2 2 2zM35 1861h14q2 0 2 -2v-1921q0 -1 -2 -1h-14q-1 0 -1 1v1921q0 2 1 2zM70 1861h13q2 0 2 -2v-1921q0 -1 -2 -1h-13q-2 0 -2 1v1921q0 2 2 2zM104 1861h14q1 0 1 -2v-1921q0 -1 -1 -1h-14q-2 0 -2 1v1921
q0 2 2 2zM137 1861h14q2 0 2 -2v-1921q0 -1 -2 -1h-14q-1 0 -1 1v1921q0 2 1 2zM172 1861h14q1 0 1 -2v-1921q0 -1 -1 -1h-14q-2 0 -2 1v1921q0 2 2 2zM206 1861h14q2 0 2 -2v-1921q0 -1 -2 -1h-14q-2 0 -2 1v1921q1 2 2 2zM240 1861h14q1 0 1 -2v-1921q0 -1 -1 -1h-14
q-2 0 -2 1v1921q0 2 2 2zM274 1861h14q2 0 2 -2v-1921q0 -1 -2 -1h-14q-2 0 -2 1v1921q1 2 2 2zM308 1861h14q2 0 2 -2v-1921q0 -1 -2 -1h-14q-1 0 -1 1v1921q0 2 1 2zM342 1861h14q1 0 1 -2v-1921q0 -1 -1 -1h-14q-2 0 -2 1v1921q0 2 2 2zM376 1861h14q2 0 2 -2v-1921
q0 -1 -2 -1h-14q-1 0 -1 1v1921q0 2 1 2zM411 1861h13q2 0 2 -2v-1921q0 -1 -2 -1h-13q-2 0 -2 1v1921q0 2 2 2zM444 1861h14q2 0 2 -2v-1921q0 -1 -2 -1h-14q-2 0 -2 1v1921q1 2 2 2zM478 1861h14q2 0 2 -2v-1921q0 -1 -2 -1h-14q-1 0 -1 1v1921q0 2 1 2zM513 1861h14
q1 0 1 -2v-1921q0 -1 -1 -1h-14q-2 0 -2 1v1921q0 2 2 2zM729 -63h-183q-1 0 -1 1v441q0 2 1 2h111q40 0 72 13v-457zM729 1415q-33 13 -72 13h-111q-1 0 -1 2v429q0 2 1 2h183v-446z" />
    <glyph glyph-name="backslash" unicode="\" horiz-adv-x="901" 
d="M400 1416l486 -1415q0 -1 -1 -1h-395l-490 1415q0 1 1 1h399z" />
    <glyph glyph-name="bracketright" unicode="]" horiz-adv-x="744" 
d="M729 1867v-1921q0 -1 -2 -1h-14q-1 0 -1 1v1921q0 2 1 2h14q2 0 2 -2zM695 1867v-1921q0 -1 -1 -1h-14q-2 0 -2 1v1921q0 2 2 2h14q1 0 1 -2zM661 1867v-1921q0 -1 -2 -1h-13q-2 0 -2 1v1921q0 2 2 2h13q2 0 2 -2zM627 1867v-1921q0 -1 -2 -1h-14q-1 0 -1 1v1921q0 2 1 2
h14q2 0 2 -2zM593 1867v-1921q0 -1 -1 -1h-14q-2 0 -2 1v1921q0 2 2 2h14q1 0 1 -2zM559 1867v-1921q0 -1 -2 -1h-14q-1 0 -1 1v1921q0 2 1 2h14q2 0 2 -2zM525 1867v-1921q0 -1 -2 -1h-14q-2 0 -2 1v1921q0 2 2 2h14q1 0 2 -2zM491 1867v-1921q0 -1 -2 -1h-14q-1 0 -1 1
v1921q0 2 1 2h14q2 0 2 -2zM457 1867v-1921q0 -1 -2 -1h-14q-2 0 -2 1v1921q0 2 2 2h14q1 0 2 -2zM422 1867v-1921q0 -1 -1 -1h-14q-2 0 -2 1v1921q0 2 2 2h14q1 0 1 -2zM389 1867v-1921q0 -1 -2 -1h-14q-1 0 -1 1v1921q0 2 1 2h14q2 0 2 -2zM354 1867v-1921q0 -1 -1 -1h-14
q-2 0 -2 1v1921q0 2 2 2h14q1 0 1 -2zM320 1867v-1921q0 -1 -2 -1h-13q-2 0 -2 1v1921q0 2 2 2h13q2 0 2 -2zM287 1867v-1921q0 -1 -2 -1h-14q-2 0 -2 1v1921q0 2 2 2h14q1 0 2 -2zM252 1867v-1921q0 -1 -1 -1h-14q-2 0 -2 1v1921q0 2 2 2h14q1 0 1 -2zM218 1867v-1921
q0 -1 -2 -1h-14q-1 0 -1 1v1921q0 2 1 2h14q2 0 2 -2zM0 402q32 -13 72 -13h111q1 0 1 -2v-441q0 -1 -1 -1h-183v457zM0 1869h183q1 0 1 -2v-429q0 -2 -1 -2h-111q-39 0 -72 -13v446z" />
    <glyph glyph-name="asciicircum" unicode="^" horiz-adv-x="526" 
d="M252 1815l259 -140v-227l-259 121l-252 -121v227z" />
    <glyph glyph-name="underscore" unicode="_" horiz-adv-x="1180" 
d="M72 349h1079l-35 -154v-1l49 -194h-1098q-2 0 -67 196q54 153 72 153z" />
    <glyph glyph-name="grave" unicode="`" horiz-adv-x="596" 
d="M249 1455q-2 0 -249 343h452l129 -343h-332z" />
    <glyph glyph-name="a" unicode="a" horiz-adv-x="1870" 
d="M1364 1418q491 -1416 491 -1417v-1h-868l-57 162h464l-79 214h-467l-2 1q4 10 4 14l-7 20h-1q-9 -28 -13 -35h-17q5 19 22 63q-4 10 -8 22q-1 0 -22 -61q-7 -24 -10 -24h-14q-2 0 -2 2l39 111q-3 3 -8 22h-1q-13 -40 -46 -135h-17l-1 1l55 161q-7 21 -7 22h-1
q-60 -175 -64 -184h-17q0 2 72 212q-7 20 -7 21h-1q-77 -226 -81 -233h-16q-1 0 -1 2q89 256 89 259q-7 21 -8 21q-3 -12 -98 -282h-16l-2 1q104 298 108 308q-2 3 -8 22h-1q-6 -20 -115 -331h-17l123 358q-7 21 -7 22q-3 -3 -132 -379l-2 -1h-15q-1 0 -1 2l140 406
q-7 20 -7 22h-1l-149 -430h-16l-2 1l158 456q-7 21 -7 23h-1l-166 -480h-17l174 507q-1 1 -7 22h-1q-182 -528 -184 -529h-15q-2 0 -2 2q188 540 192 554q-7 21 -8 21l-330 -953h-16q-2 0 -2 1q333 961 339 981q-7 19 -7 20h-2l-346 -1002h-17l-1 1l356 1029q-7 19 -7 22
q-2 0 -183 -526t-184 -526h-16q0 3 373 1079q-7 21 -7 22h-1q-381 -1101 -382 -1101h-16q-1 0 -1 1l390 1128q-6 15 -8 22l-399 -1151h-16l-2 1q400 1154 408 1178q-4 8 -8 21h-1q-3 -11 -414 -1199l-2 -1h-16q0 4 212 615t212 612q-7 22 -9 22q-5 -18 -432 -1249h-16
q-2 0 -2 1q438 1263 441 1276l-6 21h-2l-449 -1298h-16l-2 1l459 1325q-7 19 -7 22q-2 -1 -22 -61l-445 -1286l-2 -1h-16q0 2 475 1375q-8 20 -8 22q-20 -57 -484 -1397h-16q-2 0 -2 1l491 1417h873zM466 361h1q8 -21 8 -24q-4 -16 -116 -336l-1 -1h-17q0 2 125 361z
M485 314q0 -2 8 -24l-100 -290h-17l-1 1l109 313h1zM501 266h1q8 -20 9 -23l-84 -243h-16q-2 0 -2 1zM520 219l9 -25l-67 -193l-2 -1h-16q0 2 72 212q2 7 4 7zM536 171h1q2 0 4 -9h10q0 -3 -27 -81.5t-30 -80.5h-15l-2 1q55 156 59 170zM569 162h14q2 -1 2 -2l-56 -160h-16
q-2 0 -2 1l56 160zM602 162h16l1 -1l-55 -160l-2 -1h-16q53 158 56 162zM653 162q0 -3 -27 -81.5t-30 -80.5h-15l-2 1q53 153 57 161h17zM671 162h15q1 -1 1 -2l-55 -160h-17q-1 0 -1 1l55 160zM704 162h16l2 -1l-56 -160l-2 -1h-16q53 158 56 162zM755 162q0 -3 -27 -81.5
t-29 -80.5h-16l-1 1q53 153 56 161h17zM773 162h15q2 -1 2 -2l-56 -160h-16q-2 0 -2 1l56 160zM807 162h15l2 -1l-56 -160l-1 -1h-17q53 158 57 162zM857 162q0 -3 -27 -81.5t-29 -80.5h-16l-1 1q53 153 56 161h17zM875 162h15q2 -1 2 -2l-56 -160h-16q-2 0 -2 1l56 160z
M909 162h15l2 -1l-56 -160l-1 -1h-17q54 158 57 162z" />
    <glyph glyph-name="b" unicode="b" horiz-adv-x="1343" 
d="M2 1418h14q1 0 1 -2v-1415q0 -1 -1 -1h-14q-2 0 -2 1v1415q0 2 2 2zM36 1418h14q2 0 2 -2v-1415q0 -1 -2 -1h-14q-2 0 -2 1v1415q1 2 2 2zM70 1418h13q2 0 2 -2v-1415q0 -1 -2 -1h-13q-2 0 -2 1v1415q0 2 2 2zM104 1418h14q1 0 1 -2v-1415q0 -1 -1 -1h-14q-2 0 -2 1v1415
q0 2 2 2zM138 1418h14q2 0 2 -2v-1415q0 -1 -2 -1h-14q-1 0 -1 1v1415q0 2 1 2zM172 1418h14q1 0 1 -2v-1415q0 -1 -1 -1h-14q-2 0 -2 1v1415q0 2 2 2zM206 1418h14q2 0 2 -2v-1415q0 -1 -2 -1h-14q-2 0 -2 1v1415q1 2 2 2zM240 1418h14q2 0 2 -2v-1415q0 -1 -2 -1h-14
q-1 0 -1 1v1415q0 2 1 2zM274 1418h14q2 0 2 -2v-1415q0 -1 -2 -1h-14q-2 0 -2 1v1415q1 2 2 2zM308 1418h14q2 0 2 -2v-1415q0 -1 -2 -1h-14q-1 0 -1 1v1415q0 2 1 2zM343 1418h14q1 0 1 -2v-1415q0 -1 -1 -1h-14q-2 0 -2 1v1415q0 2 2 2zM376 1418h14q2 0 2 -2v-1415
q0 -1 -2 -1h-14q-1 0 -1 1v1415q0 2 1 2zM411 1418h13q2 0 2 -2v-1415q0 -1 -2 -1h-13q-2 0 -2 1v1415q0 2 2 2zM445 1418h14q1 0 1 -2v-1415q0 -1 -1 -1h-14q-2 0 -2 1v1415q0 2 2 2zM478 1418h14q2 0 2 -2v-1415q0 -1 -2 -1h-14q-1 0 -1 1v1415q0 2 1 2zM513 1418h14
q1 0 1 -2v-1415q0 -1 -1 -1h-14q-2 0 -2 1v1415q0 2 2 2zM547 1418h344q105 0 220 -66q136 -84 194 -242q23 -72 23 -147q0 -136 -76 -253q76 -112 76 -252q0 -185 -137 -326q-50 -45 -93 -70q-109 -58 -551 -62q-1 0 -1 1v1415q0 2 1 2z" />
    <glyph glyph-name="c" unicode="c" horiz-adv-x="1132" 
d="M261 1418l2 -1l-242 -700h14q2 0 121.5 347.5t123.5 353.5h16q0 -2 -120.5 -350t-120.5 -351h16l242 700l1 1h15q2 0 2 -2l-242 -699q9 1 16 1l242 700h16l2 -1l-242 -699h16q241 699 243 700h17l-242 -700h15q2 0 122.5 350t122.5 350h14q2 0 2 -2q-241 -696 -241 -698
h15l242 700h17l1 -1l-242 -699h16q242 699 243 700h17l-242 -700h15q2 0 122.5 350t122.5 350h14q2 0 2 -2q-241 -696 -241 -698h15l242 700h17l1 -1l-242 -699h17q241 699 243 700h16l-241 -700h14q2 0 122.5 350t122.5 350h15q1 0 1 -2q-241 -696 -241 -698h16l242 700h16
l2 -1l-242 -699h16q241 699 243 700h16l-241 -700h15q1 0 121.5 350t122.5 350h15q2 0 2 -2q-242 -696 -242 -698h16l242 700h16l2 -1q-241 -696 -241 -698h15q239 692 242 699h17l-241 -699h17l241 698l1 1h15q2 0 2 -2l-241 -697h14q2 0 243 699h17l1 -1
q-241 -696 -241 -698h15q239 692 243 699h17l-242 -699h17l241 698l2 1h14q2 0 2 -2l-241 -697h14q2 0 243 699h17l1 -1q-241 -696 -241 -698h16q238 692 242 699h17l-241 -699h16l241 698l2 1h15q1 0 1 -2l-241 -697h15q1 0 243 699h16l2 -1q-242 -696 -242 -698h16
q239 692 242 699h17l-243 -705q244 -702 246 -713h-868q-2 1 -31 87q-120 346 -218 629q3 0 245 702h16z" />
    <glyph glyph-name="d" unicode="d" horiz-adv-x="1343" 
d="M2 1418h14q1 0 1 -2v-1415q0 -1 -1 -1h-14q-2 0 -2 1v1415q0 2 2 2zM35 1418h14q2 0 2 -2v-1415q0 -1 -2 -1h-14q-1 0 -1 1v1415q0 2 1 2zM70 1418h13q2 0 2 -2v-1415q0 -1 -2 -1h-13q-2 0 -2 1v1415q0 2 2 2zM104 1418h14q1 0 1 -2v-1415q0 -1 -1 -1h-14q-2 0 -2 1v1415
q0 2 2 2zM137 1418h14q2 0 2 -2v-1415q0 -1 -2 -1h-14q-1 0 -1 1v1415q0 2 1 2zM172 1418h14q1 0 1 -2v-1415q0 -1 -1 -1h-14q-2 0 -2 1v1415q0 2 2 2zM206 1418h14q2 0 2 -2v-1415q0 -1 -2 -1h-14q-2 0 -2 1v1415q1 2 2 2zM240 1418h14q1 0 1 -2v-1415q0 -1 -1 -1h-14
q-2 0 -2 1v1415q0 2 2 2zM274 1418h14q2 0 2 -2v-1415q0 -1 -2 -1h-14q-2 0 -2 1v1415q1 2 2 2zM308 1418h14q2 0 2 -2v-1415q0 -1 -2 -1h-14q-1 0 -1 1v1415q0 2 1 2zM342 1418h14q1 0 1 -2v-1415q0 -1 -1 -1h-14q-2 0 -2 1v1415q0 2 2 2zM376 1418h14q2 0 2 -2v-1415
q0 -1 -2 -1h-14q-1 0 -1 1v1415q0 2 1 2zM411 1418h13q2 0 2 -2v-1415q0 -1 -2 -1h-13q-2 0 -2 1v1415q0 2 2 2zM444 1418h14q2 0 2 -2v-1415q0 -1 -2 -1h-14q-2 0 -2 1v1415q1 2 2 2zM478 1418h14q2 0 2 -2v-1415q0 -1 -2 -1h-14q-1 0 -1 1v1415q0 2 1 2zM513 1418h14
q1 0 1 -2v-1415q0 -1 -1 -1h-14q-2 0 -2 1v1415q0 2 2 2zM546 1418h345q99 0 211 -61q146 -89 201 -243q25 -70 25 -167v-473q0 -166 -86 -280q-9 -19 -59 -68q-69 -64 -153 -95q-79 -27 -151 -27h-10q0 -4 -2 -4h-14q-2 0 -2 4h-16q0 -4 -2 -4h-13q-2 0 -2 4h-17
q0 -4 -2 -4h-14q-1 0 -1 4h-18q0 -4 -1 -4h-14q-2 0 -2 4h-16q0 -4 -2 -4h-14q-1 0 -1 4h-18q0 -4 -1 -4h-14q-2 0 -2 4h-17q0 -4 -2 -4h-13q-2 0 -2 4h-16q0 -4 -2 -4h-14q-2 0 -2 4h-17q0 -4 -1 -4h-14q-2 0 -2 4h-17q0 -4 -2 -4h-14q-1 0 -1 1v441q0 2 1 2h111
q113 0 165 102q15 36 15 65v207q0 62 -51 117q-51 50 -129 50h-111q-1 0 -1 2v429q0 2 1 2z" />
    <glyph glyph-name="e" unicode="e" horiz-adv-x="1335" 
d="M2 1418h14q1 0 1 -2v-1415q0 -1 -1 -1h-14q-2 0 -2 1v1415q0 2 2 2zM36 1418h14q2 0 2 -2v-1415q0 -1 -2 -1h-14q-2 0 -2 1v1415q1 2 2 2zM70 1418h13q2 0 2 -2v-1415q0 -1 -2 -1h-13q-2 0 -2 1v1415q0 2 2 2zM104 1418h14q1 0 1 -2v-1415q0 -1 -1 -1h-14q-2 0 -2 1v1415
q0 2 2 2zM138 1418h14q2 0 2 -2v-1415q0 -1 -2 -1h-14q-1 0 -1 1v1415q0 2 1 2zM172 1418h14q1 0 1 -2v-1415q0 -1 -1 -1h-14q-2 0 -2 1v1415q0 2 2 2zM206 1418h14q2 0 2 -2v-1415q0 -1 -2 -1h-14q-2 0 -2 1v1415q1 2 2 2zM240 1418h14q2 0 2 -2v-1415q0 -1 -2 -1h-14
q-1 0 -1 1v1415q0 2 1 2zM274 1418h14q2 0 2 -2v-1415q0 -1 -2 -1h-14q-2 0 -2 1v1415q1 2 2 2zM308 1418h14q2 0 2 -2v-1415q0 -1 -2 -1h-14q-1 0 -1 1v1415q0 2 1 2zM343 1418h14q1 0 1 -2v-1415q0 -1 -1 -1h-14q-2 0 -2 1v1415q0 2 2 2zM376 1418h14q2 0 2 -2v-1415
q0 -1 -2 -1h-14q-1 0 -1 1v1415q0 2 1 2zM411 1418h13q2 0 2 -2v-1415q0 -1 -2 -1h-13q-2 0 -2 1v1415q0 2 2 2zM445 1418h14q1 0 1 -2v-1415q0 -1 -1 -1h-14q-2 0 -2 1v1415q0 2 2 2zM478 1418h14q2 0 2 -2v-1415q0 -1 -2 -1h-14q-1 0 -1 1v1415q0 2 1 2zM513 1418h14
q1 0 1 -2v-1415q0 -1 -1 -1h-14q-2 0 -2 1v1415q0 2 2 2zM1320 1416v-347h-451v-174h451v-348h-451v-202h451v-345h-773q-1 0 -1 1v1415h774zM563 1069v-174h16v174h-16zM596 1069v-174h17v174h-17zM631 1069v-174h17v174h-17zM665 1069v-174h16v174h-16zM698 1069v-174h18
v174h-18zM733 1069v-174h17v174h-17zM767 1069v-174h17v174h-17zM801 1069v-174h17v174h-17zM835 1069v-174h17v174h-17zM563 547v-202h16v202h-16zM596 547v-202h17v202h-17zM631 547v-202h17v202h-17zM665 547v-202h16v202h-16zM698 547v-202h18v202h-18zM733 547v-202h17
v202h-17zM767 547v-202h17v202h-17zM801 547v-202h17v202h-17zM835 547v-202h17v202h-17z" />
    <glyph glyph-name="f" unicode="f" horiz-adv-x="1334" 
d="M2 1418h14q1 0 1 -2v-1415q0 -1 -1 -1h-14q-2 0 -2 1v1415q0 2 2 2zM35 1418h14q2 0 2 -2v-1415q0 -1 -2 -1h-14q-1 0 -1 1v1415q0 2 1 2zM70 1418h14q1 0 1 -2v-1415q0 -1 -1 -1h-14q-2 0 -2 1v1415q0 2 2 2zM104 1418h14q2 0 2 -2v-1415q0 -1 -2 -1h-14q-2 0 -2 1v1415
q1 2 2 2zM138 1418h13q2 0 2 -2v-1415q0 -1 -2 -1h-13q-2 0 -2 1v1415q0 2 2 2zM172 1418h14q1 0 1 -2v-1415q0 -1 -1 -1h-14q-2 0 -2 1v1415q0 2 2 2zM206 1418h14q2 0 2 -2v-1415q0 -1 -2 -1h-14q-1 0 -1 1v1415q0 2 1 2zM240 1418h14q1 0 1 -2v-1415q0 -1 -1 -1h-14
q-2 0 -2 1v1415q0 2 2 2zM274 1418h14q2 0 2 -2v-1415q0 -1 -2 -1h-14q-1 0 -1 1v1415q0 2 1 2zM309 1418h13q2 0 2 -2v-1415q0 -1 -2 -1h-13q-2 0 -2 1v1415q0 2 2 2zM342 1418h14q2 0 2 -2v-1415q0 -1 -2 -1h-14q-2 0 -2 1v1415q1 2 2 2zM376 1418h14q2 0 2 -2v-1415
q0 -1 -2 -1h-14q-1 0 -1 1v1415q0 2 1 2zM411 1418h14q1 0 1 -2v-1415q0 -1 -1 -1h-14q-2 0 -2 1v1415q0 2 2 2zM444 1418h14q2 0 2 -2v-1415q0 -1 -2 -1h-14q-1 0 -1 1v1415q0 2 1 2zM479 1418h14q1 0 1 -2v-1415q0 -1 -1 -1h-14q-2 0 -2 1v1415q0 2 2 2zM513 1418h14
q2 0 2 -2v-1415q0 -1 -2 -1h-14q-2 0 -2 1v1415q1 2 2 2zM547 1418h772v-348h-450v-167h450v-349h-450v-553q0 -1 -2 -1h-14q-1 0 -1 1v553h-17v-553q0 -1 -1 -1h-14q-2 0 -2 1v553h-17v-553q0 -1 -2 -1h-14q-1 0 -1 1v553h-17v-553q0 -1 -2 -1h-14q-2 0 -2 1v553h-16v-553
q0 -1 -2 -1h-14q-1 0 -1 1v553h-17v-553q0 -1 -2 -1h-14q-2 0 -2 1v553h-17v-553q0 -1 -1 -1h-14q-2 0 -2 1v553h-16v-553q0 -1 -2 -1h-14q-1 0 -1 1v553h-18v-553q0 -1 -1 -1h-14q-2 0 -2 1v553h-17v-553q0 -1 -2 -1h-13q-2 0 -2 1v1415q0 2 2 2zM562 1070v-167h17v167h-17
zM596 1070v-167h18v167h-18zM631 1070v-167h16v167h-16zM664 1070v-167h17v167h-17zM699 1070v-167h17v167h-17zM733 1070v-167h16v167h-16zM767 1070v-167h17v167h-17zM801 1070v-167h17v167h-17zM835 1070v-167h17v167h-17z" />
    <glyph glyph-name="g" unicode="g" horiz-adv-x="1366" 
d="M261 1418q2 0 2 -2q-2 -4 -242 -699h15q1 0 243 701h17l1 -1l-242 -700h16l242 700l2 1h16v-1l-242 -700h1q9 1 15 1l242 700h17q1 0 1 -2l-242 -698h17q241 698 242 700h16l2 -1q-2 -4 -243 -699h15q2 0 244 700h17v-1l-241 -699h15l242 700h17q1 0 1 -2l-242 -698h17
q241 698 243 700h15l2 -1q-2 -4 -242 -699h14q2 0 244 700h17v-1l-241 -699h16l242 700h16q2 0 2 -2l-242 -698h16q241 698 243 700h15l2 -1q-2 -4 -242 -699h15q1 0 243 700h18v-1l-242 -699h16l242 700h16q2 0 2 -2l-242 -698h16q241 698 243 700h16l1 -1q-2 -4 -242 -699
h15q2 0 244 700h17v-1l-241 -699h15l242 700h17q1 0 1 -2q-241 -696 -241 -697h15l243 699h16l2 -1l-243 -698h17l241 698l2 1h16v-1l-241 -698h15q1 0 242 699h17q1 0 1 -2q-241 -696 -241 -697h16l242 699h16l2 -1l-242 -698h16l241 698l2 1h16v-1l-241 -698h15
q1 0 243 699h16q2 0 2 -2q-242 -696 -242 -697h16l242 699h16l2 -1l-242 -698h16l242 698l1 1h17v-1l-242 -698h15q2 0 243 699h16q2 0 2 -2q-241 -696 -241 -697h15l242 699h17l1 -1l-243 -700l8 -28q1 2 10 27h16q2 0 2 -1l-18 -54q7 -20 7 -22h2q24 77 26 77h15l2 -1
q-28 -81 -34 -105l7 -22h1q41 128 43 128h16l-50 -156q0 -1 7 -22h1q58 177 60 178h15q2 0 2 -1l-68 -205q7 -20 7 -22q2 0 77 228h16l2 -1l-85 -255q8 -23 9 -23l92 279h18l-101 -307v-1q2 -3 7 -21h1l109 328l2 1h14q2 0 2 -1q-115 -347 -118 -356q8 -21 8 -22
q1 0 126 379h17l1 -1l-135 -406q4 -10 8 -22h1l143 429h17l-151 -457q8 -23 9 -23l159 480h16q1 0 1 -1q-159 -479 -167 -508q7 -20 7 -22h1l176 531h16l2 -1l-185 -557q7 -20 7 -23q2 0 194 581h17l-201 -608q7 -19 7 -22h2l208 629l2 1h15q1 0 1 -1l-217 -658l7 -23h1
l226 682h16l2 -1l-235 -709q2 -3 2 -6h-869q-4 6 -24 69q-2 2 -225 647q3 0 245 702h16z" />
    <glyph glyph-name="h" unicode="h" horiz-adv-x="1327" 
d="M2 1418h14q1 0 1 -2v-522h17v522q0 2 1 2h14q2 0 2 -2v-522h17v522q0 2 2 2h13q2 0 2 -2v-522h17v522q0 2 2 2h14q1 0 1 -2v-522h17v522q0 2 1 2h14q2 0 2 -2v-522h17v522q0 2 2 2h14q1 0 1 -2v-522h17v522q1 2 2 2h14q2 0 2 -2v-522h16v522q0 2 2 2h14q1 0 1 -2v-522h17
v522q1 2 2 2h14q2 0 2 -2v-522h17v522q0 2 1 2h14q2 0 2 -2v-522h16v522q0 2 2 2h14q1 0 1 -2v-522h18v522q0 2 1 2h14q2 0 2 -2v-522h17v522q0 2 2 2h13q2 0 2 -2v-522h16v522q1 2 2 2h14q2 0 2 -2v-522h391v522q1 2 2 2h14q2 0 2 -2v-522h17v522q0 2 1 2h14q2 0 2 -2v-522
h17v522q0 2 2 2h14q1 0 1 -2v-522h17v522q0 2 1 2h14q2 0 2 -2v-522h17v522q0 2 2 2h14q1 0 1 -2v-522h17v522q1 2 2 2h14q2 0 2 -2v-522h16v522q0 2 2 2h13q2 0 2 -2v-522h17v522q0 2 2 2h14q1 0 1 -2v-522h18v522q0 2 1 2h14q2 0 2 -2v-522h16v522q0 2 2 2h14q1 0 1 -2
v-522h17v522q1 2 2 2h14q2 0 2 -2v-522h17v522q0 2 1 2h14q2 0 2 -2v-522h16v522q1 2 2 2h14q2 0 2 -2v-522h17v522q0 2 1 2h14q2 0 2 -2v-1415q0 -1 -2 -1h-14q-1 0 -1 1v544h-17v-544q0 -1 -2 -1h-14q-2 0 -2 1v544h-16v-544q0 -1 -2 -1h-14q-1 0 -1 1v544h-17v-544
q0 -1 -2 -1h-14q-2 0 -2 1v544h-17v-544q0 -1 -1 -1h-14q-2 0 -2 1v544h-16v-544q0 -1 -2 -1h-14q-1 0 -1 1v544h-18v-544q0 -1 -1 -1h-14q-2 0 -2 1v544h-17v-544q0 -1 -2 -1h-13q-2 0 -2 1v544h-16v-544q0 -1 -2 -1h-14q-2 0 -2 1v544h-17v-544q0 -1 -1 -1h-14q-2 0 -2 1
v544h-17v-544q0 -1 -2 -1h-14q-1 0 -1 1v544h-17v-544q0 -1 -1 -1h-14q-2 0 -2 1v544h-17v-544q0 -1 -2 -1h-14q-1 0 -1 1v544h-17v-544q0 -1 -2 -1h-14q-2 0 -2 1v544h-391v-544q0 -1 -2 -1h-14q-2 0 -2 1v544h-16v-544q0 -1 -2 -1h-13q-2 0 -2 1v544h-17v-544q0 -1 -2 -1
h-14q-1 0 -1 1v544h-18v-544q0 -1 -1 -1h-14q-2 0 -2 1v544h-16v-544q0 -1 -2 -1h-14q-1 0 -1 1v544h-17v-544q0 -1 -2 -1h-14q-2 0 -2 1v544h-17v-544q0 -1 -1 -1h-14q-2 0 -2 1v544h-16v-544q0 -1 -2 -1h-14q-2 0 -2 1v544h-17v-544q0 -1 -1 -1h-14q-2 0 -2 1v544h-17
v-544q0 -1 -2 -1h-14q-1 0 -1 1v544h-17v-544q0 -1 -1 -1h-14q-2 0 -2 1v544h-17v-544q0 -1 -2 -1h-13q-2 0 -2 1v544h-17v-544q0 -1 -2 -1h-14q-1 0 -1 1v544h-17v-544q0 -1 -1 -1h-14q-2 0 -2 1v1415q0 2 2 2z" />
    <glyph glyph-name="i" unicode="i" horiz-adv-x="1327" 
d="M341 1070h-17v-719h17v719zM375 351v719h-17v-719h17zM392 351h17v719h-17v-719zM52 1070v-719h16v719h-16zM1278 1070v-719h17v719h-17zM1244 1070v-719h17v719h-17zM1210 1070v-719h17v719h-17zM1176 1070v-719h16v719h-16zM1142 1070v-719h17v719h-17zM1107 1070v-719
h18v719h-18zM1074 1070v-719h16v719h-16zM1040 1070v-719h17v719h-17zM1005 1070v-719h17v719h-17zM972 1070v-719h16v719h-16zM937 1070v-719h17v719h-17zM903 1070v-719h17v719h-17zM869 1070v-719h17v719h-17zM426 351h17v719h-17v-719zM307 1070h-17v-719h17v719z
M272 1070h-16v-719h16v719zM222 1070v-719h17v719h-17zM187 1070v-719h17v719h-17zM154 1070v-719h16v719h-16zM119 1070v-719h18v719h-18zM85 1070v-719h17v719h-17zM20 1070l-1 -720q0 1 1 1h14v719h-14zM0 1q0 1417 2 1417h1310v-1418z" />
    <glyph glyph-name="j" unicode="j" horiz-adv-x="1140" 
d="M614 1418v-699h17v697q0 2 2 2h13q2 0 2 -2v-697h17v697q0 2 2 2h14q1 0 1 -2v-697h17v697q0 2 1 2h14q2 0 2 -2v-697h17v697q0 2 2 2h14q1 0 1 -2v-697h18v697q0 2 1 2h14q2 0 2 -2v-697h16v697q0 2 2 2h14q1 0 1 -2v-697h17v697q1 2 2 2h14q2 0 2 -2v-697h17v697
q0 2 1 2h14q2 0 2 -2v-744l15 -48h1v792q1 2 2 2h14q1 0 1 -2v-841q0 -2 17 -50h1v891q0 2 1 2h14q2 0 2 -2v-941l16 -49h1v990q0 2 2 2h14q1 0 1 -2v-1039q0 -2 16 -49h1v1088q0 2 1 2h14q2 0 2 -2v-1137l16 -49h1v1186q0 2 2 2h13q2 0 2 -2v-1236q0 -1 16 -50h1v1286
q0 2 2 2h14q1 0 1 -2v-1335q0 -2 16 -48h1v1383q0 2 1 2h14q2 0 2 -2v-1415q0 -1 -2 -1h-873l-247 719h594v351h-595q-2 0 -2 1l1 347h613z" />
    <glyph glyph-name="k" unicode="k" horiz-adv-x="1300" 
d="M1 1418h14q2 0 2 -2v-543q0 -1 -2 -1h-14q-1 0 -1 1v543q0 2 1 2zM35 1418h14q1 0 1 -2v-543q0 -1 -1 -1h-14q-2 0 -2 1v543q0 2 2 2zM69 1418h14q2 0 2 -2v-543q0 -1 -2 -1h-14q-1 0 -1 1v543q0 2 1 2zM104 1418h13q2 0 2 -2v-543q0 -1 -2 -1h-13q-2 0 -2 1v543q0 2 2 2
zM137 1418h14q2 0 2 -2v-543q0 -1 -2 -1h-14q-2 0 -2 1v543q1 2 2 2zM171 1418h14q2 0 2 -2v-543q0 -1 -2 -1h-14q-1 0 -1 1v543q0 2 1 2zM206 1418h14q1 0 1 -2v-543q0 -1 -1 -1h-14q-2 0 -2 1v543q0 2 2 2zM239 1418h14q2 0 2 -2v-543q0 -1 -2 -1h-14q-1 0 -1 1v543
q0 2 1 2zM274 1418h14q1 0 1 -2v-543q0 -1 -1 -1h-14q-2 0 -2 1v543q0 2 2 2zM308 1418h14q2 0 2 -2v-543q0 -1 -2 -1h-14q-2 0 -2 1v543q1 2 2 2zM342 1418h13q2 0 2 -2v-543q0 -1 -2 -1h-13q-2 0 -2 1v543q0 2 2 2zM376 1418h14q1 0 1 -2v-543q0 -1 -1 -1h-14q-2 0 -2 1
v543q0 2 2 2zM410 1418h14q2 0 2 -2v-543q0 -1 -2 -1h-14q-1 0 -1 1v543q0 2 1 2zM444 1418h14q1 0 1 -2v-543q0 -1 -1 -1h-14q-2 0 -2 1v543q0 2 2 2zM478 1418h14q2 0 2 -2v-543q0 -1 -2 -1h-14q-1 0 -1 1v543q0 2 1 2zM512 1418h14q2 0 2 -2v-543q0 -1 -2 -1h-14
q-1 0 -1 1v543q0 2 1 2zM758 1418h16q-4 -15 -188 -546h15q1 0 24 67q163 472 166 479h16q2 0 2 -2q-186 -535 -189 -544h16q37 108 189 546h16l2 -1l-189 -545h16l183 530q4 13 7 16h16q-4 -15 -188 -546h15q2 0 24 67q163 472 167 479h15q2 0 2 -2q-186 -535 -188 -544h15
q37 108 189 546h17l1 -1l-189 -545h17l182 530q5 13 7 16h17q-4 -15 -188 -546h14q2 0 24 67q164 472 167 479h15q2 0 2 -2q-186 -535 -188 -544h15q37 108 189 546h17l1 -1l-189 -545h17l182 530q5 13 8 16h16q-4 -15 -188 -546h15q1 0 23 67q164 472 167 479h16q1 0 1 -2
q-185 -535 -188 -544h16q37 108 189 546h16l2 -1l-189 -545h16l182 530q5 13 8 16h16q-4 -15 -188 -546h15q1 0 23 67q164 472 167 479h16q2 0 2 -2q-186 -535 -189 -544h16q37 108 189 546h16l2 -1l-189 -545h16l183 530q4 13 7 16h16q-4 -15 -241 -700v-1
q142 -406 142 -419q41 -148 41 -297l-1 -1h-14q-2 0 -2 2q0 209 -87 432q0 2 -30 89h-15q63 -177 81 -248q34 -139 34 -267v-7q0 -1 -2 -1h-14q-1 0 -1 1v6q0 204 -87 428q-27 82 -31 88h-15q79 -223 79 -239q37 -143 37 -283l-1 -1h-14l-2 1q0 206 -84 426l-33 96h-15v-1
q63 -177 82 -254q33 -136 33 -267l-2 -1h-13q-2 0 -2 2q0 209 -87 432q0 2 -30 89h-16q63 -177 81 -248q35 -139 35 -267v-7q0 -1 -2 -1h-14q-1 0 -1 1v6q0 204 -87 428q-27 82 -31 88h-15q79 -223 79 -239q37 -143 37 -283l-1 -1h-14l-2 1q0 206 -84 426l-33 96h-15v-1
q63 -177 82 -254q33 -136 33 -267l-2 -1h-14q-1 0 -1 2q0 209 -87 432q0 2 -30 89h-16q63 -177 81 -248q35 -139 35 -267v-7q0 -1 -2 -1h-14q-2 0 -2 1v6q0 204 -86 428q-27 82 -31 88h-15q78 -223 78 -239q38 -143 38 -283l-2 -1h-14l-1 1q0 206 -84 426l-33 96h-16v-1
q63 -177 83 -254q33 -136 33 -267l-2 -1h-14q-2 0 -2 2q0 209 -86 432q0 2 -31 89h-15q63 -177 81 -248q34 -139 34 -267v-7q0 -1 -1 -1h-14q-2 0 -2 1v6q0 204 -87 428q-27 82 -31 88h-14q78 -223 78 -239q38 -143 38 -283l-2 -1h-14l-1 1q0 206 -85 426l-32 96h-16v-1
q63 -177 83 -254q32 -136 32 -267l-1 -1h-14q-2 0 -2 2q0 209 -86 432q0 2 -31 89h-15q63 -177 81 -248q34 -139 34 -267v-7q0 -1 -2 -1h-14q-1 0 -1 1v6q0 204 -87 428q-27 82 -31 88h-15q79 -223 79 -239q37 -143 37 -283l-1 -1h-14l-2 1q0 206 -84 426l-33 96h-15v-1
q63 -177 82 -254q33 -136 33 -267l-1 -1h-14q-2 0 -2 2q0 204 -83 421q-31 92 -35 100q-2 0 -67 196l242 698zM1 523h14q2 0 2 -1v-521q0 -1 -2 -1h-14q-1 0 -1 1v521q0 1 1 1zM35 523h14q1 0 1 -1v-521q0 -1 -1 -1h-14q-2 0 -2 1v521q0 1 2 1zM69 523h14q2 0 2 -1v-521
q0 -1 -2 -1h-14q-1 0 -1 1v521q0 1 1 1zM104 523h13q2 0 2 -1v-521q0 -1 -2 -1h-13q-2 0 -2 1v521q0 1 2 1zM137 523h14q2 0 2 -1v-521q0 -1 -2 -1h-14q-2 0 -2 1v521q1 1 2 1zM171 523h14q2 0 2 -1v-521q0 -1 -2 -1h-14q-1 0 -1 1v521q0 1 1 1zM206 523h14q1 0 1 -1v-521
q0 -1 -1 -1h-14q-2 0 -2 1v521q0 1 2 1zM239 523h14q2 0 2 -1v-521q0 -1 -2 -1h-14q-1 0 -1 1v521q0 1 1 1zM274 523h14q1 0 1 -1v-521q0 -1 -1 -1h-14q-2 0 -2 1v521q0 1 2 1zM308 523h14q2 0 2 -1v-521q0 -1 -2 -1h-14q-2 0 -2 1v521q1 1 2 1zM342 523h13q2 0 2 -1v-521
q0 -1 -2 -1h-13q-2 0 -2 1v521q0 1 2 1zM376 523h14q1 0 1 -1v-521q0 -1 -1 -1h-14q-2 0 -2 1v521q0 1 2 1zM410 523h14q2 0 2 -1v-521q0 -1 -2 -1h-14q-1 0 -1 1v521q0 1 1 1zM444 523h14q1 0 1 -1v-521q0 -1 -1 -1h-14q-2 0 -2 1v521q0 1 2 1zM478 523h14q2 0 2 -1v-521
q0 -1 -2 -1h-14q-1 0 -1 1v521q0 1 1 1zM512 523h14q2 0 2 -1v-521q0 -1 -2 -1h-14q-1 0 -1 1v521q0 1 1 1z" />
    <glyph glyph-name="l" unicode="l" horiz-adv-x="1053" 
d="M525 1418v-752h1q0 -1 -1 -9v-41h1q16 50 18 50h15q2 0 2 -1q-36 -102 -36 -106v-42h1q50 149 52 149h15l2 -1q-65 -184 -70 -205v-42h1l85 248h18q0 -2 -51 -147.5t-53 -156.5v-42h1q6 20 119 346h16q2 0 2 -1q-132 -379 -138 -402v-42h1q0 3 153 445h17l1 -1
q-169 -487 -172 -500v-42h1l188 543h17q0 -2 -206 -598v-44h1l220 641q1 1 2 1h16q1 0 1 -1q-227 -658 -230 -665h-535v1418h525zM798 666l2 -1l-231 -665h-16l-2 1l231 665h16zM817 666h16q0 -2 -230 -665l-1 -1h-15q-2 0 -2 1l230 664zM850 666h16q1 0 1 -1
q-227 -658 -230 -665h-17q0 3 114.5 334.5t115.5 331.5zM900 666l2 -1l-231 -665h-16l-2 1l231 665h16zM919 666h16q0 -2 -229 -665l-2 -1h-15q-1 0 -1 1l229 664zM953 666h15q2 0 2 -1q-228 -658 -231 -665h-17q0 3 115 334.5t116 331.5zM1002 666l2 -1l-231 -665h-16l-2 1
l231 665h16zM1021 666h17q0 -2 -230 -665l-2 -1h-15q-1 0 -1 1l230 664z" />
    <glyph glyph-name="m" unicode="m" horiz-adv-x="2882" 
d="M492 1418h869q2 0 74 -212h1q0 2 72 210q-1 0 -1 1l2 1h868l490 -1418h-868l-72 206q-2 -1 -73 -206h-871q-2 0 -57 162q-1 0 -28.5 -80t-29.5 -82h-15l-2 1q2 3 66 188q-8 19 -8 23h-1q0 -2 -72 -211l-2 -1h-16v1l81 238q0 1 -7 22h-1q0 -2 -90 -261h-16q-2 0 -2 1
q99 285 99 287l-7 22h-1l-107 -310h-16l-2 1q114 328 116 336q-6 22 -8 22q-6 -19 -124 -358l-1 -1h-17v1l134 385q-8 19 -8 22q-3 -4 -142 -408h-16q-2 0 -2 1l151 434q-1 1 -8 22q-1 -1 -159 -457h-17l-1 1q1 3 167 484q-5 15 -7 22h-1l-176 -507h-17v1l184 534
q-3 7 -7 21h-1q-7 -21 -192 -556h-17q-1 0 -1 1l201 583q-7 21 -8 21l-210 -605h-16l-2 1q212 610 219 632q-6 20 -8 21l-224 -650q-2 -4 -4 -4h-16v1l235 680q-7 20 -7 22h-2q-4 -16 -123 -359t-120 -344h-16q-1 0 -1 1l252 730q-3 7 -7 22h-1l-261 -753h-16l-2 1l270 779
q-1 1 -7 22h-1l-277 -801l-2 -1h-16v1q0 1 286 828l-7 23h-1q-12 -36 -153 -444t-142 -408h-16q-2 0 -2 1l292 843q3 6 12 35l-8 22l-312 -901h-16l-2 1q318 915 321 929q-7 16 -7 19h-2q-327 -946 -328 -949h-18v1q337 972 337 977l-6 20h-2l-345 -998h-16q-2 0 -2 1
l355 1025q-6 15 -7 22q-2 0 -364 -1048h-17l-1 1q1 3 372 1075q-4 10 -7 22h-1l-381 -1098h-17v1q385 1111 389 1125q-2 3 -8 21l-397 -1147h-16q-2 0 -2 1q399 1151 406 1174l-8 21h-1q0 -2 -413 -1196h-17l-1 1q1 3 211.5 610.5t210.5 612.5q-6 21 -8 21
q-5 -16 -430 -1244l-2 -1h-16v1l440 1271q-3 8 -7 22q-3 -1 -449 -1294h-17q-1 0 -1 1l457 1321q-2 3 -8 22l-466 -1344h-16l-2 1l475 1369l-8 23h-1l-482 -1393h-17v1q487 1410 490 1415q2 0 2 2zM1445 1178l7 -20h1q0 2 72 208q-2 3 -7 22q-2 0 -35.5 -96.5t-37.5 -113.5z
M1533 1339q-4 -15 -72 -209q6 -15 8 -22q1 1 36 102.5t37 106.5q-4 10 -7 22h-2zM1550 1290q-1 -7 -71 -210q3 -7 7 -22h1q72 209 72 210q-7 22 -9 22zM1568 1240l-72 -209q0 -1 7 -22h1l72 210zM1585 1192l-72 -211l7 -21h1l72 210q-7 19 -7 22h-1zM1602 1142
q-65 -189 -72 -210q7 -21 8 -21q3 12 72 208q-7 22 -7 23h-1zM1546 884q8 -19 8 -22h1q5 17 72 208q-7 21 -7 22q-3 -4 -74 -208zM1636 1043q-68 -197 -72 -208q0 -1 7 -22q2 0 73 209l-7 21h-1zM1653 994q-5 -16 -72 -209q5 -15 7 -22h1q71 205 72 210q-7 21 -8 21z
M1670 945q-3 -11 -72 -209q7 -21 7 -23h1l72 211q-7 20 -7 21h-1zM1687 896q-70 -204 -72 -211q2 -3 7 -21h1q0 1 72 210q-7 20 -7 22h-1zM1704 847l-72 -210q6 -21 8 -21l72 209q-2 3 -7 22h-1zM1649 587q7 -19 7 -20h2q9 30 72 208q-4 7 -8 22q-1 0 -37 -103t-36 -107z
M1738 747l-72 -208q3 -8 7 -22q2 0 37.5 103t35.5 107q-7 19 -7 20h-1zM1755 698l-72 -209q2 -3 7 -22h1l72 210q-6 21 -8 21zM1772 650q0 -2 -72 -210q8 -21 8 -22q71 204 72 211q-1 2 -7 21h-1zM1789 601l-72 -211q4 -11 8 -21h1q3 11 71 209q-7 21 -7 23h-1zM1806 551
q-71 -206 -71 -210q6 -22 8 -22q5 17 72 210q-6 15 -8 22h-1zM1752 292l6 -21h2q67 196 72 208q-1 1 -8 22q-2 0 -72 -209zM1840 452q-5 -17 -72 -209q7 -20 7 -22q4 5 74 209q-3 7 -7 22h-2zM1857 403q-3 -12 -72 -209q8 -21 8 -23q66 190 72 211q-6 21 -8 21zM1874 354
l-72 -210q2 -3 8 -22h1l72 211l-8 21h-1zM1892 305l-72 -210l7 -22h1l72 210q-1 1 -8 22zM1909 256q-72 -209 -72 -210q6 -22 8 -22q2 7 72 210q-3 7 -7 22h-1z" />
    <glyph glyph-name="n" unicode="n" horiz-adv-x="1730" 
d="M2 1418h14q1 0 1 -2v-1413q0 -2 -1 -2h-14q-2 0 -2 2v1413q1 2 2 2zM37 1418h14q2 0 2 -2v-1413q0 -2 -2 -2h-14q-2 0 -2 2v1413q1 2 2 2zM71 1418h14q2 0 2 -2v-1413q0 -2 -2 -2h-14q-1 0 -1 2v1413q0 2 1 2zM107 1418h14q1 0 1 -2v-1413q0 -2 -1 -2h-14q-2 0 -2 2v1413
q0 2 2 2zM141 1418h14q2 0 2 -2v-1413q0 -2 -2 -2h-14q-2 0 -2 2v1413q1 2 2 2zM176 1418h14q2 0 2 -2v-1413q0 -2 -2 -2h-14q-1 0 -1 2v1413q0 2 1 2zM211 1418h13q2 0 2 -2v-1413q0 -2 -2 -2h-13q-2 0 -2 2v1413q0 2 2 2zM246 1418h14q1 0 1 -2v-1413q0 -2 -1 -2h-14
q-2 0 -2 2v1413q0 2 2 2zM279 1418h664l267 -760h1v758q0 2 2 2h14q1 0 1 -2v-807q0 -2 18 -52v859q1 2 2 2h14q2 0 2 -2v-908q0 -2 16 -51h1v959q0 2 1 2h14q2 0 2 -2v-1007q0 -3 17 -54h1v1061q0 2 1 2h14q2 0 2 -2v-1110l16 -50h1v1160q0 2 2 2h14q1 0 1 -2v-1209
q0 -2 18 -53v1262q1 2 2 2h14q2 0 2 -2v-1312l16 -49h1v1361q0 2 1 2h14q2 0 2 -2l1 -1416l-672 3l-261 759h-1v-759q0 -2 -2 -2h-13q-2 0 -2 2v807q0 2 -16 51h-1v-858q0 -2 -2 -2h-14q-1 0 -1 2v908l-18 51v-959q0 -2 -2 -2h-14q-2 0 -2 2v1008l-16 51h-1v-1059
q0 -2 -1 -2h-14q-2 0 -2 2v1107q0 3 -17 54h-1v-1161q0 -2 -2 -2h-13q-2 0 -2 2v1210q0 2 -16 50h-1v-1260q0 -2 -2 -2h-14q-1 0 -1 2v1309q0 1 -18 53v-1362q0 -2 -2 -2h-14q-2 0 -2 2v1414zM1457 1418h13q2 0 2 -2v-1413q0 -2 -2 -2h-13q-2 0 -2 2v1413q0 2 2 2z
M1491 1418h14q1 0 1 -2v-1413q0 -2 -1 -2h-14q-2 0 -2 2v1413q0 2 2 2zM1526 1418h14q2 0 2 -2v-1413q0 -2 -2 -2h-14q-2 0 -2 2v1413q1 2 2 2zM1560 1418h14q2 0 2 -2v-1413q0 -2 -2 -2h-14q-1 0 -1 2v1413q0 2 1 2zM1596 1418h13q2 0 2 -2v-1413q0 -2 -2 -2h-13q-2 0 -2 2
v1413q0 2 2 2zM1630 1418h14q1 0 1 -2v-1413q0 -2 -1 -2h-14q-2 0 -2 2v1413q1 2 2 2zM1665 1418h14q2 0 2 -2v-1413q0 -2 -2 -2h-14q-2 0 -2 2v1413q1 2 2 2zM1699 1418h14q2 0 2 -2v-1413q0 -2 -2 -2h-14q-1 0 -1 2v1413q0 2 1 2z" />
    <glyph glyph-name="o" unicode="o" 
d="M400 1411h14q1 -1 1 -2v-1408q-17 1 -17 4v1404q0 2 2 2zM434 1411h14q2 -1 2 -2v-1408q0 -1 -2 -1h-14q-1 0 -1 1v1408q0 2 1 2zM468 1411h14q1 -1 1 -2v-518q-15 -33 -15 -40h-2v558q0 2 2 2zM502 1411h14q2 -1 2 -2v-476l-17 -17v493q0 2 1 2zM536 1411h14q2 -1 2 -2
v-451q0 -1 -16 -11l-1 1v461q0 2 1 2zM570 1411h14q2 -1 2 -2v-437q-1 -1 -17 -7l-1 1v443q1 2 2 2zM604 1411h14q2 -1 2 -2v-430q0 -3 -17 -4v434q0 2 1 2zM639 1411h14q1 -1 1 -2v-429q0 -2 -1 -2h-14q-2 0 -2 2v429q0 2 2 2zM672 1411h14q2 -1 2 -2v-429q0 -2 -2 -2h-14
q-1 0 -1 2v429q0 2 1 2zM707 1411h14q1 -1 1 -2v-429q0 -2 -1 -2h-14q-2 0 -2 2v429q0 2 2 2zM741 1411h14q2 -1 2 -2v-429q0 -2 -2 -2h-14q-2 0 -2 2v429q1 2 2 2zM774 1411h382q69 -5 162 -52q35 -19 86 -61q150 -143 150 -339v-504q0 -200 -155 -343q-133 -112 -300 -112
h-325q-1 0 -1 1v434q0 1 1 1h108q113 0 165 101q16 34 16 79v183q0 107 -96 161q-37 18 -83 18h-110q-1 0 -1 2v429q0 2 1 2zM380 1409l1 -2v-1400l-1 -2q-16 3 -16 5v1394q0 2 16 5zM348 1402v-1389h-1q-17 3 -17 5v1379q0 2 18 5zM313 1392v-1369q-14 2 -17 6v1356
q3 4 17 7zM278 1379l1 -1v-1341l-1 -2q-16 7 -16 8v1328q0 1 16 8zM245 1363v-1312q-12 5 -17 10v1292q6 7 17 10zM210 1343l1 -1v-1270q0 -1 -2 -1l-15 11v1250q6 6 16 11zM176 1319h1v-1224h-1q-12 8 -17 14v1196q5 6 17 14zM142 1290h1v-1166h-1q-1 0 -16 16v1134
q0 1 16 16zM108 1254h1v-1093h-1q-3 2 -16 19v1054q13 17 16 20zM73 1208h1v-1001h-1l-16 26v949zM39 1146h2v-878h-2q-11 25 -15 43v793q2 11 15 42zM5 1030h2v-646h-2q-5 38 -5 68v510q0 30 5 68zM466 563h2q0 -7 15 -40v-522q0 -1 -1 -1h-14q-2 0 -2 1v562zM501 499
l17 -18v-480q0 -1 -2 -1h-14q-1 0 -1 1v498zM536 468q16 -11 16 -12v-455q0 -1 -2 -1h-14q-1 0 -1 1v465q0 2 1 2zM569 450q17 -6 17 -8v-441q0 -1 -2 -1h-14q-2 0 -2 1v447zM603 439h1q16 -1 16 -3v-435q0 -1 -2 -1h-14q-1 0 -1 1v438zM639 436h14q1 0 1 -1v-434
q0 -1 -1 -1h-14q-2 0 -2 1v434q0 1 2 1zM672 436h14q2 0 2 -1v-434q0 -1 -2 -1h-14q-1 0 -1 1v434q0 1 1 1zM707 436h14q1 0 1 -1v-434q0 -1 -1 -1h-14q-2 0 -2 1v434q0 1 2 1zM741 436h14q2 0 2 -1v-434q0 -1 -2 -1h-14q-2 0 -2 1v434q1 1 2 1z" />
    <glyph glyph-name="p" unicode="p" horiz-adv-x="1339" 
d="M2 1418h14q1 0 1 -2v-1415q0 -1 -1 -1h-14q-2 0 -2 1v1415q0 2 2 2zM36 1418h14q2 0 2 -2v-1415q0 -1 -2 -1h-14q-1 0 -1 1v1415q0 2 1 2zM71 1418h13q2 0 2 -2v-1415q0 -1 -2 -1h-13q-2 0 -2 1v1415q0 2 2 2zM104 1418h14q2 0 2 -2v-1415q0 -1 -2 -1h-14q-2 0 -2 1v1415
q1 2 2 2zM138 1418h14q2 0 2 -2v-1415q0 -1 -2 -1h-14q-1 0 -1 1v1415q0 2 1 2zM173 1418h14q1 0 1 -2v-1415q0 -1 -1 -1h-14q-2 0 -2 1v1415q0 2 2 2zM206 1418h14q2 0 2 -2v-1415q0 -1 -2 -1h-14q-1 0 -1 1v1415q0 2 1 2zM241 1418h14q1 0 1 -2v-1415q0 -1 -1 -1h-14
q-2 0 -2 1v1415q0 2 2 2zM275 1418h14q2 0 2 -2v-1415q0 -1 -2 -1h-14q-2 0 -2 1v1415q1 2 2 2zM309 1418h13q2 0 2 -2v-1415q0 -1 -2 -1h-13q-2 0 -2 1v1415q0 2 2 2zM343 1418h14q1 0 1 -2v-1415q0 -1 -1 -1h-14q-2 0 -2 1v1415q0 2 2 2zM377 1418h14q2 0 2 -2v-1415
q0 -1 -2 -1h-14q-1 0 -1 1v1415q0 2 1 2zM411 1418h14q1 0 1 -2v-1415q0 -1 -1 -1h-14q-2 0 -2 1v1415q0 2 2 2zM445 1418h14q2 0 2 -2v-1415q0 -1 -2 -1h-14q-1 0 -1 1v1415q0 2 1 2zM480 1418h13q2 0 2 -2v-1415q0 -1 -2 -1h-13q-2 0 -2 1v1415q0 2 2 2zM513 1418h14
q2 0 2 -2v-1415q0 -1 -2 -1h-14q-2 0 -2 1v1415q1 2 2 2zM547 1418h14q2 0 2 -2v-1415q0 -1 -2 -1h-14q-1 0 -1 1v1415q0 2 1 2zM582 1418h14q1 0 1 -2v-1415q0 -1 -1 -1h-14q-2 0 -2 1v1415q0 2 2 2zM615 1418h14q2 0 2 -2v-1415q0 -1 -2 -1h-14q-1 0 -1 1v1415q0 2 1 2z
M650 1418h14q1 0 1 -2v-1415q0 -1 -1 -1h-14q-2 0 -2 1v1415q0 2 2 2zM684 1418h14q2 0 2 -2v-1415q0 -1 -2 -1h-14q-2 0 -2 1v1415q1 2 2 2zM718 1418h13q2 0 2 -2v-1415q0 -1 -2 -1h-13q-2 0 -2 1v1415q0 2 2 2zM752 1418h14q1 0 1 -2v-1415q0 -1 -1 -1h-14q-2 0 -2 1
v1415q0 2 2 2zM786 1418h14q2 0 2 -2v-1415q0 -1 -2 -1h-14q-1 0 -1 1v1415q0 2 1 2zM820 1418h14q1 0 1 -2v-1415q0 -1 -1 -1h-14q-2 0 -2 1v1415q0 2 2 2zM854 1418h25q121 0 236 -71q30 -17 86 -71q123 -137 123 -312q0 -194 -150 -337q-94 -79 -189 -101
q-59 -15 -115 -15v-510q0 -1 -2 -1h-14q-2 0 -2 1v1415q1 2 2 2z" />
    <glyph glyph-name="q" unicode="q" horiz-adv-x="1570" 
d="M400 1415h14q1 -1 1 -2v-1408q-17 1 -17 4v1404q1 2 2 2zM433 1415h14q2 -1 2 -2v-1408q0 -1 -2 -1h-13q-1 0 -2 2v1407q0 2 1 2zM468 1415h14q1 -1 1 -2v-517q-15 -34 -15 -39h-2v556q0 2 2 2zM502 1415h14q2 -1 2 -2v-476l-17 -16v492q0 2 1 2zM536 1415h14q1 -1 1 -2
v-451q-1 -3 -17 -11v462q0 2 2 2zM570 1415h14q2 -1 2 -2v-437q0 -2 -17 -6h-1v443q1 2 2 2zM604 1415h14q2 -1 2 -2v-430q0 -3 -17 -3v433q0 2 1 2zM638 1415h14q1 -1 1 -2v-429q0 -2 -1 -2h-14q-2 0 -2 2v429q1 2 2 2zM672 1415h14q2 -1 2 -2v-429q0 -2 -2 -2h-14
q-1 0 -1 2v429q0 2 1 2zM707 1415h14q1 -1 1 -2v-429q0 -2 -1 -2h-14q-2 0 -2 2v429q0 2 2 2zM740 1415h14q2 -1 2 -2v-429q0 -2 -2 -2h-14q-1 0 -1 2v429q0 2 1 2zM775 1415h381q63 -4 145 -44q45 -18 112 -78q61 -62 80 -102q61 -100 61 -243v-474q0 -143 -64 -248
q63 -18 65 -20v-16l-1 -1l-74 22l-8 -13q77 -23 83 -26v-15q0 -2 -2 -2l-92 28l-10 -12v-1l103 -31l1 -2v-15q0 -1 -2 -1l-115 35q0 -1 -12 -13q129 -37 129 -39v-16l-1 -2q-135 42 -142 43q0 -1 -12 -12q151 -44 155 -47v-15q0 -2 -2 -2q-168 51 -169 51q-14 -10 -15 -12
l185 -55l1 -2v-15q0 -1 -2 -1l-202 61q-15 -10 -17 -12q3 0 221 -66v-16l-1 -2q-17 6 -241 73q-12 -7 -19 -9q4 -3 261 -80v-16q0 -1 -2 -1l-284 86q-13 -6 -23 -9q0 -2 308 -94l1 -1v-15q0 -2 -2 -2l-338 103q-12 -4 -30 -7v-1l370 -111v-16l-1 -2l-411 124l-1 -1
q-25 -1 -41 -1h-2v-1q451 -135 456 -137v-16q0 -2 -2 -2q-485 147 -518 156h-49v-1q563 -169 569 -172v-15q0 -2 -2 -2q-586 178 -630 190h-50v-1q45 -13 682 -205v-17l-1 -1q-690 208 -745 224h-34q-2 0 -2 1v434q0 2 2 2h108q112 0 165 102q14 35 14 64v207q0 63 -50 117
q-51 51 -129 51h-108q-2 0 -2 2v429q0 2 2 2zM380 1413l1 -2v-1400l-1 -1q-16 2 -16 4v1394q0 3 16 5zM346 1406l1 -2v-1385q0 -2 -2 -2q-15 3 -15 6v1377q0 3 16 6zM313 1396v-1369q-17 4 -17 6v1356q0 3 17 7zM278 1384l1 -2v-1341l-1 -2q-13 5 -16 8v1328q0 2 16 9z
M244 1367l1 -1v-1309l-1 -2q-15 7 -17 10v1292q2 3 17 10zM211 1348v-1273h-1q-15 9 -16 11v1250q0 2 17 12zM177 1323v-1224h-1q-2 0 -17 14v1197q15 13 18 13zM141 1294h1v-1165h-1q-1 0 -16 16v1132q0 1 16 17zM107 1258h2v-1094h-2q-15 20 -15 21v1053zM73 1213h1v-1003
h-1q-14 22 -16 29v945q2 7 16 29zM38 1150h2v-877h-2q-13 32 -15 43v790q2 11 15 44zM5 1037h2v-651h-2v1q-5 36 -5 62v525q0 24 5 63zM466 566h2q0 -5 15 -40v-521q0 -1 -1 -1h-14q-2 0 -2 1v561zM501 502l17 -16v-481q0 -1 -2 -1h-14q-1 0 -1 1v497zM534 472h1
q14 -9 16 -11v-456q0 -1 -1 -1h-14q-2 0 -2 1v467zM568 453h1q17 -5 17 -7v-441q0 -1 -2 -1h-14q-2 0 -2 1v448zM603 443q17 -1 17 -3v-435q0 -1 -2 -1h-14q-1 0 -1 1v438zM638 441h14q1 -1 1 -2v-434q0 -1 -1 -1h-14q-2 0 -2 1v434q1 2 2 2zM672 441h14q2 -1 2 -2v-434
q0 -1 -2 -1h-14q-1 0 -1 1v434q0 2 1 2zM707 441h14q1 -1 1 -2v-434q0 -1 -1 -1h-14q-2 0 -2 1v434q0 2 2 2zM740 441h14q2 -1 2 -2v-434q0 -1 -2 -1h-14q-1 0 -1 1v434q0 2 1 2z" />
    <glyph glyph-name="r" unicode="r" horiz-adv-x="1346" 
d="M2 1418h14q1 0 1 -2v-1415q0 -1 -1 -1h-14q-2 0 -2 1v1415q0 2 2 2zM35 1418h14q2 0 2 -2v-1415q0 -1 -2 -1h-14q-1 0 -1 1v1415q0 2 1 2zM70 1418h14q1 0 1 -2v-1415q0 -1 -1 -1h-14q-2 0 -2 1v1415q0 2 2 2zM104 1418h14q2 0 2 -2v-1415q0 -1 -2 -1h-14q-2 0 -2 1v1415
q1 2 2 2zM138 1418h13q2 0 2 -2v-1415q0 -1 -2 -1h-13q-2 0 -2 1v1415q0 2 2 2zM172 1418h14q1 0 1 -2v-1415q0 -1 -1 -1h-14q-2 0 -2 1v1415q0 2 2 2zM206 1418h14q2 0 2 -2v-1415q0 -1 -2 -1h-14q-1 0 -1 1v1415q0 2 1 2zM240 1418h14q1 0 1 -2v-1415q0 -1 -1 -1h-14
q-2 0 -2 1v1415q0 2 2 2zM274 1418h14q2 0 2 -2v-1415q0 -1 -2 -1h-14q-1 0 -1 1v1415q0 2 1 2zM309 1418h13q2 0 2 -2v-1415q0 -1 -2 -1h-13q-2 0 -2 1v1415q0 2 2 2zM342 1418h14q2 0 2 -2v-1415q0 -1 -2 -1h-14q-2 0 -2 1v1415q1 2 2 2zM376 1418h14q2 0 2 -2v-1415
q0 -1 -2 -1h-14q-1 0 -1 1v1415q0 2 1 2zM411 1418h14q1 0 1 -2v-1415q0 -1 -1 -1h-14q-2 0 -2 1v1415q0 2 2 2zM444 1418h14q2 0 2 -2v-1415q0 -1 -2 -1h-14q-1 0 -1 1v1415q0 2 1 2zM479 1418h14q1 0 1 -2v-1415q0 -1 -1 -1h-14q-2 0 -2 1v1415q0 2 2 2zM513 1418h14
q2 0 2 -2v-1415q0 -1 -2 -1h-14q-2 0 -2 1v1415q1 2 2 2zM547 1418h13q2 0 2 -2v-1415q0 -1 -2 -1h-13q-2 0 -2 1v1415q0 2 2 2zM581 1418h14q1 0 1 -2v-1415q0 -1 -1 -1h-14q-2 0 -2 1v1415q0 2 2 2zM615 1418h14q2 0 2 -2v-1415q0 -1 -2 -1h-14q-1 0 -1 1v1415q0 2 1 2z
M649 1418h14q1 0 1 -2v-1415q0 -1 -1 -1h-14q-2 0 -2 1v1415q0 2 2 2zM683 1418h14q2 0 2 -2v-1415q0 -1 -2 -1h-14q-2 0 -2 1v1415q1 2 2 2zM717 1418h14q2 0 2 -2v-1415q0 -1 -2 -1h-14q-1 0 -1 1v1415q0 2 1 2zM751 1418h14q2 0 2 -2v-1415q0 -1 -2 -1h-14q-2 0 -2 1
v1415q1 2 2 2zM785 1418h14q2 0 2 -2v-1415q0 -1 -2 -1h-14q-1 0 -1 1v1415q0 2 1 2zM820 1418h14q1 0 1 -2v-1415q0 -1 -1 -1h-14q-2 0 -2 1v1415q0 2 2 2zM853 1418h22q141 0 272 -93q26 -21 66 -62q118 -137 118 -310q0 -183 -130 -323q-60 -57 -94 -74q-41 -26 -90 -43
q-77 -24 -133 -24v-1q46 -13 373 -112l1 -2v-14q0 -2 -2 -2l-387 117v-16q19 -5 389 -117v-17l-1 -1q-364 110 -388 117v-15q0 -2 44 -14l345 -105v-17q-33 9 -389 117v-16q1 0 388 -117l1 -2v-15q0 -1 -2 -1l-387 117v-17q19 -5 389 -117v-16l-1 -2q-364 111 -388 117v-14
q0 -2 44 -14l345 -105v-17q-33 9 -389 117v-17q1 0 388 -117l1 -1v-15q0 -2 -2 -2l-387 117v-16q19 -5 389 -117v-16l-1 -2q-364 111 -388 117v-15q0 -1 44 -14l345 -104v-17q-33 9 -389 117v-17q1 0 388 -117l1 -1v-15q0 -2 -2 -2l-387 117v-16q19 -5 389 -117v-16l-1 -2
q-364 110 -388 117v-15q0 -2 99 -30q5 -3 289 -88v-1h-51q-7 0 -261 77q-2 0 -76 23v-99q0 -1 -2 -1h-14q-1 0 -1 1v1415q0 2 1 2z" />
    <glyph glyph-name="s" unicode="s" horiz-adv-x="1030" 
d="M659 1411h15q1 -1 1 -2v-735q2 0 16 -4v739q0 2 1 2h15q2 -1 2 -2v-746q13 -4 16 -6v752q0 2 2 2h14q2 -1 2 -2v-758q2 0 16 -5v763q1 2 2 2h15q1 -1 1 -2v-980q-4 -53 -17 -99q-45 -145 -153 -231q-127 -99 -285 -99h-321q-1 0 -1 1v435q0 1 1 1h105q107 0 160 95
q16 33 16 48v521q4 15 16 45h2v-341q15 -5 16 -5v379q0 5 17 30h1v-414q0 -2 17 -7v443q0 5 17 23l1 -1v-471q13 -5 15 -5v496q15 17 18 17v-519q0 -2 16 -7v541q2 3 18 15v-562q11 -3 17 -6v580q0 1 16 11q2 0 2 -1v-596q2 0 15 -5v612q1 1 17 10q1 0 1 -2v-627
q15 -5 17 -5v641q0 3 17 9l1 -1v-654q0 -2 16 -7v668q1 2 17 8l1 -2v-681q13 -4 16 -4v690q0 2 17 6l1 -2v-700q0 -2 16 -7v711q0 2 17 5l1 -2v-720l16 -6v728q0 2 2 2zM795 1411h14q2 -1 2 -2v-505l-17 -28h-1v533q0 2 2 2zM829 1411h15q1 -1 1 -2v-469l-17 -15l-1 1v483
q1 2 2 2zM863 1411h15q2 -1 2 -2v-447q0 -1 -17 -10l-1 1v456q0 2 1 2zM897 1411h15q1 -1 1 -2v-435q0 -2 -18 -6v441q0 2 2 2zM931 1411h15q2 -1 2 -2v-430q0 -3 -18 -4v434q0 2 1 2zM966 1411h14q2 -1 2 -2v-430q0 -2 -2 -2h-14q-2 0 -2 2v430q0 2 2 2zM999 1411h15
q1 -1 1 -2v-430q0 -2 -1 -2h-15q-2 0 -2 2v430q1 2 2 2z" />
    <glyph glyph-name="t" unicode="t" horiz-adv-x="1328" 
d="M1313 1417v-1416q0 -1 -2 -1h-14q-2 0 -2 1v1069h-17v-1069q0 -1 -1 -1h-14q-2 0 -2 1v1069h-17v-1069q0 -1 -2 -1h-14q-1 0 -1 1v1069h-17v-1069q0 -1 -1 -1h-14q-2 0 -2 1v1069h-17v-1069q0 -1 -2 -1h-13q-2 0 -2 1v1069h-17v-1069q0 -1 -2 -1h-14q-1 0 -1 1v1069h-17
v-1069q0 -1 -1 -1h-14q-2 0 -2 1v1069h-17v-1069q0 -1 -2 -1h-14q-1 0 -1 1v1069h-18v-1069q0 -1 -1 -1h-14q-2 0 -2 1v1069h-16v-1069q0 -1 -2 -1h-14q-1 0 -1 1v1069h-17v-1069q0 -1 -2 -1h-14q-2 0 -2 1v1069h-17v-1069q0 -1 -1 -1h-14q-2 0 -2 1v1069h-16v-1069
q0 -1 -2 -1h-14q-1 0 -1 1v1069h-18v-1070q-426 0 -426 1v1069h-17v-1069q0 -1 -2 -1h-14q-1 0 -1 1v1069h-16v-1069q0 -1 -2 -1h-14q-2 0 -2 1v1069h-17v-1069q0 -1 -1 -1h-14q-2 0 -2 1v1069h-17v-1069q0 -1 -2 -1h-14q-1 0 -1 1v1069h-17v-1069q0 -1 -1 -1h-14q-2 0 -2 1
v1069h-17v-1069q0 -1 -2 -1h-14q-1 0 -1 1v1069h-17v-1069q0 -1 -2 -1h-14q-2 0 -2 1v1069h-16v-1069q0 -1 -2 -1h-14q-1 0 -1 1v1069h-17v-1069q0 -1 -2 -1h-14q-1 0 -1 1v1069h-18v-1069q0 -1 -1 -1h-14q-2 0 -2 1v1069h-16v-1069q0 -1 -2 -1h-14q-1 0 -1 1v1069h-18
v-1069q0 -1 -1 -1h-14q-2 0 -2 1v1069h-17v-1069q0 -1 -2 -1h-13q-2 0 -2 1v1416h1313z" />
    <glyph glyph-name="u" unicode="u" horiz-adv-x="1546" 
d="M2 1411h14q2 -1 2 -2v-1141h-2q-16 38 -16 44v1097q0 2 2 2zM36 1411h14q2 -1 2 -2v-1202h-1q-15 19 -17 27v1175q1 2 2 2zM69 1411h15q2 -1 2 -2v-1248h-1q-4 3 -17 20v1228q0 2 1 2zM104 1411h15q1 -1 1 -2v-1283q0 -2 -1 -2l-17 17v1268q0 2 2 2zM138 1411h14
q2 -1 2 -2v-1314h-1q-2 0 -16 13v1301q0 2 1 2zM172 1411h14q2 -1 2 -2v-1337l-1 -1q-16 9 -17 12v1326q0 2 2 2zM206 1411h15q1 -1 1 -2v-1356q0 -2 -1 -2q-14 7 -17 10v1348q1 2 2 2zM240 1411h14q2 -1 2 -2v-1372l-1 -2q-14 6 -16 8v1366q0 2 1 2zM274 1411h15q1 -1 1 -2
v-1386q-18 4 -18 6v1380q1 2 2 2zM308 1411h15q2 -1 2 -2v-1395q0 -1 -2 -1q-16 3 -16 6v1390q0 2 1 2zM343 1411h14q1 -1 1 -2v-1402l-1 -2q-16 3 -16 5v1399q0 2 2 2zM376 1411h15q2 -1 2 -2v-1406l-1 -2q-17 1 -17 4v1404q0 2 1 2zM411 1411h14q2 -1 2 -2v-1408
q0 -1 -2 -1h-14q-1 0 -2 2v1407q0 2 2 2zM1040 1411h489q2 -1 2 -2v-939q0 -176 -96 -294q-5 -12 -54 -59q-134 -117 -305 -117h-324q-2 0 -2 1v435q0 1 2 1h108q106 0 160 94q19 39 19 74v804q0 2 1 2zM443 566h2q0 -7 15 -41v-524q0 -1 -1 -1h-14q-2 0 -2 1v565zM478 501
q3 -5 17 -18v-482q0 -1 -2 -1h-15q-1 0 -1 1v498q0 2 1 2zM513 469l16 -11v-457q0 -1 -1 -1h-15q-2 0 -2 1v467q0 1 2 1zM546 450q16 -5 17 -7v-442q0 -1 -2 -1h-14q-1 0 -1 1v449zM580 441q17 -3 17 -5v-435q0 -1 -2 -1h-14q-2 0 -2 1v438zM615 437h15q1 0 1 -1v-435
q0 -1 -1 -1h-15q-2 0 -2 1v435q1 1 2 1zM649 437h14q2 0 2 -1v-435q0 -1 -2 -1h-14q-1 0 -1 1v435q0 1 1 1zM683 437h15q1 0 1 -1v-435q0 -1 -1 -1h-15q-2 0 -2 1v435q0 1 2 1zM717 437h15q2 0 2 -1v-435q0 -1 -2 -1h-15q-1 0 -1 1v435q0 1 1 1z" />
    <glyph glyph-name="v" unicode="v" horiz-adv-x="1886" 
d="M0 1416h869l66 -189q2 0 33.5 93.5t33.5 95.5h17q-2 -10 -74 -216q7 -21 7 -23q2 0 84 239h16q2 0 2 -1q-80 -229 -92 -265q7 -20 7 -22h1q1 4 100 288h16l2 -1q-102 -294 -109 -315q8 -20 8 -22q3 9 116 337l2 1h16q0 -2 -125 -364q7 -23 9 -23l133 387h16q2 0 2 -1
q-140 -403 -142 -413l6 -21h2l150 435h17l1 -1l-160 -462q4 -10 7 -22q4 7 169 484l1 1h17q-3 -11 -177 -512q7 -20 7 -23h1l185 535h16q2 0 2 -1l-194 -561q8 -20 8 -22l202 584h17l1 -1q-207 -598 -211 -610l8 -22h1l217 632l3 1h16q-3 -9 -224 -650q-3 -8 -3 -11
q6 -21 8 -21l234 681l2 1h16q1 0 1 -1q-243 -703 -245 -708q2 -3 7 -22h2l253 731h16l2 -1q-259 -747 -263 -757q7 -21 7 -22h2l269 779l2 1h16q-2 -11 -279 -808q8 -20 8 -22l288 830h16q2 0 2 -1q-290 -836 -297 -857q4 -7 8 -22h1q10 32 304 880h16l2 -1
q-313 -904 -313 -906q0 -1 7 -22h1q5 16 162 471t159 458h17q-2 -9 -164.5 -477.5t-164.5 -478.5q6 -21 8 -21l338 977h16q2 0 2 -1l-347 -1005q7 -19 7 -20h1l355 1026h16l2 -1l-365 -1053q8 -19 8 -22q1 0 373 1076h18q-3 -9 -381 -1103q0 -1 7 -22q2 0 390 1125h16
q2 0 2 -1l-398 -1152q5 -15 7 -22h1l406 1175h17l1 -1l-415 -1202q3 -8 7 -21h1l425 1224h16q-432 -1249 -432 -1251q7 -22 8 -22l440 1273h17q1 0 1 -1q-449 -1296 -449 -1300q6 -20 8 -21q0 2 458 1322h16l2 -1l-467 -1348q5 -15 7 -22q3 3 77 221q1 1 398 1149l2 1h16
q0 -2 -483 -1399q3 -8 5 -16l-1 -1h-867zM1363 0l490 1416h17q1 0 1 -1l-490 -1415h-18z" />
    <glyph glyph-name="w" unicode="w" horiz-adv-x="2856" 
d="M0 1418h868l55 -157h1q5 17 54 157h885q54 -153 55 -154l53 154h18l-62 -181q2 -3 7 -22q3 3 71 202l2 1h14q2 0 2 -2l-79 -228q7 -20 7 -22q2 1 88 252h17l1 -1l-96 -279q7 -20 7 -22h1q102 297 105 302h17q0 -2 -113 -330q7 -19 7 -21h1q7 21 121 350l2 1h15q1 0 1 -2
q-126 -362 -130 -377l8 -21q1 4 139 400h16l2 -1q-141 -405 -148 -427q7 -21 9 -21q153 446 155 449h17l-164 -476q4 -10 7 -22h2q169 493 172 498h16q1 0 1 -2l-181 -524q2 -3 7 -22h1l190 548h16l2 -1l-199 -574q7 -21 7 -22h1q205 593 207 597h17q0 -2 -215 -625
q8 -20 8 -22q4 11 113.5 329t111.5 318h15q2 0 2 -2q-231 -665 -233 -672l8 -22h1l240 696h16l2 -1q-246 -710 -249 -722q6 -20 6 -21h2l254 737q3 7 4 7h17q-261 -755 -266 -773l6 -20h2l274 792l2 1h14q2 0 2 -2l-284 -819q8 -20 8 -22q1 0 292 843h17l1 -1l-301 -870
q8 -19 8 -22h1q6 20 156 454t153 439h17l-317 -920q0 -1 7 -22h1q323 936 326 942h16q1 0 1 -2l-334 -968l7 -21h1q0 1 343 991h16l2 -1q-351 -1012 -352 -1018q7 -21 8 -21l360 1040h17q-364 -1055 -369 -1067q8 -19 8 -23q2 2 377 1089l2 1h15q1 0 1 -2l-386 -1114
q8 -21 8 -23q4 7 395 1139h16l2 -1l-403 -1165q5 -16 7 -22h1q409 1184 411 1188h17q-417 -1209 -419 -1216q3 -8 7 -22h1q6 19 428 1237l1 1h15q2 0 2 -2l-437 -1263q7 -21 8 -22l445 1287h16l2 -1l-454 -1313q6 -20 8 -22q460 1331 462 1336h18q-469 -1358 -472 -1363
q8 -20 8 -22h1l478 1383l3 2h14q2 0 2 -2l-488 -1411q1 -3 1 -4l-1 -1h-867l-66 183q-59 -176 -61 -176h-2q2 -5 2 -7h-869zM994 1414l-61 -180q7 -21 8 -21q60 175 62 179q-3 7 -7 22h-2zM1011 1365l-61 -180q6 -21 8 -21l61 179q-6 22 -8 22zM1028 1316q-60 -178 -62 -179
q4 -10 8 -23h1l62 180l-8 22h-1zM1046 1267q-6 -19 -63 -180q8 -19 8 -22q1 0 63 180q-2 3 -8 22zM1063 1218q-4 -13 -62 -180q7 -21 7 -22h1q60 175 62 179q-7 20 -7 23h-1zM1018 988q7 -20 7 -22h1q2 9 62 180q-6 15 -7 22q-2 0 -63 -180zM1096 1118l-61 -179l7 -22h1
l62 179v1l-7 21h-2zM1114 1070l-62 -180q7 -23 8 -23l62 180v2q-7 20 -8 21zM1131 1020q-62 -178 -62 -180l7 -21h2l61 180q-4 11 -7 21h-1zM1148 971q-2 -7 -62 -180q7 -19 7 -22q2 1 63 180q-7 21 -7 22h-1zM1103 742q7 -19 7 -23h1q0 2 62 180q-1 2 -7 22q-2 0 -63 -179z
M1120 692q1 -1 7 -22h1l62 180q-3 8 -7 22q-1 0 -63 -180zM1199 823l-62 -180l8 -22q56 162 62 181q-7 19 -7 21h-1zM1216 773l-62 -180q7 -21 9 -21l61 180q-6 20 -8 21zM1233 725l-62 -180q7 -19 7 -22h2l61 180q-1 1 -7 22h-1zM1250 676q-4 -15 -62 -180q7 -20 7 -22
q3 2 63 179q-7 21 -7 23h-1zM1267 626l-62 -180q6 -15 7 -22h1l62 180q-5 15 -7 22h-1zM1222 397q8 -21 8 -23q5 15 63 180q-8 21 -8 22q-3 -4 -63 -179zM1301 527l-62 -180q1 -1 8 -22h1l62 180q-8 19 -8 22h-1zM1318 478l-61 -180q6 -20 8 -21l61 180q-6 21 -8 21z
M1335 429l-61 -181q6 -18 6 -20h2l61 180l-7 21h-1zM1352 380q-7 -23 -62 -180q3 -7 8 -22q1 0 63 180q-1 1 -8 22h-1zM1370 331q0 -1 -63 -180q1 -1 8 -22q1 0 63 180q-8 19 -8 22zM1325 101q7 -20 7 -22h1l62 180q-7 20 -7 22q-2 -1 -63 -180zM1403 231l-61 -180
q4 -10 7 -21h1q61 179 61 181l-6 20h-2z" />
    <glyph glyph-name="x" unicode="x" horiz-adv-x="1378" 
d="M0 1418h475l-237 -686h-1zM511 1416l-242 -698h15q2 0 244 698h17l-241 -698h15l242 698h19l-243 -698h17l242 698h17l-241 -698h14q2 0 244 698h18l-242 -698h15l243 698h18l-243 -698h17l242 698h17l-241 -698h15q1 0 243 698h18l-242 -698h16l242 698h18l-242 -698h16
l242 698h18l-242 -698h15q1 0 243 698h18l-242 -698h16l242 698h18l-242 -698h16l242 698h18l-242 -698h15q2 0 244 698h17l-241 -698h15l242 698h19l-243 -698h17l242 698h17l-241 -698h14q2 0 244 698h18l-242 -698h15l243 698h18l-243 -698h17l242 698h17l-241 -698h14
q2 0 244 698h18l-242 -698h16l242 698h18l-242 -698h16l242 698h18l-242 -698h15q1 0 243 698h18l-242 -698h16l242 698h18l-242 -698h16l242 698h18l-242 -698h15q2 0 244 698h17l-243 -701l241 -714l-1 -1h-880l4 17q-6 16 -6 20h-2q-11 -37 -14 -37h-14q-2 0 -2 1l22 63
q-6 15 -7 22q-2 0 -16.5 -43t-15.5 -43h-16l-1 1l39 113q-7 21 -7 23h-1q-6 -20 -48 -137h-17l56 164v1q-7 20 -8 20q0 -2 -64 -184l-2 -1h-15q-1 0 -1 1q67 193 73 213q-7 19 -7 20h-2q-9 -30 -81 -234h-16l-2 1l91 261q-1 1 -7 22q-2 0 -100 -284h-17l107 313q-2 3 -7 21
h-1q-7 -20 -115 -333l-2 -1h-15q-1 0 -1 1q124 359 124 361q-7 21 -8 21q-1 -4 -133 -383h-16l-2 1q141 407 143 409q-1 2 -8 22h-1l-150 -432h-17l158 460q-7 21 -7 23h-1l-168 -483h-15q-2 0 -2 1q165 475 176 510q-4 10 -7 21h-1q0 -2 -184 -532h-16l-2 1
q187 540 193 559q-6 21 -8 21q-200 -579 -202 -581h-17q208 603 211 608q-8 21 -8 23q-1 0 -220 -631h-15q-2 0 -2 1l227 658q-4 10 -7 22h-1q-6 -21 -235 -681h-17l-1 1q232 670 244 708q-2 6 -2 8l1 1h5l242 698h18z" />
    <glyph glyph-name="y" unicode="y" horiz-adv-x="1379" 
d="M1 1418h474v-1l-236 -685h-2l-237 685zM511 1417l-245 -711l-2 -1h-17q0 2 245 712h19zM546 1417q-244 -706 -247 -712h-17l-2 1l246 711h20zM579 1417q-228 -664 -245 -711l-2 -1h-16q-1 0 -1 1l246 711h18zM613 1417l-245 -711l-2 -1h-17q0 2 245 712h19zM648 1417
q-244 -706 -247 -712h-17l-1 1l246 711h19zM681 1417q-228 -664 -245 -711l-2 -1h-15q-2 0 -2 1l246 711h18zM716 1417l-246 -711l-1 -1h-18q0 2 246 712h19zM750 1417q-244 -706 -246 -712h-18l-1 1l246 711h19zM784 1417q-229 -664 -246 -711l-2 -1h-15q-2 0 -2 1l246 711
h19zM818 1417l-246 -711l-1 -1h-17q0 2 245 712h19zM852 1417q-244 -706 -246 -712h-17l-2 1l246 711h19zM886 1417q-229 -664 -246 -711l-1 -1h-16q-2 0 -2 1l246 711h19zM920 1417l-245 -711l-2 -1h-17q0 2 245 712h19zM955 1417q-244 -706 -247 -712h-17l-2 1l246 711h20
zM988 1417q-228 -664 -246 -711l-1 -1h-16q-1 0 -1 1l246 711h18zM1022 1417l-245 -711l-2 -1h-17q0 2 245 712h19zM1057 1417q-244 -706 -247 -712h-17l-1 1l246 711h19zM1090 1417q-228 -664 -245 -711l-2 -1h-15q-2 0 -2 1l246 711h18zM1125 1417l-246 -711l-2 -1h-17
q0 2 245 712h20zM1159 1417q-244 -706 -246 -712h-18l-1 1l246 711h19zM1193 1417q-229 -664 -246 -711l-2 -1h-15q-2 0 -2 1l246 711h19zM1227 1417l-246 -711l-1 -1h-17q0 2 245 712h19zM1261 1417q-244 -706 -246 -712h-17l-2 1l246 711h19zM1295 1417
q-229 -664 -246 -711l-1 -1h-16q-2 0 -2 1l246 711h19zM1329 1417l-245 -711l-2 -1h-17q0 2 245 712h19zM1364 1417q-244 -706 -247 -712h-17l-2 1l246 711h20zM245 704h869q1 0 1 -2v-701q0 -1 -1 -1h-869q-1 0 -1 1v701q0 2 1 2z" />
    <glyph glyph-name="z" unicode="z" horiz-adv-x="1377" 
d="M5 1416h1353q1 0 1 -1q-246 -711 -249 -723h250q2 0 2 -1v-14q0 -2 -2 -2h-257l-6 -18h263q2 0 2 -1v-14q0 -2 -2 -2h-269q0 -1 -6 -17h275q2 0 2 -2v-14q0 -1 -2 -1h-280q-1 0 -7 -18h287q2 0 2 -2v-14q0 -1 -2 -1h-292q-2 0 -7 -18h299q2 0 2 -1v-14q0 -2 -2 -2h-305
l-6 -18h311q2 0 2 -1v-14q0 -2 -2 -2h-317q0 -3 -6 -17h323q2 0 2 -2v-14q0 -1 -2 -1h-328q-2 0 -7 -18h335q2 0 2 -2v-14q0 -1 -2 -1h-341l-6 -18h347q2 0 2 -1v-14q0 -2 -2 -2h-353q0 -2 -6 -18h359q2 0 2 -1v-14q0 -2 -2 -2h-364q-2 0 -7 -18h371q2 0 2 -2v-14
q0 -1 -2 -1h-376q-2 0 -7 -17h383q2 -1 2 -2v-14q0 -1 -2 -1h-389l-6 -18h395q2 -1 2 -2v-14q0 -2 -2 -2h-402q0 -2 -5 -17h407q2 0 2 -1v-14q0 -2 -2 -2h-412q-1 0 -8 -18h420q2 0 2 -2v-14q0 -1 -2 -1h-425q-6 -16 -6 -17h431q2 -1 2 -2v-14q0 -2 -2 -2h-438q0 -1 -5 -18
h443q2 0 2 -1v-14q0 -2 -2 -2h-450l-5 -17h455q2 0 2 -2v-13q0 -2 -2 -2h-461q-6 -16 -6 -18h467q2 0 2 -2v-14q0 -1 -2 -1h-474l-5 -17h479q2 -1 2 -2v-14q0 -2 -2 -2h-484q-2 -1 -7 -14h-868q-1 0 -1 1l258 748h-253q-2 0 -2 2v13q0 2 2 2h260q0 3 6 17h-266q-2 0 -2 2v14
q0 1 2 1h271q6 17 6 18h-277q-2 0 -2 2v14q0 2 2 2h284l5 17h-289q-2 0 -2 1v14q0 2 2 2h296q0 2 6 18h-302q-2 0 -2 2v13q0 2 2 2h306q3 0 7 17h-313q-2 0 -2 2v14q0 1 2 1h320l5 18h-325q-2 0 -2 2v14q0 2 2 2h332q0 1 6 17h-338q-2 0 -2 1v14q0 2 2 2h342q2 0 8 18h-350
q-2 0 -2 2v14q0 1 2 1h355q1 0 6 17h-361q-2 0 -2 2v14q0 1 2 1h368q0 2 6 18h-374q-2 0 -2 2v14q0 2 2 2h380q0 3 6 17h-386q-2 0 -2 1v14q0 2 2 2h392q5 16 5 18h-397q-2 0 -2 2v14q0 1 2 1h404q0 1 6 17h-410q-2 0 -2 2v14q0 2 2 2h416q0 2 6 18h-422q-2 0 -2 1v14
q0 2 2 2h427q2 0 6 17h-433q-2 0 -2 2v13q0 2 2 2h440l6 18h-446q-2 0 -2 2v14q0 1 2 1h452q0 2 6 17h-458q-2 0 -2 2v14q0 2 2 2h463q1 0 7 18h-470q-2 0 -2 1v14q0 2 2 2h475q2 0 6 17h-481q-2 0 -2 2v4q0 1 2 1z" />
    <glyph glyph-name="braceleft" unicode="{" horiz-adv-x="706" 
d="M689 0h-15q-1 0 -1 2v435q0 2 1 2h15q2 0 2 -2v-435q-1 -2 -2 -2zM655 0h-15q-2 0 -2 2v437q0 2 2 2q16 -2 16 -3v-436q0 -2 -1 -2zM620 0h-14q-2 0 -2 2v448l1 2q17 -7 17 -8v-442q0 -2 -2 -2zM587 0h-15q-2 0 -2 2v468h1q17 -11 17 -12v-456q0 -2 -1 -2zM552 0h-14
q-2 0 -2 2v500h1l17 -18v-482q0 -2 -2 -2zM518 0h-15q-1 0 -1 2v567h1q5 -19 17 -44v-523q-1 -2 -2 -2zM451 2q-17 1 -17 3v801h18v-803zM416 7q-17 2 -17 4v795h18v-798q0 -1 -1 -1zM383 13q-17 4 -17 6v787h18v-791zM348 23q-16 5 -16 7v776h18v-781q-1 -2 -2 -2zM315 36
h-1q-12 4 -17 8v762h18v-770zM281 52q-11 5 -17 10v744h18v-753zM246 71q-17 12 -17 13v722h18v-733q0 -2 -1 -2zM211 96q-16 13 -16 15v695h18v-709q0 -1 -2 -1zM178 124l-17 18v664h18v-680q0 -2 -1 -2zM145 161h-1q-17 18 -17 23v622h18v-645zM111 207h-1q-17 25 -17 30
v569h18v-599zM691 1918v-435q0 -2 -2 -2h-15q-1 0 -1 2v435q0 2 1 2h15q1 0 2 -2zM656 1918v-436q0 -1 -16 -3q-2 0 -2 2v437q0 2 2 2h15q1 0 1 -2zM622 1918v-442q0 -1 -17 -8l-1 2v448q0 2 2 2h14q2 0 2 -2zM588 1918v-456q0 -1 -17 -12h-1v468q0 2 2 2h15q1 0 1 -2z
M554 1918v-482l-17 -18h-1v500q0 2 2 2h14q2 0 2 -2zM520 1918v-523q-12 -25 -17 -44h-1v567q0 2 1 2h15q1 0 2 -2zM452 1917v-803h-18v801q0 2 17 3zM417 1912v-798h-18v795q0 2 17 4q1 0 1 -1zM384 1905v-791h-18v787q0 2 17 6zM350 1895v-781h-18v776q0 2 16 7q1 0 2 -2z
M315 1114h-18v762q5 4 17 8h1v-770zM282 1867v-753h-18v744q6 5 17 10zM247 1847v-733h-18v722q0 1 17 13q1 0 1 -2zM213 1823v-709h-18v695q0 2 16 15q2 0 2 -1zM179 1794v-680h-18v664l17 18q1 0 1 -2zM145 1114h-18v622q0 5 17 23h1v-645zM111 1114h-18v569q0 5 17 30h1
v-599zM77 268h-1l-17 45v491q0 1 -59 154l59 157v492q0 6 17 45h1v-1384zM486 0h-6q-5 0 -12 1v804l-60 153l60 160v799q0 2 17 4z" />
    <glyph glyph-name="bar" unicode="|" horiz-adv-x="411" 
d="M396 1416v-1416h-395q-1 0 -1 1l1 1415h395z" />
    <glyph glyph-name="braceright" unicode="}" horiz-adv-x="706" 
d="M0 2v435q0 2 2 2h15q1 0 1 -2v-435q0 -2 -1 -2h-15q-1 0 -2 2zM35 2v436q0 1 16 3q2 0 2 -2v-437q0 -2 -2 -2h-15q-1 0 -1 2zM69 2v442q0 1 17 8l1 -2v-448q0 -2 -2 -2h-14q-2 0 -2 2zM103 2v456q0 1 17 12h1v-468q0 -2 -2 -2h-15q-1 0 -1 2zM137 2v482l17 18h1v-500
q0 -2 -2 -2h-14q-2 0 -2 2zM171 2v523q12 25 17 44h1v-567q0 -2 -1 -2h-15q-1 0 -2 2zM239 3v803h18v-801q0 -2 -17 -3zM274 8v798h18v-795q0 -2 -17 -4q-1 0 -1 1zM307 15v791h18v-787q0 -2 -17 -6zM341 25v781h18v-776q0 -2 -16 -7q-1 0 -2 2zM376 806h18v-762
q-5 -4 -17 -8h-1v770zM409 53v753h18v-744q-6 -5 -17 -10zM444 73v733h18v-722q0 -1 -17 -13q-1 0 -1 2zM478 97v709h18v-695q0 -2 -16 -15q-2 0 -2 1zM512 126v680h18v-664l-17 -18q-1 0 -1 2zM546 806h18v-622q0 -5 -17 -23h-1v645zM580 806h18v-569q0 -5 -17 -30h-1v599z
M2 1920h15q1 0 1 -2v-435q0 -2 -1 -2h-15q-2 0 -2 2v435q1 2 2 2zM36 1920h15q2 0 2 -2v-437q0 -2 -2 -2q-16 2 -16 3v436q0 2 1 2zM71 1920h14q2 0 2 -2v-448l-1 -2q-17 7 -17 8v442q0 2 2 2zM104 1920h15q2 0 2 -2v-468h-1q-17 11 -17 12v456q0 2 1 2zM139 1920h14
q2 0 2 -2v-500h-1l-17 18v482q0 2 2 2zM173 1920h15q1 0 1 -2v-567h-1q-5 19 -17 44v523q1 2 2 2zM240 1918q17 -1 17 -3v-801h-18v803zM275 1913q17 -2 17 -4v-795h-18v798q0 1 1 1zM308 1907q17 -4 17 -6v-787h-18v791zM343 1897q16 -5 16 -7v-776h-18v781q1 2 2 2z
M376 1884h1q12 -4 17 -8v-762h-18v770zM410 1868q11 -5 17 -10v-744h-18v753zM445 1849q17 -12 17 -13v-722h-18v733q0 2 1 2zM480 1824q16 -13 16 -15v-695h-18v709q0 1 2 1zM513 1796l17 -18v-664h-18v680q0 2 1 2zM546 1759h1q17 -18 17 -23v-622h-18v645zM580 1713h1
q17 -25 17 -30v-569h-18v599zM614 1652h1q17 -39 17 -45v-492l59 -157q-59 -153 -59 -154v-491l-17 -45h-1v1384zM206 1921q17 -2 17 -4v-799l60 -160l-60 -153v-804q-7 -1 -12 -1h-6z" />
    <glyph glyph-name="asciitilde" unicode="~" horiz-adv-x="788" 
d="M160 1822q44 -82 47 -87q26 -35 66 -35q22 0 48 16q133 71 151 79q39 16 79 16q82 0 144 -58q22 -22 33 -41q45 -82 45 -84l-160 -173q-3 5 -46 85q-14 23 -44 33q-9 3 -23 3q-23 0 -53 -19q-128 -68 -144 -76q-41 -16 -76 -16h-10q-56 0 -111 35q-16 10 -36 32
q-24 26 -36 53q-33 59 -34 64z" />
    <glyph glyph-name="exclamdown" unicode="&#xa1;" horiz-adv-x="442" 
d="M425 0h-16v645h1q12 -29 17 -44v-599q-1 -2 -2 -2zM393 0h-18v706h1q14 -20 17 -29v-677zM359 0h-18v752q18 -19 18 -23v-729zM324 0h-18v787q0 2 2 2l16 -17v-772zM291 0h-18v816q0 1 1 1q17 -13 17 -14v-803zM256 0h-18v840q0 2 2 2l16 -12v-830zM222 0h-18v860l1 1
q17 -8 17 -10v-851zM189 0h-18v877q15 -5 18 -8v-869zM154 0h-18v888q0 2 2 2q16 -5 16 -7v-883zM120 0h-18v898l1 2q15 -3 17 -6v-894zM86 0h-18v905q0 1 2 1q16 -2 16 -4v-902zM52 0h-18v911h1q17 0 17 -3v-908zM18 0h-17q-1 0 -1 2v911l9 -1h7q2 0 2 -1v-911zM221 994
h-14q-90 0 -159 80q-43 60 -43 122v11q0 88 75 155q59 48 133 48q105 0 173 -91q36 -54 36 -119q0 -102 -91 -171q-57 -35 -110 -35z" />
    <glyph glyph-name="dieresis" unicode="&#xa8;" horiz-adv-x="625" 
d="M128 1710h10q45 0 86 -36q42 -42 42 -96v-2q0 -65 -57 -108q-36 -24 -77 -24q-66 0 -109 57q-23 36 -23 74v4q0 62 54 106q38 25 74 25zM472 1710h10q46 0 86 -36q42 -42 42 -96v-2q0 -65 -57 -108q-36 -24 -76 -24q-66 0 -110 57q-23 36 -23 74v4q0 62 55 106
q37 25 73 25z" />
    <glyph glyph-name="acute" unicode="&#xb4;" horiz-adv-x="596" 
d="M0 1455l129 343h452q-247 -343 -249 -343h-332z" />
    <glyph glyph-name="Agrave" unicode="&#xc0;" horiz-adv-x="1870" 
d="M1364 1418q491 -1416 491 -1417v-1h-868l-57 162h464l-79 214h-467l-2 1q4 10 4 14l-7 20h-1q-9 -28 -13 -35h-17q5 19 22 63q-4 10 -8 22q-1 0 -22 -61q-7 -24 -10 -24h-14q-2 0 -2 2l39 111q-3 3 -8 22h-1q-13 -40 -46 -135h-17l-1 1l55 161q-7 21 -7 22h-1
q-60 -175 -64 -184h-17q0 2 72 212q-7 20 -7 21h-1q-77 -226 -81 -233h-16q-1 0 -1 2q89 256 89 259q-7 21 -8 21q-3 -12 -98 -282h-16l-2 1q104 298 108 308q-2 3 -8 22h-1q-6 -20 -115 -331h-17l123 358q-7 21 -7 22q-3 -3 -132 -379l-2 -1h-15q-1 0 -1 2l140 406
q-7 20 -7 22h-1l-149 -430h-16l-2 1l158 456q-7 21 -7 23h-1l-166 -480h-17l174 507q-1 1 -7 22h-1q-182 -528 -184 -529h-15q-2 0 -2 2q188 540 192 554q-7 21 -8 21l-330 -953h-16q-2 0 -2 1q333 961 339 981q-7 19 -7 20h-2l-346 -1002h-17l-1 1l356 1029q-7 19 -7 22
q-2 0 -183 -526t-184 -526h-16q0 3 373 1079q-7 21 -7 22h-1q-381 -1101 -382 -1101h-16q-1 0 -1 1l390 1128q-6 15 -8 22l-399 -1151h-16l-2 1q400 1154 408 1178q-4 8 -8 21h-1q-3 -11 -414 -1199l-2 -1h-16q0 4 212 615t212 612q-7 22 -9 22q-5 -18 -432 -1249h-16
q-2 0 -2 1q438 1263 441 1276l-6 21h-2l-449 -1298h-16l-2 1l459 1325q-7 19 -7 22q-2 -1 -22 -61l-445 -1286l-2 -1h-16q0 2 475 1375q-8 20 -8 22q-20 -57 -484 -1397h-16q-2 0 -2 1l491 1417h873zM466 361h1q8 -21 8 -24q-4 -16 -116 -336l-1 -1h-17q0 2 125 361z
M485 314q0 -2 8 -24l-100 -290h-17l-1 1l109 313h1zM501 266h1q8 -20 9 -23l-84 -243h-16q-2 0 -2 1zM520 219l9 -25l-67 -193l-2 -1h-16q0 2 72 212q2 7 4 7zM536 171h1q2 0 4 -9h10q0 -3 -27 -81.5t-30 -80.5h-15l-2 1q55 156 59 170zM569 162h14q2 -1 2 -2l-56 -160h-16
q-2 0 -2 1l56 160zM602 162h16l1 -1l-55 -160l-2 -1h-16q53 158 56 162zM653 162q0 -3 -27 -81.5t-30 -80.5h-15l-2 1q53 153 57 161h17zM671 162h15q1 -1 1 -2l-55 -160h-17q-1 0 -1 1l55 160zM704 162h16l2 -1l-56 -160l-2 -1h-16q53 158 56 162zM755 162q0 -3 -27 -81.5
t-29 -80.5h-16l-1 1q53 153 56 161h17zM773 162h15q2 -1 2 -2l-56 -160h-16q-2 0 -2 1l56 160zM807 162h15l2 -1l-56 -160l-1 -1h-17q53 158 57 162zM857 162q0 -3 -27 -81.5t-29 -80.5h-16l-1 1q53 153 56 161h17zM875 162h15q2 -1 2 -2l-56 -160h-16q-2 0 -2 1l56 160z
M909 162h15l2 -1l-56 -160l-1 -1h-17q54 158 57 162zM812 1455q-2 0 -249 343h452l129 -343h-332z" />
    <glyph glyph-name="Aacute" unicode="&#xc1;" horiz-adv-x="1870" 
d="M1364 1418q491 -1416 491 -1417v-1h-868l-57 162h464l-79 214h-467l-2 1q4 10 4 14l-7 20h-1q-9 -28 -13 -35h-17q5 19 22 63q-4 10 -8 22q-1 0 -22 -61q-7 -24 -10 -24h-14q-2 0 -2 2l39 111q-3 3 -8 22h-1q-13 -40 -46 -135h-17l-1 1l55 161q-7 21 -7 22h-1
q-60 -175 -64 -184h-17q0 2 72 212q-7 20 -7 21h-1q-77 -226 -81 -233h-16q-1 0 -1 2q89 256 89 259q-7 21 -8 21q-3 -12 -98 -282h-16l-2 1q104 298 108 308q-2 3 -8 22h-1q-6 -20 -115 -331h-17l123 358q-7 21 -7 22q-3 -3 -132 -379l-2 -1h-15q-1 0 -1 2l140 406
q-7 20 -7 22h-1l-149 -430h-16l-2 1l158 456q-7 21 -7 23h-1l-166 -480h-17l174 507q-1 1 -7 22h-1q-182 -528 -184 -529h-15q-2 0 -2 2q188 540 192 554q-7 21 -8 21l-330 -953h-16q-2 0 -2 1q333 961 339 981q-7 19 -7 20h-2l-346 -1002h-17l-1 1l356 1029q-7 19 -7 22
q-2 0 -183 -526t-184 -526h-16q0 3 373 1079q-7 21 -7 22h-1q-381 -1101 -382 -1101h-16q-1 0 -1 1l390 1128q-6 15 -8 22l-399 -1151h-16l-2 1q400 1154 408 1178q-4 8 -8 21h-1q-3 -11 -414 -1199l-2 -1h-16q0 4 212 615t212 612q-7 22 -9 22q-5 -18 -432 -1249h-16
q-2 0 -2 1q438 1263 441 1276l-6 21h-2l-449 -1298h-16l-2 1l459 1325q-7 19 -7 22q-2 -1 -22 -61l-445 -1286l-2 -1h-16q0 2 475 1375q-8 20 -8 22q-20 -57 -484 -1397h-16q-2 0 -2 1l491 1417h873zM466 361h1q8 -21 8 -24q-4 -16 -116 -336l-1 -1h-17q0 2 125 361z
M485 314q0 -2 8 -24l-100 -290h-17l-1 1l109 313h1zM501 266h1q8 -20 9 -23l-84 -243h-16q-2 0 -2 1zM520 219l9 -25l-67 -193l-2 -1h-16q0 2 72 212q2 7 4 7zM536 171h1q2 0 4 -9h10q0 -3 -27 -81.5t-30 -80.5h-15l-2 1q55 156 59 170zM569 162h14q2 -1 2 -2l-56 -160h-16
q-2 0 -2 1l56 160zM602 162h16l1 -1l-55 -160l-2 -1h-16q53 158 56 162zM653 162q0 -3 -27 -81.5t-30 -80.5h-15l-2 1q53 153 57 161h17zM671 162h15q1 -1 1 -2l-55 -160h-17q-1 0 -1 1l55 160zM704 162h16l2 -1l-56 -160l-2 -1h-16q53 158 56 162zM755 162q0 -3 -27 -81.5
t-29 -80.5h-16l-1 1q53 153 56 161h17zM773 162h15q2 -1 2 -2l-56 -160h-16q-2 0 -2 1l56 160zM807 162h15l2 -1l-56 -160l-1 -1h-17q53 158 57 162zM857 162q0 -3 -27 -81.5t-29 -80.5h-16l-1 1q53 153 56 161h17zM875 162h15q2 -1 2 -2l-56 -160h-16q-2 0 -2 1l56 160z
M909 162h15l2 -1l-56 -160l-1 -1h-17q54 158 57 162zM831 1455l129 343h452q-247 -343 -249 -343h-332z" />
    <glyph glyph-name="Acircumflex" unicode="&#xc2;" horiz-adv-x="1870" 
d="M1364 1418q491 -1416 491 -1417v-1h-868l-57 162h464l-79 214h-467l-2 1q4 10 4 14l-7 20h-1q-9 -28 -13 -35h-17q5 19 22 63q-4 10 -8 22q-1 0 -22 -61q-7 -24 -10 -24h-14q-2 0 -2 2l39 111q-3 3 -8 22h-1q-13 -40 -46 -135h-17l-1 1l55 161q-7 21 -7 22h-1
q-60 -175 -64 -184h-17q0 2 72 212q-7 20 -7 21h-1q-77 -226 -81 -233h-16q-1 0 -1 2q89 256 89 259q-7 21 -8 21q-3 -12 -98 -282h-16l-2 1q104 298 108 308q-2 3 -8 22h-1q-6 -20 -115 -331h-17l123 358q-7 21 -7 22q-3 -3 -132 -379l-2 -1h-15q-1 0 -1 2l140 406
q-7 20 -7 22h-1l-149 -430h-16l-2 1l158 456q-7 21 -7 23h-1l-166 -480h-17l174 507q-1 1 -7 22h-1q-182 -528 -184 -529h-15q-2 0 -2 2q188 540 192 554q-7 21 -8 21l-330 -953h-16q-2 0 -2 1q333 961 339 981q-7 19 -7 20h-2l-346 -1002h-17l-1 1l356 1029q-7 19 -7 22
q-2 0 -183 -526t-184 -526h-16q0 3 373 1079q-7 21 -7 22h-1q-381 -1101 -382 -1101h-16q-1 0 -1 1l390 1128q-6 15 -8 22l-399 -1151h-16l-2 1q400 1154 408 1178q-4 8 -8 21h-1q-3 -11 -414 -1199l-2 -1h-16q0 4 212 615t212 612q-7 22 -9 22q-5 -18 -432 -1249h-16
q-2 0 -2 1q438 1263 441 1276l-6 21h-2l-449 -1298h-16l-2 1l459 1325q-7 19 -7 22q-2 -1 -22 -61l-445 -1286l-2 -1h-16q0 2 475 1375q-8 20 -8 22q-20 -57 -484 -1397h-16q-2 0 -2 1l491 1417h873zM466 361h1q8 -21 8 -24q-4 -16 -116 -336l-1 -1h-17q0 2 125 361z
M485 314q0 -2 8 -24l-100 -290h-17l-1 1l109 313h1zM501 266h1q8 -20 9 -23l-84 -243h-16q-2 0 -2 1zM520 219l9 -25l-67 -193l-2 -1h-16q0 2 72 212q2 7 4 7zM536 171h1q2 0 4 -9h10q0 -3 -27 -81.5t-30 -80.5h-15l-2 1q55 156 59 170zM569 162h14q2 -1 2 -2l-56 -160h-16
q-2 0 -2 1l56 160zM602 162h16l1 -1l-55 -160l-2 -1h-16q53 158 56 162zM653 162q0 -3 -27 -81.5t-30 -80.5h-15l-2 1q53 153 57 161h17zM671 162h15q1 -1 1 -2l-55 -160h-17q-1 0 -1 1l55 160zM704 162h16l2 -1l-56 -160l-2 -1h-16q53 158 56 162zM755 162q0 -3 -27 -81.5
t-29 -80.5h-16l-1 1q53 153 56 161h17zM773 162h15q2 -1 2 -2l-56 -160h-16q-2 0 -2 1l56 160zM807 162h15l2 -1l-56 -160l-1 -1h-17q53 158 57 162zM857 162q0 -3 -27 -81.5t-29 -80.5h-16l-1 1q53 153 56 161h17zM875 162h15q2 -1 2 -2l-56 -160h-16q-2 0 -2 1l56 160z
M909 162h15l2 -1l-56 -160l-1 -1h-17q54 158 57 162zM929 1799l259 -140v-227l-259 121l-252 -121v227z" />
    <glyph glyph-name="Atilde" unicode="&#xc3;" horiz-adv-x="1870" 
d="M1364 1418q491 -1416 491 -1417v-1h-868l-57 162h464l-79 214h-467l-2 1q4 10 4 14l-7 20h-1q-9 -28 -13 -35h-17q5 19 22 63q-4 10 -8 22q-1 0 -22 -61q-7 -24 -10 -24h-14q-2 0 -2 2l39 111q-3 3 -8 22h-1q-13 -40 -46 -135h-17l-1 1l55 161q-7 21 -7 22h-1
q-60 -175 -64 -184h-17q0 2 72 212q-7 20 -7 21h-1q-77 -226 -81 -233h-16q-1 0 -1 2q89 256 89 259q-7 21 -8 21q-3 -12 -98 -282h-16l-2 1q104 298 108 308q-2 3 -8 22h-1q-6 -20 -115 -331h-17l123 358q-7 21 -7 22q-3 -3 -132 -379l-2 -1h-15q-1 0 -1 2l140 406
q-7 20 -7 22h-1l-149 -430h-16l-2 1l158 456q-7 21 -7 23h-1l-166 -480h-17l174 507q-1 1 -7 22h-1q-182 -528 -184 -529h-15q-2 0 -2 2q188 540 192 554q-7 21 -8 21l-330 -953h-16q-2 0 -2 1q333 961 339 981q-7 19 -7 20h-2l-346 -1002h-17l-1 1l356 1029q-7 19 -7 22
q-2 0 -183 -526t-184 -526h-16q0 3 373 1079q-7 21 -7 22h-1q-381 -1101 -382 -1101h-16q-1 0 -1 1l390 1128q-6 15 -8 22l-399 -1151h-16l-2 1q400 1154 408 1178q-4 8 -8 21h-1q-3 -11 -414 -1199l-2 -1h-16q0 4 212 615t212 612q-7 22 -9 22q-5 -18 -432 -1249h-16
q-2 0 -2 1q438 1263 441 1276l-6 21h-2l-449 -1298h-16l-2 1l459 1325q-7 19 -7 22q-2 -1 -22 -61l-445 -1286l-2 -1h-16q0 2 475 1375q-8 20 -8 22q-20 -57 -484 -1397h-16q-2 0 -2 1l491 1417h873zM466 361h1q8 -21 8 -24q-4 -16 -116 -336l-1 -1h-17q0 2 125 361z
M485 314q0 -2 8 -24l-100 -290h-17l-1 1l109 313h1zM501 266h1q8 -20 9 -23l-84 -243h-16q-2 0 -2 1zM520 219l9 -25l-67 -193l-2 -1h-16q0 2 72 212q2 7 4 7zM536 171h1q2 0 4 -9h10q0 -3 -27 -81.5t-30 -80.5h-15l-2 1q55 156 59 170zM569 162h14q2 -1 2 -2l-56 -160h-16
q-2 0 -2 1l56 160zM602 162h16l1 -1l-55 -160l-2 -1h-16q53 158 56 162zM653 162q0 -3 -27 -81.5t-30 -80.5h-15l-2 1q53 153 57 161h17zM671 162h15q1 -1 1 -2l-55 -160h-17q-1 0 -1 1l55 160zM704 162h16l2 -1l-56 -160l-2 -1h-16q53 158 56 162zM755 162q0 -3 -27 -81.5
t-29 -80.5h-16l-1 1q53 153 56 161h17zM773 162h15q2 -1 2 -2l-56 -160h-16q-2 0 -2 1l56 160zM807 162h15l2 -1l-56 -160l-1 -1h-17q53 158 57 162zM857 162q0 -3 -27 -81.5t-29 -80.5h-16l-1 1q53 153 56 161h17zM875 162h15q2 -1 2 -2l-56 -160h-16q-2 0 -2 1l56 160z
M909 162h15l2 -1l-56 -160l-1 -1h-17q54 158 57 162zM705 1822q44 -82 47 -87q26 -35 66 -35q22 0 48 16q133 71 151 79q39 16 79 16q82 0 144 -58q22 -22 33 -41q45 -82 45 -84l-160 -173q-3 5 -46 85q-14 23 -44 33q-9 3 -23 3q-23 0 -53 -19q-128 -68 -144 -76
q-41 -16 -76 -16h-10q-56 0 -111 35q-16 10 -36 32q-24 26 -36 53q-33 59 -34 64z" />
    <glyph glyph-name="Adieresis" unicode="&#xc4;" horiz-adv-x="1870" 
d="M1364 1418q491 -1416 491 -1417v-1h-868l-57 162h464l-79 214h-467l-2 1q4 10 4 14l-7 20h-1q-9 -28 -13 -35h-17q5 19 22 63q-4 10 -8 22q-1 0 -22 -61q-7 -24 -10 -24h-14q-2 0 -2 2l39 111q-3 3 -8 22h-1q-13 -40 -46 -135h-17l-1 1l55 161q-7 21 -7 22h-1
q-60 -175 -64 -184h-17q0 2 72 212q-7 20 -7 21h-1q-77 -226 -81 -233h-16q-1 0 -1 2q89 256 89 259q-7 21 -8 21q-3 -12 -98 -282h-16l-2 1q104 298 108 308q-2 3 -8 22h-1q-6 -20 -115 -331h-17l123 358q-7 21 -7 22q-3 -3 -132 -379l-2 -1h-15q-1 0 -1 2l140 406
q-7 20 -7 22h-1l-149 -430h-16l-2 1l158 456q-7 21 -7 23h-1l-166 -480h-17l174 507q-1 1 -7 22h-1q-182 -528 -184 -529h-15q-2 0 -2 2q188 540 192 554q-7 21 -8 21l-330 -953h-16q-2 0 -2 1q333 961 339 981q-7 19 -7 20h-2l-346 -1002h-17l-1 1l356 1029q-7 19 -7 22
q-2 0 -183 -526t-184 -526h-16q0 3 373 1079q-7 21 -7 22h-1q-381 -1101 -382 -1101h-16q-1 0 -1 1l390 1128q-6 15 -8 22l-399 -1151h-16l-2 1q400 1154 408 1178q-4 8 -8 21h-1q-3 -11 -414 -1199l-2 -1h-16q0 4 212 615t212 612q-7 22 -9 22q-5 -18 -432 -1249h-16
q-2 0 -2 1q438 1263 441 1276l-6 21h-2l-449 -1298h-16l-2 1l459 1325q-7 19 -7 22q-2 -1 -22 -61l-445 -1286l-2 -1h-16q0 2 475 1375q-8 20 -8 22q-20 -57 -484 -1397h-16q-2 0 -2 1l491 1417h873zM466 361h1q8 -21 8 -24q-4 -16 -116 -336l-1 -1h-17q0 2 125 361z
M485 314q0 -2 8 -24l-100 -290h-17l-1 1l109 313h1zM501 266h1q8 -20 9 -23l-84 -243h-16q-2 0 -2 1zM520 219l9 -25l-67 -193l-2 -1h-16q0 2 72 212q2 7 4 7zM536 171h1q2 0 4 -9h10q0 -3 -27 -81.5t-30 -80.5h-15l-2 1q55 156 59 170zM569 162h14q2 -1 2 -2l-56 -160h-16
q-2 0 -2 1l56 160zM602 162h16l1 -1l-55 -160l-2 -1h-16q53 158 56 162zM653 162q0 -3 -27 -81.5t-30 -80.5h-15l-2 1q53 153 57 161h17zM671 162h15q1 -1 1 -2l-55 -160h-17q-1 0 -1 1l55 160zM704 162h16l2 -1l-56 -160l-2 -1h-16q53 158 56 162zM755 162q0 -3 -27 -81.5
t-29 -80.5h-16l-1 1q53 153 56 161h17zM773 162h15q2 -1 2 -2l-56 -160h-16q-2 0 -2 1l56 160zM807 162h15l2 -1l-56 -160l-1 -1h-17q53 158 57 162zM857 162q0 -3 -27 -81.5t-29 -80.5h-16l-1 1q53 153 56 161h17zM875 162h15q2 -1 2 -2l-56 -160h-16q-2 0 -2 1l56 160z
M909 162h15l2 -1l-56 -160l-1 -1h-17q54 158 57 162zM783 1710h10q45 0 86 -36q42 -42 42 -96v-2q0 -65 -57 -108q-36 -24 -77 -24q-66 0 -109 57q-23 36 -23 74v4q0 62 54 106q38 25 74 25zM1127 1710h10q46 0 86 -36q42 -42 42 -96v-2q0 -65 -57 -108q-36 -24 -76 -24
q-66 0 -110 57q-23 36 -23 74v4q0 62 55 106q37 25 73 25z" />
    <glyph glyph-name="Aring" unicode="&#xc5;" horiz-adv-x="1870" 
d="M1364 1418q491 -1416 491 -1417v-1h-868l-57 162h464l-79 214h-467l-2 1q4 10 4 14l-7 20h-1q-9 -28 -13 -35h-17q5 19 22 63q-4 10 -8 22q-1 0 -22 -61q-7 -24 -10 -24h-14q-2 0 -2 2l39 111q-3 3 -8 22h-1q-13 -40 -46 -135h-17l-1 1l55 161q-7 21 -7 22h-1
q-60 -175 -64 -184h-17q0 2 72 212q-7 20 -7 21h-1q-77 -226 -81 -233h-16q-1 0 -1 2q89 256 89 259q-7 21 -8 21q-3 -12 -98 -282h-16l-2 1q104 298 108 308q-2 3 -8 22h-1q-6 -20 -115 -331h-17l123 358q-7 21 -7 22q-3 -3 -132 -379l-2 -1h-15q-1 0 -1 2l140 406
q-7 20 -7 22h-1l-149 -430h-16l-2 1l158 456q-7 21 -7 23h-1l-166 -480h-17l174 507q-1 1 -7 22h-1q-182 -528 -184 -529h-15q-2 0 -2 2q188 540 192 554q-7 21 -8 21l-330 -953h-16q-2 0 -2 1q333 961 339 981q-7 19 -7 20h-2l-346 -1002h-17l-1 1l356 1029q-7 19 -7 22
q-2 0 -183 -526t-184 -526h-16q0 3 373 1079q-7 21 -7 22h-1q-381 -1101 -382 -1101h-16q-1 0 -1 1l390 1128q-6 15 -8 22l-399 -1151h-16l-2 1q400 1154 408 1178q-4 8 -8 21h-1q-3 -11 -414 -1199l-2 -1h-16q0 4 212 615t212 612q-7 22 -9 22q-5 -18 -432 -1249h-16
q-2 0 -2 1q438 1263 441 1276l-6 21h-2l-449 -1298h-16l-2 1l459 1325q-7 19 -7 22q-2 -1 -22 -61l-445 -1286l-2 -1h-16q0 2 475 1375q-8 20 -8 22q-20 -57 -484 -1397h-16q-2 0 -2 1l491 1417h873zM466 361h1q8 -21 8 -24q-4 -16 -116 -336l-1 -1h-17q0 2 125 361z
M485 314q0 -2 8 -24l-100 -290h-17l-1 1l109 313h1zM501 266h1q8 -20 9 -23l-84 -243h-16q-2 0 -2 1zM520 219l9 -25l-67 -193l-2 -1h-16q0 2 72 212q2 7 4 7zM536 171h1q2 0 4 -9h10q0 -3 -27 -81.5t-30 -80.5h-15l-2 1q55 156 59 170zM569 162h14q2 -1 2 -2l-56 -160h-16
q-2 0 -2 1l56 160zM602 162h16l1 -1l-55 -160l-2 -1h-16q53 158 56 162zM653 162q0 -3 -27 -81.5t-30 -80.5h-15l-2 1q53 153 57 161h17zM671 162h15q1 -1 1 -2l-55 -160h-17q-1 0 -1 1l55 160zM704 162h16l2 -1l-56 -160l-2 -1h-16q53 158 56 162zM755 162q0 -3 -27 -81.5
t-29 -80.5h-16l-1 1q53 153 56 161h17zM773 162h15q2 -1 2 -2l-56 -160h-16q-2 0 -2 1l56 160zM807 162h15l2 -1l-56 -160l-1 -1h-17q53 158 57 162zM857 162q0 -3 -27 -81.5t-29 -80.5h-16l-1 1q53 153 56 161h17zM875 162h15q2 -1 2 -2l-56 -160h-16q-2 0 -2 1l56 160z
M909 162h15l2 -1l-56 -160l-1 -1h-17q54 158 57 162zM1235 2620h1v-27l-197 -262v-23l195 259h2v-28l-197 -261v-24l196 259h1v-27l-197 -262v-23q3 4 196 259h1v-26q0 -4 -39 -52l-158 -211v-24l195 259h2v-27l-197 -261v-24l196 259h1v-27l-188 -250v-1q184 -138 188 -142
v-20h-1l-196 148v-18l197 -150v-21h-1q-37 27 -196 148v-17q2 -4 48 -37q135 -103 149 -114v-19q0 -1 -2 -1q-25 20 -195 148v-19q11 -7 197 -149v-20h-1q-14 9 -196 148v-18q24 -20 169 -129q26 -19 28 -22v-19q0 -1 -2 -1q-3 3 -195 148v-19q33 -24 197 -149v-20h-1
l-196 148v-165q0 -2 -46 -18q-21 -8 -184 -69l-1 2v150h-1q-8 -12 -196 -260h-1v25q0 4 39 53q26 36 159 211v24q-4 -4 -196 -259h-2v27q180 238 198 262v24h-1q-22 -31 -196 -260h-1v27l198 262v24q-184 -242 -196 -260h-2v28l198 262v23l-197 -259h-1v27l198 263v23h-1
q-5 -8 -196 -260h-1v26q0 3 31 43q155 205 155 206v1q-163 122 -186 141v19q0 2 2 2q0 -1 196 -149v18l-198 150v21h1l197 -148v17q-19 15 -164 124q-33 25 -34 27v19q0 2 2 2q8 -8 196 -149v18l-198 150v21h1l196 -148h1v17q-5 5 -189 143q-9 7 -9 8v20h2l196 -148v19
q-195 145 -198 149v21h1l197 -149v191q1 2 146 55q82 31 84 31l1 -1v-171z" />
    <glyph glyph-name="AE" unicode="&#xc6;" horiz-adv-x="3244" 
d="M1364 1418q491 -1416 491 -1417v-1h-868l-57 162h464l-79 214h-467l-2 1q4 10 4 14l-7 20h-1q-9 -28 -13 -35h-17q5 19 22 63q-4 10 -8 22q-1 0 -22 -61q-7 -24 -10 -24h-14q-2 0 -2 2l39 111q-3 3 -8 22h-1q-13 -40 -46 -135h-17l-1 1l55 161q-7 21 -7 22h-1
q-60 -175 -64 -184h-17q0 2 72 212q-7 20 -7 21h-1q-77 -226 -81 -233h-16q-1 0 -1 2q89 256 89 259q-7 21 -8 21q-3 -12 -98 -282h-16l-2 1q104 298 108 308q-2 3 -8 22h-1q-6 -20 -115 -331h-17l123 358q-7 21 -7 22q-3 -3 -132 -379l-2 -1h-15q-1 0 -1 2l140 406
q-7 20 -7 22h-1l-149 -430h-16l-2 1l158 456q-7 21 -7 23h-1l-166 -480h-17l174 507q-1 1 -7 22h-1q-182 -528 -184 -529h-15q-2 0 -2 2q188 540 192 554q-7 21 -8 21l-330 -953h-16q-2 0 -2 1q333 961 339 981q-7 19 -7 20h-2l-346 -1002h-17l-1 1l356 1029q-7 19 -7 22
q-2 0 -183 -526t-184 -526h-16q0 3 373 1079q-7 21 -7 22h-1q-381 -1101 -382 -1101h-16q-1 0 -1 1l390 1128q-6 15 -8 22l-399 -1151h-16l-2 1q400 1154 408 1178q-4 8 -8 21h-1q-3 -11 -414 -1199l-2 -1h-16q0 4 212 615t212 612q-7 22 -9 22q-5 -18 -432 -1249h-16
q-2 0 -2 1q438 1263 441 1276l-6 21h-2l-449 -1298h-16l-2 1l459 1325q-7 19 -7 22q-2 -1 -22 -61l-445 -1286l-2 -1h-16q0 2 475 1375q-8 20 -8 22q-20 -57 -484 -1397h-16q-2 0 -2 1l491 1417h873zM466 361h1q8 -21 8 -24q-4 -16 -116 -336l-1 -1h-17q0 2 125 361z
M485 314q0 -2 8 -24l-100 -290h-17l-1 1l109 313h1zM501 266h1q8 -20 9 -23l-84 -243h-16q-2 0 -2 1zM520 219l9 -25l-67 -193l-2 -1h-16q0 2 72 212q2 7 4 7zM536 171h1q2 0 4 -9h10q0 -3 -27 -81.5t-30 -80.5h-15l-2 1q55 156 59 170zM569 162h14q2 -1 2 -2l-56 -160h-16
q-2 0 -2 1l56 160zM602 162h16l1 -1l-55 -160l-2 -1h-16q53 158 56 162zM653 162q0 -3 -27 -81.5t-30 -80.5h-15l-2 1q53 153 57 161h17zM671 162h15q1 -1 1 -2l-55 -160h-17q-1 0 -1 1l55 160zM704 162h16l2 -1l-56 -160l-2 -1h-16q53 158 56 162zM755 162q0 -3 -27 -81.5
t-29 -80.5h-16l-1 1q53 153 56 161h17zM773 162h15q2 -1 2 -2l-56 -160h-16q-2 0 -2 1l56 160zM807 162h15l2 -1l-56 -160l-1 -1h-17q53 158 57 162zM857 162q0 -3 -27 -81.5t-29 -80.5h-16l-1 1q53 153 56 161h17zM875 162h15q2 -1 2 -2l-56 -160h-16q-2 0 -2 1l56 160z
M909 162h15l2 -1l-56 -160l-1 -1h-17q54 158 57 162zM1911 1418h14q1 0 1 -2v-1415q0 -1 -1 -1h-14q-2 0 -2 1v1415q0 2 2 2zM1945 1418h14q2 0 2 -2v-1415q0 -1 -2 -1h-14q-2 0 -2 1v1415q1 2 2 2zM1979 1418h13q2 0 2 -2v-1415q0 -1 -2 -1h-13q-2 0 -2 1v1415q0 2 2 2z
M2013 1418h14q1 0 1 -2v-1415q0 -1 -1 -1h-14q-2 0 -2 1v1415q0 2 2 2zM2047 1418h14q2 0 2 -2v-1415q0 -1 -2 -1h-14q-1 0 -1 1v1415q0 2 1 2zM2081 1418h14q1 0 1 -2v-1415q0 -1 -1 -1h-14q-2 0 -2 1v1415q0 2 2 2zM2115 1418h14q2 0 2 -2v-1415q0 -1 -2 -1h-14q-2 0 -2 1
v1415q1 2 2 2zM2149 1418h14q2 0 2 -2v-1415q0 -1 -2 -1h-14q-1 0 -1 1v1415q0 2 1 2zM2183 1418h14q2 0 2 -2v-1415q0 -1 -2 -1h-14q-2 0 -2 1v1415q1 2 2 2zM2217 1418h14q2 0 2 -2v-1415q0 -1 -2 -1h-14q-1 0 -1 1v1415q0 2 1 2zM2252 1418h14q1 0 1 -2v-1415q0 -1 -1 -1
h-14q-2 0 -2 1v1415q0 2 2 2zM2285 1418h14q2 0 2 -2v-1415q0 -1 -2 -1h-14q-1 0 -1 1v1415q0 2 1 2zM2320 1418h13q2 0 2 -2v-1415q0 -1 -2 -1h-13q-2 0 -2 1v1415q0 2 2 2zM2354 1418h14q1 0 1 -2v-1415q0 -1 -1 -1h-14q-2 0 -2 1v1415q0 2 2 2zM2387 1418h14q2 0 2 -2
v-1415q0 -1 -2 -1h-14q-1 0 -1 1v1415q0 2 1 2zM2422 1418h14q1 0 1 -2v-1415q0 -1 -1 -1h-14q-2 0 -2 1v1415q0 2 2 2zM3229 1416v-347h-451v-174h451v-348h-451v-202h451v-345h-773q-1 0 -1 1v1415h774zM2472 1069v-174h16v174h-16zM2505 1069v-174h17v174h-17zM2540 1069
v-174h17v174h-17zM2574 1069v-174h16v174h-16zM2607 1069v-174h18v174h-18zM2642 1069v-174h17v174h-17zM2676 1069v-174h17v174h-17zM2710 1069v-174h17v174h-17zM2744 1069v-174h17v174h-17zM2472 547v-202h16v202h-16zM2505 547v-202h17v202h-17zM2540 547v-202h17v202
h-17zM2574 547v-202h16v202h-16zM2607 547v-202h18v202h-18zM2642 547v-202h17v202h-17zM2676 547v-202h17v202h-17zM2710 547v-202h17v202h-17zM2744 547v-202h17v202h-17z" />
    <glyph glyph-name="Egrave" unicode="&#xc8;" horiz-adv-x="1335" 
d="M2 1418h14q1 0 1 -2v-1415q0 -1 -1 -1h-14q-2 0 -2 1v1415q0 2 2 2zM36 1418h14q2 0 2 -2v-1415q0 -1 -2 -1h-14q-2 0 -2 1v1415q1 2 2 2zM70 1418h13q2 0 2 -2v-1415q0 -1 -2 -1h-13q-2 0 -2 1v1415q0 2 2 2zM104 1418h14q1 0 1 -2v-1415q0 -1 -1 -1h-14q-2 0 -2 1v1415
q0 2 2 2zM138 1418h14q2 0 2 -2v-1415q0 -1 -2 -1h-14q-1 0 -1 1v1415q0 2 1 2zM172 1418h14q1 0 1 -2v-1415q0 -1 -1 -1h-14q-2 0 -2 1v1415q0 2 2 2zM206 1418h14q2 0 2 -2v-1415q0 -1 -2 -1h-14q-2 0 -2 1v1415q1 2 2 2zM240 1418h14q2 0 2 -2v-1415q0 -1 -2 -1h-14
q-1 0 -1 1v1415q0 2 1 2zM274 1418h14q2 0 2 -2v-1415q0 -1 -2 -1h-14q-2 0 -2 1v1415q1 2 2 2zM308 1418h14q2 0 2 -2v-1415q0 -1 -2 -1h-14q-1 0 -1 1v1415q0 2 1 2zM343 1418h14q1 0 1 -2v-1415q0 -1 -1 -1h-14q-2 0 -2 1v1415q0 2 2 2zM376 1418h14q2 0 2 -2v-1415
q0 -1 -2 -1h-14q-1 0 -1 1v1415q0 2 1 2zM411 1418h13q2 0 2 -2v-1415q0 -1 -2 -1h-13q-2 0 -2 1v1415q0 2 2 2zM445 1418h14q1 0 1 -2v-1415q0 -1 -1 -1h-14q-2 0 -2 1v1415q0 2 2 2zM478 1418h14q2 0 2 -2v-1415q0 -1 -2 -1h-14q-1 0 -1 1v1415q0 2 1 2zM513 1418h14
q1 0 1 -2v-1415q0 -1 -1 -1h-14q-2 0 -2 1v1415q0 2 2 2zM1320 1416v-347h-451v-174h451v-348h-451v-202h451v-345h-773q-1 0 -1 1v1415h774zM563 1069v-174h16v174h-16zM596 1069v-174h17v174h-17zM631 1069v-174h17v174h-17zM665 1069v-174h16v174h-16zM698 1069v-174h18
v174h-18zM733 1069v-174h17v174h-17zM767 1069v-174h17v174h-17zM801 1069v-174h17v174h-17zM835 1069v-174h17v174h-17zM563 547v-202h16v202h-16zM596 547v-202h17v202h-17zM631 547v-202h17v202h-17zM665 547v-202h16v202h-16zM698 547v-202h18v202h-18zM733 547v-202h17
v202h-17zM767 547v-202h17v202h-17zM801 547v-202h17v202h-17zM835 547v-202h17v202h-17zM546 1455q-2 0 -249 343h452l129 -343h-332z" />
    <glyph glyph-name="Eacute" unicode="&#xc9;" horiz-adv-x="1335" 
d="M2 1418h14q1 0 1 -2v-1415q0 -1 -1 -1h-14q-2 0 -2 1v1415q0 2 2 2zM36 1418h14q2 0 2 -2v-1415q0 -1 -2 -1h-14q-2 0 -2 1v1415q1 2 2 2zM70 1418h13q2 0 2 -2v-1415q0 -1 -2 -1h-13q-2 0 -2 1v1415q0 2 2 2zM104 1418h14q1 0 1 -2v-1415q0 -1 -1 -1h-14q-2 0 -2 1v1415
q0 2 2 2zM138 1418h14q2 0 2 -2v-1415q0 -1 -2 -1h-14q-1 0 -1 1v1415q0 2 1 2zM172 1418h14q1 0 1 -2v-1415q0 -1 -1 -1h-14q-2 0 -2 1v1415q0 2 2 2zM206 1418h14q2 0 2 -2v-1415q0 -1 -2 -1h-14q-2 0 -2 1v1415q1 2 2 2zM240 1418h14q2 0 2 -2v-1415q0 -1 -2 -1h-14
q-1 0 -1 1v1415q0 2 1 2zM274 1418h14q2 0 2 -2v-1415q0 -1 -2 -1h-14q-2 0 -2 1v1415q1 2 2 2zM308 1418h14q2 0 2 -2v-1415q0 -1 -2 -1h-14q-1 0 -1 1v1415q0 2 1 2zM343 1418h14q1 0 1 -2v-1415q0 -1 -1 -1h-14q-2 0 -2 1v1415q0 2 2 2zM376 1418h14q2 0 2 -2v-1415
q0 -1 -2 -1h-14q-1 0 -1 1v1415q0 2 1 2zM411 1418h13q2 0 2 -2v-1415q0 -1 -2 -1h-13q-2 0 -2 1v1415q0 2 2 2zM445 1418h14q1 0 1 -2v-1415q0 -1 -1 -1h-14q-2 0 -2 1v1415q0 2 2 2zM478 1418h14q2 0 2 -2v-1415q0 -1 -2 -1h-14q-1 0 -1 1v1415q0 2 1 2zM513 1418h14
q1 0 1 -2v-1415q0 -1 -1 -1h-14q-2 0 -2 1v1415q0 2 2 2zM1320 1416v-347h-451v-174h451v-348h-451v-202h451v-345h-773q-1 0 -1 1v1415h774zM563 1069v-174h16v174h-16zM596 1069v-174h17v174h-17zM631 1069v-174h17v174h-17zM665 1069v-174h16v174h-16zM698 1069v-174h18
v174h-18zM733 1069v-174h17v174h-17zM767 1069v-174h17v174h-17zM801 1069v-174h17v174h-17zM835 1069v-174h17v174h-17zM563 547v-202h16v202h-16zM596 547v-202h17v202h-17zM631 547v-202h17v202h-17zM665 547v-202h16v202h-16zM698 547v-202h18v202h-18zM733 547v-202h17
v202h-17zM767 547v-202h17v202h-17zM801 547v-202h17v202h-17zM835 547v-202h17v202h-17zM547 1455l129 343h452q-247 -343 -249 -343h-332z" />
    <glyph glyph-name="Ecircumflex" unicode="&#xca;" horiz-adv-x="1335" 
d="M2 1418h14q1 0 1 -2v-1415q0 -1 -1 -1h-14q-2 0 -2 1v1415q0 2 2 2zM36 1418h14q2 0 2 -2v-1415q0 -1 -2 -1h-14q-2 0 -2 1v1415q1 2 2 2zM70 1418h13q2 0 2 -2v-1415q0 -1 -2 -1h-13q-2 0 -2 1v1415q0 2 2 2zM104 1418h14q1 0 1 -2v-1415q0 -1 -1 -1h-14q-2 0 -2 1v1415
q0 2 2 2zM138 1418h14q2 0 2 -2v-1415q0 -1 -2 -1h-14q-1 0 -1 1v1415q0 2 1 2zM172 1418h14q1 0 1 -2v-1415q0 -1 -1 -1h-14q-2 0 -2 1v1415q0 2 2 2zM206 1418h14q2 0 2 -2v-1415q0 -1 -2 -1h-14q-2 0 -2 1v1415q1 2 2 2zM240 1418h14q2 0 2 -2v-1415q0 -1 -2 -1h-14
q-1 0 -1 1v1415q0 2 1 2zM274 1418h14q2 0 2 -2v-1415q0 -1 -2 -1h-14q-2 0 -2 1v1415q1 2 2 2zM308 1418h14q2 0 2 -2v-1415q0 -1 -2 -1h-14q-1 0 -1 1v1415q0 2 1 2zM343 1418h14q1 0 1 -2v-1415q0 -1 -1 -1h-14q-2 0 -2 1v1415q0 2 2 2zM376 1418h14q2 0 2 -2v-1415
q0 -1 -2 -1h-14q-1 0 -1 1v1415q0 2 1 2zM411 1418h13q2 0 2 -2v-1415q0 -1 -2 -1h-13q-2 0 -2 1v1415q0 2 2 2zM445 1418h14q1 0 1 -2v-1415q0 -1 -1 -1h-14q-2 0 -2 1v1415q0 2 2 2zM478 1418h14q2 0 2 -2v-1415q0 -1 -2 -1h-14q-1 0 -1 1v1415q0 2 1 2zM513 1418h14
q1 0 1 -2v-1415q0 -1 -1 -1h-14q-2 0 -2 1v1415q0 2 2 2zM1320 1416v-347h-451v-174h451v-348h-451v-202h451v-345h-773q-1 0 -1 1v1415h774zM563 1069v-174h16v174h-16zM596 1069v-174h17v174h-17zM631 1069v-174h17v174h-17zM665 1069v-174h16v174h-16zM698 1069v-174h18
v174h-18zM733 1069v-174h17v174h-17zM767 1069v-174h17v174h-17zM801 1069v-174h17v174h-17zM835 1069v-174h17v174h-17zM563 547v-202h16v202h-16zM596 547v-202h17v202h-17zM631 547v-202h17v202h-17zM665 547v-202h16v202h-16zM698 547v-202h18v202h-18zM733 547v-202h17
v202h-17zM767 547v-202h17v202h-17zM801 547v-202h17v202h-17zM835 547v-202h17v202h-17zM669 1815l259 -140v-227l-259 121l-252 -121v227z" />
    <glyph glyph-name="Edieresis" unicode="&#xcb;" horiz-adv-x="1335" 
d="M2 1418h14q1 0 1 -2v-1415q0 -1 -1 -1h-14q-2 0 -2 1v1415q0 2 2 2zM36 1418h14q2 0 2 -2v-1415q0 -1 -2 -1h-14q-2 0 -2 1v1415q1 2 2 2zM70 1418h13q2 0 2 -2v-1415q0 -1 -2 -1h-13q-2 0 -2 1v1415q0 2 2 2zM104 1418h14q1 0 1 -2v-1415q0 -1 -1 -1h-14q-2 0 -2 1v1415
q0 2 2 2zM138 1418h14q2 0 2 -2v-1415q0 -1 -2 -1h-14q-1 0 -1 1v1415q0 2 1 2zM172 1418h14q1 0 1 -2v-1415q0 -1 -1 -1h-14q-2 0 -2 1v1415q0 2 2 2zM206 1418h14q2 0 2 -2v-1415q0 -1 -2 -1h-14q-2 0 -2 1v1415q1 2 2 2zM240 1418h14q2 0 2 -2v-1415q0 -1 -2 -1h-14
q-1 0 -1 1v1415q0 2 1 2zM274 1418h14q2 0 2 -2v-1415q0 -1 -2 -1h-14q-2 0 -2 1v1415q1 2 2 2zM308 1418h14q2 0 2 -2v-1415q0 -1 -2 -1h-14q-1 0 -1 1v1415q0 2 1 2zM343 1418h14q1 0 1 -2v-1415q0 -1 -1 -1h-14q-2 0 -2 1v1415q0 2 2 2zM376 1418h14q2 0 2 -2v-1415
q0 -1 -2 -1h-14q-1 0 -1 1v1415q0 2 1 2zM411 1418h13q2 0 2 -2v-1415q0 -1 -2 -1h-13q-2 0 -2 1v1415q0 2 2 2zM445 1418h14q1 0 1 -2v-1415q0 -1 -1 -1h-14q-2 0 -2 1v1415q0 2 2 2zM478 1418h14q2 0 2 -2v-1415q0 -1 -2 -1h-14q-1 0 -1 1v1415q0 2 1 2zM513 1418h14
q1 0 1 -2v-1415q0 -1 -1 -1h-14q-2 0 -2 1v1415q0 2 2 2zM1320 1416v-347h-451v-174h451v-348h-451v-202h451v-345h-773q-1 0 -1 1v1415h774zM563 1069v-174h16v174h-16zM596 1069v-174h17v174h-17zM631 1069v-174h17v174h-17zM665 1069v-174h16v174h-16zM698 1069v-174h18
v174h-18zM733 1069v-174h17v174h-17zM767 1069v-174h17v174h-17zM801 1069v-174h17v174h-17zM835 1069v-174h17v174h-17zM563 547v-202h16v202h-16zM596 547v-202h17v202h-17zM631 547v-202h17v202h-17zM665 547v-202h16v202h-16zM698 547v-202h18v202h-18zM733 547v-202h17
v202h-17zM767 547v-202h17v202h-17zM801 547v-202h17v202h-17zM835 547v-202h17v202h-17zM475 1777h10q45 0 86 -36q42 -42 42 -96v-2q0 -65 -57 -108q-36 -24 -77 -24q-66 0 -109 57q-23 36 -23 74v4q0 62 54 106q38 25 74 25zM819 1777h10q46 0 86 -36q42 -42 42 -96v-2
q0 -65 -57 -108q-36 -24 -76 -24q-66 0 -110 57q-23 36 -23 74v4q0 62 55 106q37 25 73 25z" />
    <glyph glyph-name="Igrave" unicode="&#xcc;" horiz-adv-x="1327" 
d="M341 1070h-17v-719h17v719zM375 351v719h-17v-719h17zM392 351h17v719h-17v-719zM52 1070v-719h16v719h-16zM1278 1070v-719h17v719h-17zM1244 1070v-719h17v719h-17zM1210 1070v-719h17v719h-17zM1176 1070v-719h16v719h-16zM1142 1070v-719h17v719h-17zM1107 1070v-719
h18v719h-18zM1074 1070v-719h16v719h-16zM1040 1070v-719h17v719h-17zM1005 1070v-719h17v719h-17zM972 1070v-719h16v719h-16zM937 1070v-719h17v719h-17zM903 1070v-719h17v719h-17zM869 1070v-719h17v719h-17zM426 351h17v719h-17v-719zM307 1070h-17v-719h17v719z
M272 1070h-16v-719h16v719zM222 1070v-719h17v719h-17zM187 1070v-719h17v719h-17zM154 1070v-719h16v719h-16zM119 1070v-719h18v719h-18zM85 1070v-719h17v719h-17zM20 1070l-1 -720q0 1 1 1h14v719h-14zM0 1q0 1417 2 1417h1310v-1418zM492 1455q-2 0 -249 343h452
l129 -343h-332z" />
    <glyph glyph-name="Iacute" unicode="&#xcd;" horiz-adv-x="1327" 
d="M341 1070h-17v-719h17v719zM375 351v719h-17v-719h17zM392 351h17v719h-17v-719zM52 1070v-719h16v719h-16zM1278 1070v-719h17v719h-17zM1244 1070v-719h17v719h-17zM1210 1070v-719h17v719h-17zM1176 1070v-719h16v719h-16zM1142 1070v-719h17v719h-17zM1107 1070v-719
h18v719h-18zM1074 1070v-719h16v719h-16zM1040 1070v-719h17v719h-17zM1005 1070v-719h17v719h-17zM972 1070v-719h16v719h-16zM937 1070v-719h17v719h-17zM903 1070v-719h17v719h-17zM869 1070v-719h17v719h-17zM426 351h17v719h-17v-719zM307 1070h-17v-719h17v719z
M272 1070h-16v-719h16v719zM222 1070v-719h17v719h-17zM187 1070v-719h17v719h-17zM154 1070v-719h16v719h-16zM119 1070v-719h18v719h-18zM85 1070v-719h17v719h-17zM20 1070l-1 -720q0 1 1 1h14v719h-14zM0 1q0 1417 2 1417h1310v-1418zM517 1455l129 343h452
q-247 -343 -249 -343h-332z" />
    <glyph glyph-name="Icircumflex" unicode="&#xce;" horiz-adv-x="1327" 
d="M341 1070h-17v-719h17v719zM375 351v719h-17v-719h17zM392 351h17v719h-17v-719zM52 1070v-719h16v719h-16zM1278 1070v-719h17v719h-17zM1244 1070v-719h17v719h-17zM1210 1070v-719h17v719h-17zM1176 1070v-719h16v719h-16zM1142 1070v-719h17v719h-17zM1107 1070v-719
h18v719h-18zM1074 1070v-719h16v719h-16zM1040 1070v-719h17v719h-17zM1005 1070v-719h17v719h-17zM972 1070v-719h16v719h-16zM937 1070v-719h17v719h-17zM903 1070v-719h17v719h-17zM869 1070v-719h17v719h-17zM426 351h17v719h-17v-719zM307 1070h-17v-719h17v719z
M272 1070h-16v-719h16v719zM222 1070v-719h17v719h-17zM187 1070v-719h17v719h-17zM154 1070v-719h16v719h-16zM119 1070v-719h18v719h-18zM85 1070v-719h17v719h-17zM20 1070l-1 -720q0 1 1 1h14v719h-14zM0 1q0 1417 2 1417h1310v-1418zM661 1815l259 -140v-227l-259 121
l-252 -121v227z" />
    <glyph glyph-name="Idieresis" unicode="&#xcf;" horiz-adv-x="1327" 
d="M341 1070h-17v-719h17v719zM375 351v719h-17v-719h17zM392 351h17v719h-17v-719zM52 1070v-719h16v719h-16zM1278 1070v-719h17v719h-17zM1244 1070v-719h17v719h-17zM1210 1070v-719h17v719h-17zM1176 1070v-719h16v719h-16zM1142 1070v-719h17v719h-17zM1107 1070v-719
h18v719h-18zM1074 1070v-719h16v719h-16zM1040 1070v-719h17v719h-17zM1005 1070v-719h17v719h-17zM972 1070v-719h16v719h-16zM937 1070v-719h17v719h-17zM903 1070v-719h17v719h-17zM869 1070v-719h17v719h-17zM426 351h17v719h-17v-719zM307 1070h-17v-719h17v719z
M272 1070h-16v-719h16v719zM222 1070v-719h17v719h-17zM187 1070v-719h17v719h-17zM154 1070v-719h16v719h-16zM119 1070v-719h18v719h-18zM85 1070v-719h17v719h-17zM20 1070l-1 -720q0 1 1 1h14v719h-14zM0 1q0 1417 2 1417h1310v-1418zM490 1710h10q45 0 86 -36
q42 -42 42 -96v-2q0 -65 -57 -108q-36 -24 -77 -24q-66 0 -109 57q-23 36 -23 74v4q0 62 54 106q38 25 74 25zM834 1710h10q46 0 86 -36q42 -42 42 -96v-2q0 -65 -57 -108q-36 -24 -76 -24q-66 0 -110 57q-23 36 -23 74v4q0 62 55 106q37 25 73 25z" />
    <glyph glyph-name="Ntilde" unicode="&#xd1;" horiz-adv-x="1730" 
d="M2 1418h14q1 0 1 -2v-1413q0 -2 -1 -2h-14q-2 0 -2 2v1413q1 2 2 2zM37 1418h14q2 0 2 -2v-1413q0 -2 -2 -2h-14q-2 0 -2 2v1413q1 2 2 2zM71 1418h14q2 0 2 -2v-1413q0 -2 -2 -2h-14q-1 0 -1 2v1413q0 2 1 2zM107 1418h14q1 0 1 -2v-1413q0 -2 -1 -2h-14q-2 0 -2 2v1413
q0 2 2 2zM141 1418h14q2 0 2 -2v-1413q0 -2 -2 -2h-14q-2 0 -2 2v1413q1 2 2 2zM176 1418h14q2 0 2 -2v-1413q0 -2 -2 -2h-14q-1 0 -1 2v1413q0 2 1 2zM211 1418h13q2 0 2 -2v-1413q0 -2 -2 -2h-13q-2 0 -2 2v1413q0 2 2 2zM246 1418h14q1 0 1 -2v-1413q0 -2 -1 -2h-14
q-2 0 -2 2v1413q0 2 2 2zM279 1418h664l267 -760h1v758q0 2 2 2h14q1 0 1 -2v-807q0 -2 18 -52v859q1 2 2 2h14q2 0 2 -2v-908q0 -2 16 -51h1v959q0 2 1 2h14q2 0 2 -2v-1007q0 -3 17 -54h1v1061q0 2 1 2h14q2 0 2 -2v-1110l16 -50h1v1160q0 2 2 2h14q1 0 1 -2v-1209
q0 -2 18 -53v1262q1 2 2 2h14q2 0 2 -2v-1312l16 -49h1v1361q0 2 1 2h14q2 0 2 -2l1 -1416l-672 3l-261 759h-1v-759q0 -2 -2 -2h-13q-2 0 -2 2v807q0 2 -16 51h-1v-858q0 -2 -2 -2h-14q-1 0 -1 2v908l-18 51v-959q0 -2 -2 -2h-14q-2 0 -2 2v1008l-16 51h-1v-1059
q0 -2 -1 -2h-14q-2 0 -2 2v1107q0 3 -17 54h-1v-1161q0 -2 -2 -2h-13q-2 0 -2 2v1210q0 2 -16 50h-1v-1260q0 -2 -2 -2h-14q-1 0 -1 2v1309q0 1 -18 53v-1362q0 -2 -2 -2h-14q-2 0 -2 2v1414zM1457 1418h13q2 0 2 -2v-1413q0 -2 -2 -2h-13q-2 0 -2 2v1413q0 2 2 2z
M1491 1418h14q1 0 1 -2v-1413q0 -2 -1 -2h-14q-2 0 -2 2v1413q0 2 2 2zM1526 1418h14q2 0 2 -2v-1413q0 -2 -2 -2h-14q-2 0 -2 2v1413q1 2 2 2zM1560 1418h14q2 0 2 -2v-1413q0 -2 -2 -2h-14q-1 0 -1 2v1413q0 2 1 2zM1596 1418h13q2 0 2 -2v-1413q0 -2 -2 -2h-13q-2 0 -2 2
v1413q0 2 2 2zM1630 1418h14q1 0 1 -2v-1413q0 -2 -1 -2h-14q-2 0 -2 2v1413q1 2 2 2zM1665 1418h14q2 0 2 -2v-1413q0 -2 -2 -2h-14q-2 0 -2 2v1413q1 2 2 2zM1699 1418h14q2 0 2 -2v-1413q0 -2 -2 -2h-14q-1 0 -1 2v1413q0 2 1 2zM681 1822q44 -82 47 -87q26 -35 66 -35
q22 0 48 16q133 71 151 79q39 16 79 16q82 0 144 -58q22 -22 33 -41q45 -82 45 -84l-160 -173q-3 5 -46 85q-14 23 -44 33q-9 3 -23 3q-23 0 -53 -19q-128 -68 -144 -76q-41 -16 -76 -16h-10q-56 0 -111 35q-16 10 -36 32q-24 26 -36 53q-33 59 -34 64z" />
    <glyph glyph-name="Ograve" unicode="&#xd2;" 
d="M400 1411h14q1 -1 1 -2v-1408q-17 1 -17 4v1404q0 2 2 2zM434 1411h14q2 -1 2 -2v-1408q0 -1 -2 -1h-14q-1 0 -1 1v1408q0 2 1 2zM468 1411h14q1 -1 1 -2v-518q-15 -33 -15 -40h-2v558q0 2 2 2zM502 1411h14q2 -1 2 -2v-476l-17 -17v493q0 2 1 2zM536 1411h14q2 -1 2 -2
v-451q0 -1 -16 -11l-1 1v461q0 2 1 2zM570 1411h14q2 -1 2 -2v-437q-1 -1 -17 -7l-1 1v443q1 2 2 2zM604 1411h14q2 -1 2 -2v-430q0 -3 -17 -4v434q0 2 1 2zM639 1411h14q1 -1 1 -2v-429q0 -2 -1 -2h-14q-2 0 -2 2v429q0 2 2 2zM672 1411h14q2 -1 2 -2v-429q0 -2 -2 -2h-14
q-1 0 -1 2v429q0 2 1 2zM707 1411h14q1 -1 1 -2v-429q0 -2 -1 -2h-14q-2 0 -2 2v429q0 2 2 2zM741 1411h14q2 -1 2 -2v-429q0 -2 -2 -2h-14q-2 0 -2 2v429q1 2 2 2zM774 1411h382q69 -5 162 -52q35 -19 86 -61q150 -143 150 -339v-504q0 -200 -155 -343q-133 -112 -300 -112
h-325q-1 0 -1 1v434q0 1 1 1h108q113 0 165 101q16 34 16 79v183q0 107 -96 161q-37 18 -83 18h-110q-1 0 -1 2v429q0 2 1 2zM380 1409l1 -2v-1400l-1 -2q-16 3 -16 5v1394q0 2 16 5zM348 1402v-1389h-1q-17 3 -17 5v1379q0 2 18 5zM313 1392v-1369q-14 2 -17 6v1356
q3 4 17 7zM278 1379l1 -1v-1341l-1 -2q-16 7 -16 8v1328q0 1 16 8zM245 1363v-1312q-12 5 -17 10v1292q6 7 17 10zM210 1343l1 -1v-1270q0 -1 -2 -1l-15 11v1250q6 6 16 11zM176 1319h1v-1224h-1q-12 8 -17 14v1196q5 6 17 14zM142 1290h1v-1166h-1q-1 0 -16 16v1134
q0 1 16 16zM108 1254h1v-1093h-1q-3 2 -16 19v1054q13 17 16 20zM73 1208h1v-1001h-1l-16 26v949zM39 1146h2v-878h-2q-11 25 -15 43v793q2 11 15 42zM5 1030h2v-646h-2q-5 38 -5 68v510q0 30 5 68zM466 563h2q0 -7 15 -40v-522q0 -1 -1 -1h-14q-2 0 -2 1v562zM501 499
l17 -18v-480q0 -1 -2 -1h-14q-1 0 -1 1v498zM536 468q16 -11 16 -12v-455q0 -1 -2 -1h-14q-1 0 -1 1v465q0 2 1 2zM569 450q17 -6 17 -8v-441q0 -1 -2 -1h-14q-2 0 -2 1v447zM603 439h1q16 -1 16 -3v-435q0 -1 -2 -1h-14q-1 0 -1 1v438zM639 436h14q1 0 1 -1v-434
q0 -1 -1 -1h-14q-2 0 -2 1v434q0 1 2 1zM672 436h14q2 0 2 -1v-434q0 -1 -2 -1h-14q-1 0 -1 1v434q0 1 1 1zM707 436h14q1 0 1 -1v-434q0 -1 -1 -1h-14q-2 0 -2 1v434q0 1 2 1zM741 436h14q2 0 2 -1v-434q0 -1 -2 -1h-14q-2 0 -2 1v434q1 1 2 1zM636 1455q-2 0 -249 343h452
l129 -343h-332z" />
    <glyph glyph-name="Oacute" unicode="&#xd3;" 
d="M400 1411h14q1 -1 1 -2v-1408q-17 1 -17 4v1404q0 2 2 2zM434 1411h14q2 -1 2 -2v-1408q0 -1 -2 -1h-14q-1 0 -1 1v1408q0 2 1 2zM468 1411h14q1 -1 1 -2v-518q-15 -33 -15 -40h-2v558q0 2 2 2zM502 1411h14q2 -1 2 -2v-476l-17 -17v493q0 2 1 2zM536 1411h14q2 -1 2 -2
v-451q0 -1 -16 -11l-1 1v461q0 2 1 2zM570 1411h14q2 -1 2 -2v-437q-1 -1 -17 -7l-1 1v443q1 2 2 2zM604 1411h14q2 -1 2 -2v-430q0 -3 -17 -4v434q0 2 1 2zM639 1411h14q1 -1 1 -2v-429q0 -2 -1 -2h-14q-2 0 -2 2v429q0 2 2 2zM672 1411h14q2 -1 2 -2v-429q0 -2 -2 -2h-14
q-1 0 -1 2v429q0 2 1 2zM707 1411h14q1 -1 1 -2v-429q0 -2 -1 -2h-14q-2 0 -2 2v429q0 2 2 2zM741 1411h14q2 -1 2 -2v-429q0 -2 -2 -2h-14q-2 0 -2 2v429q1 2 2 2zM774 1411h382q69 -5 162 -52q35 -19 86 -61q150 -143 150 -339v-504q0 -200 -155 -343q-133 -112 -300 -112
h-325q-1 0 -1 1v434q0 1 1 1h108q113 0 165 101q16 34 16 79v183q0 107 -96 161q-37 18 -83 18h-110q-1 0 -1 2v429q0 2 1 2zM380 1409l1 -2v-1400l-1 -2q-16 3 -16 5v1394q0 2 16 5zM348 1402v-1389h-1q-17 3 -17 5v1379q0 2 18 5zM313 1392v-1369q-14 2 -17 6v1356
q3 4 17 7zM278 1379l1 -1v-1341l-1 -2q-16 7 -16 8v1328q0 1 16 8zM245 1363v-1312q-12 5 -17 10v1292q6 7 17 10zM210 1343l1 -1v-1270q0 -1 -2 -1l-15 11v1250q6 6 16 11zM176 1319h1v-1224h-1q-12 8 -17 14v1196q5 6 17 14zM142 1290h1v-1166h-1q-1 0 -16 16v1134
q0 1 16 16zM108 1254h1v-1093h-1q-3 2 -16 19v1054q13 17 16 20zM73 1208h1v-1001h-1l-16 26v949zM39 1146h2v-878h-2q-11 25 -15 43v793q2 11 15 42zM5 1030h2v-646h-2q-5 38 -5 68v510q0 30 5 68zM466 563h2q0 -7 15 -40v-522q0 -1 -1 -1h-14q-2 0 -2 1v562zM501 499
l17 -18v-480q0 -1 -2 -1h-14q-1 0 -1 1v498zM536 468q16 -11 16 -12v-455q0 -1 -2 -1h-14q-1 0 -1 1v465q0 2 1 2zM569 450q17 -6 17 -8v-441q0 -1 -2 -1h-14q-2 0 -2 1v447zM603 439h1q16 -1 16 -3v-435q0 -1 -2 -1h-14q-1 0 -1 1v438zM639 436h14q1 0 1 -1v-434
q0 -1 -1 -1h-14q-2 0 -2 1v434q0 1 2 1zM672 436h14q2 0 2 -1v-434q0 -1 -2 -1h-14q-1 0 -1 1v434q0 1 1 1zM707 436h14q1 0 1 -1v-434q0 -1 -1 -1h-14q-2 0 -2 1v434q0 1 2 1zM741 436h14q2 0 2 -1v-434q0 -1 -2 -1h-14q-2 0 -2 1v434q1 1 2 1zM622 1455l129 343h452
q-247 -343 -249 -343h-332z" />
    <glyph glyph-name="Ocircumflex" unicode="&#xd4;" 
d="M400 1411h14q1 -1 1 -2v-1408q-17 1 -17 4v1404q0 2 2 2zM434 1411h14q2 -1 2 -2v-1408q0 -1 -2 -1h-14q-1 0 -1 1v1408q0 2 1 2zM468 1411h14q1 -1 1 -2v-518q-15 -33 -15 -40h-2v558q0 2 2 2zM502 1411h14q2 -1 2 -2v-476l-17 -17v493q0 2 1 2zM536 1411h14q2 -1 2 -2
v-451q0 -1 -16 -11l-1 1v461q0 2 1 2zM570 1411h14q2 -1 2 -2v-437q-1 -1 -17 -7l-1 1v443q1 2 2 2zM604 1411h14q2 -1 2 -2v-430q0 -3 -17 -4v434q0 2 1 2zM639 1411h14q1 -1 1 -2v-429q0 -2 -1 -2h-14q-2 0 -2 2v429q0 2 2 2zM672 1411h14q2 -1 2 -2v-429q0 -2 -2 -2h-14
q-1 0 -1 2v429q0 2 1 2zM707 1411h14q1 -1 1 -2v-429q0 -2 -1 -2h-14q-2 0 -2 2v429q0 2 2 2zM741 1411h14q2 -1 2 -2v-429q0 -2 -2 -2h-14q-2 0 -2 2v429q1 2 2 2zM774 1411h382q69 -5 162 -52q35 -19 86 -61q150 -143 150 -339v-504q0 -200 -155 -343q-133 -112 -300 -112
h-325q-1 0 -1 1v434q0 1 1 1h108q113 0 165 101q16 34 16 79v183q0 107 -96 161q-37 18 -83 18h-110q-1 0 -1 2v429q0 2 1 2zM380 1409l1 -2v-1400l-1 -2q-16 3 -16 5v1394q0 2 16 5zM348 1402v-1389h-1q-17 3 -17 5v1379q0 2 18 5zM313 1392v-1369q-14 2 -17 6v1356
q3 4 17 7zM278 1379l1 -1v-1341l-1 -2q-16 7 -16 8v1328q0 1 16 8zM245 1363v-1312q-12 5 -17 10v1292q6 7 17 10zM210 1343l1 -1v-1270q0 -1 -2 -1l-15 11v1250q6 6 16 11zM176 1319h1v-1224h-1q-12 8 -17 14v1196q5 6 17 14zM142 1290h1v-1166h-1q-1 0 -16 16v1134
q0 1 16 16zM108 1254h1v-1093h-1q-3 2 -16 19v1054q13 17 16 20zM73 1208h1v-1001h-1l-16 26v949zM39 1146h2v-878h-2q-11 25 -15 43v793q2 11 15 42zM5 1030h2v-646h-2q-5 38 -5 68v510q0 30 5 68zM466 563h2q0 -7 15 -40v-522q0 -1 -1 -1h-14q-2 0 -2 1v562zM501 499
l17 -18v-480q0 -1 -2 -1h-14q-1 0 -1 1v498zM536 468q16 -11 16 -12v-455q0 -1 -2 -1h-14q-1 0 -1 1v465q0 2 1 2zM569 450q17 -6 17 -8v-441q0 -1 -2 -1h-14q-2 0 -2 1v447zM603 439h1q16 -1 16 -3v-435q0 -1 -2 -1h-14q-1 0 -1 1v438zM639 436h14q1 0 1 -1v-434
q0 -1 -1 -1h-14q-2 0 -2 1v434q0 1 2 1zM672 436h14q2 0 2 -1v-434q0 -1 -2 -1h-14q-1 0 -1 1v434q0 1 1 1zM707 436h14q1 0 1 -1v-434q0 -1 -1 -1h-14q-2 0 -2 1v434q0 1 2 1zM741 436h14q2 0 2 -1v-434q0 -1 -2 -1h-14q-2 0 -2 1v434q1 1 2 1zM776 1815l259 -140v-227
l-259 121l-252 -121v227z" />
    <glyph glyph-name="Otilde" unicode="&#xd5;" 
d="M400 1411h14q1 -1 1 -2v-1408q-17 1 -17 4v1404q0 2 2 2zM434 1411h14q2 -1 2 -2v-1408q0 -1 -2 -1h-14q-1 0 -1 1v1408q0 2 1 2zM468 1411h14q1 -1 1 -2v-518q-15 -33 -15 -40h-2v558q0 2 2 2zM502 1411h14q2 -1 2 -2v-476l-17 -17v493q0 2 1 2zM536 1411h14q2 -1 2 -2
v-451q0 -1 -16 -11l-1 1v461q0 2 1 2zM570 1411h14q2 -1 2 -2v-437q-1 -1 -17 -7l-1 1v443q1 2 2 2zM604 1411h14q2 -1 2 -2v-430q0 -3 -17 -4v434q0 2 1 2zM639 1411h14q1 -1 1 -2v-429q0 -2 -1 -2h-14q-2 0 -2 2v429q0 2 2 2zM672 1411h14q2 -1 2 -2v-429q0 -2 -2 -2h-14
q-1 0 -1 2v429q0 2 1 2zM707 1411h14q1 -1 1 -2v-429q0 -2 -1 -2h-14q-2 0 -2 2v429q0 2 2 2zM741 1411h14q2 -1 2 -2v-429q0 -2 -2 -2h-14q-2 0 -2 2v429q1 2 2 2zM774 1411h382q69 -5 162 -52q35 -19 86 -61q150 -143 150 -339v-504q0 -200 -155 -343q-133 -112 -300 -112
h-325q-1 0 -1 1v434q0 1 1 1h108q113 0 165 101q16 34 16 79v183q0 107 -96 161q-37 18 -83 18h-110q-1 0 -1 2v429q0 2 1 2zM380 1409l1 -2v-1400l-1 -2q-16 3 -16 5v1394q0 2 16 5zM348 1402v-1389h-1q-17 3 -17 5v1379q0 2 18 5zM313 1392v-1369q-14 2 -17 6v1356
q3 4 17 7zM278 1379l1 -1v-1341l-1 -2q-16 7 -16 8v1328q0 1 16 8zM245 1363v-1312q-12 5 -17 10v1292q6 7 17 10zM210 1343l1 -1v-1270q0 -1 -2 -1l-15 11v1250q6 6 16 11zM176 1319h1v-1224h-1q-12 8 -17 14v1196q5 6 17 14zM142 1290h1v-1166h-1q-1 0 -16 16v1134
q0 1 16 16zM108 1254h1v-1093h-1q-3 2 -16 19v1054q13 17 16 20zM73 1208h1v-1001h-1l-16 26v949zM39 1146h2v-878h-2q-11 25 -15 43v793q2 11 15 42zM5 1030h2v-646h-2q-5 38 -5 68v510q0 30 5 68zM466 563h2q0 -7 15 -40v-522q0 -1 -1 -1h-14q-2 0 -2 1v562zM501 499
l17 -18v-480q0 -1 -2 -1h-14q-1 0 -1 1v498zM536 468q16 -11 16 -12v-455q0 -1 -2 -1h-14q-1 0 -1 1v465q0 2 1 2zM569 450q17 -6 17 -8v-441q0 -1 -2 -1h-14q-2 0 -2 1v447zM603 439h1q16 -1 16 -3v-435q0 -1 -2 -1h-14q-1 0 -1 1v438zM639 436h14q1 0 1 -1v-434
q0 -1 -1 -1h-14q-2 0 -2 1v434q0 1 2 1zM672 436h14q2 0 2 -1v-434q0 -1 -2 -1h-14q-1 0 -1 1v434q0 1 1 1zM707 436h14q1 0 1 -1v-434q0 -1 -1 -1h-14q-2 0 -2 1v434q0 1 2 1zM741 436h14q2 0 2 -1v-434q0 -1 -2 -1h-14q-2 0 -2 1v434q1 1 2 1zM603 1822q44 -82 47 -87
q26 -35 66 -35q22 0 48 16q133 71 151 79q39 16 79 16q82 0 144 -58q22 -22 33 -41q45 -82 45 -84l-160 -173q-3 5 -46 85q-14 23 -44 33q-9 3 -23 3q-23 0 -53 -19q-128 -68 -144 -76q-41 -16 -76 -16h-10q-56 0 -111 35q-16 10 -36 32q-24 26 -36 53q-33 59 -34 64z" />
    <glyph glyph-name="Odieresis" unicode="&#xd6;" 
d="M400 1411h14q1 -1 1 -2v-1408q-17 1 -17 4v1404q0 2 2 2zM434 1411h14q2 -1 2 -2v-1408q0 -1 -2 -1h-14q-1 0 -1 1v1408q0 2 1 2zM468 1411h14q1 -1 1 -2v-518q-15 -33 -15 -40h-2v558q0 2 2 2zM502 1411h14q2 -1 2 -2v-476l-17 -17v493q0 2 1 2zM536 1411h14q2 -1 2 -2
v-451q0 -1 -16 -11l-1 1v461q0 2 1 2zM570 1411h14q2 -1 2 -2v-437q-1 -1 -17 -7l-1 1v443q1 2 2 2zM604 1411h14q2 -1 2 -2v-430q0 -3 -17 -4v434q0 2 1 2zM639 1411h14q1 -1 1 -2v-429q0 -2 -1 -2h-14q-2 0 -2 2v429q0 2 2 2zM672 1411h14q2 -1 2 -2v-429q0 -2 -2 -2h-14
q-1 0 -1 2v429q0 2 1 2zM707 1411h14q1 -1 1 -2v-429q0 -2 -1 -2h-14q-2 0 -2 2v429q0 2 2 2zM741 1411h14q2 -1 2 -2v-429q0 -2 -2 -2h-14q-2 0 -2 2v429q1 2 2 2zM774 1411h382q69 -5 162 -52q35 -19 86 -61q150 -143 150 -339v-504q0 -200 -155 -343q-133 -112 -300 -112
h-325q-1 0 -1 1v434q0 1 1 1h108q113 0 165 101q16 34 16 79v183q0 107 -96 161q-37 18 -83 18h-110q-1 0 -1 2v429q0 2 1 2zM380 1409l1 -2v-1400l-1 -2q-16 3 -16 5v1394q0 2 16 5zM348 1402v-1389h-1q-17 3 -17 5v1379q0 2 18 5zM313 1392v-1369q-14 2 -17 6v1356
q3 4 17 7zM278 1379l1 -1v-1341l-1 -2q-16 7 -16 8v1328q0 1 16 8zM245 1363v-1312q-12 5 -17 10v1292q6 7 17 10zM210 1343l1 -1v-1270q0 -1 -2 -1l-15 11v1250q6 6 16 11zM176 1319h1v-1224h-1q-12 8 -17 14v1196q5 6 17 14zM142 1290h1v-1166h-1q-1 0 -16 16v1134
q0 1 16 16zM108 1254h1v-1093h-1q-3 2 -16 19v1054q13 17 16 20zM73 1208h1v-1001h-1l-16 26v949zM39 1146h2v-878h-2q-11 25 -15 43v793q2 11 15 42zM5 1030h2v-646h-2q-5 38 -5 68v510q0 30 5 68zM466 563h2q0 -7 15 -40v-522q0 -1 -1 -1h-14q-2 0 -2 1v562zM501 499
l17 -18v-480q0 -1 -2 -1h-14q-1 0 -1 1v498zM536 468q16 -11 16 -12v-455q0 -1 -2 -1h-14q-1 0 -1 1v465q0 2 1 2zM569 450q17 -6 17 -8v-441q0 -1 -2 -1h-14q-2 0 -2 1v447zM603 439h1q16 -1 16 -3v-435q0 -1 -2 -1h-14q-1 0 -1 1v438zM639 436h14q1 0 1 -1v-434
q0 -1 -1 -1h-14q-2 0 -2 1v434q0 1 2 1zM672 436h14q2 0 2 -1v-434q0 -1 -2 -1h-14q-1 0 -1 1v434q0 1 1 1zM707 436h14q1 0 1 -1v-434q0 -1 -1 -1h-14q-2 0 -2 1v434q0 1 2 1zM741 436h14q2 0 2 -1v-434q0 -1 -2 -1h-14q-2 0 -2 1v434q1 1 2 1zM590 1710h10q45 0 86 -36
q42 -42 42 -96v-2q0 -65 -57 -108q-36 -24 -77 -24q-66 0 -109 57q-23 36 -23 74v4q0 62 54 106q38 25 74 25zM934 1710h10q46 0 86 -36q42 -42 42 -96v-2q0 -65 -57 -108q-36 -24 -76 -24q-66 0 -110 57q-23 36 -23 74v4q0 62 55 106q37 25 73 25z" />
    <glyph glyph-name="multiply" unicode="&#xd7;" horiz-adv-x="641" 
d="M625 1121h1v-27l-197 -262v-23l195 259h2v-28l-197 -261v-24l196 259h1v-27l-197 -262v-23q3 4 196 259h1v-26q0 -4 -39 -52l-158 -211v-24l195 259h2v-27l-197 -261v-24l196 259h1v-27l-188 -250v-1q184 -138 188 -142v-20h-1l-196 148v-18l197 -150v-21h-1
q-37 27 -196 148v-17q2 -4 48 -37q135 -103 149 -114v-19q0 -1 -2 -1q-25 20 -195 148v-19q11 -7 197 -149v-20h-1q-14 9 -196 148v-18q24 -20 169 -129q26 -19 28 -22v-19q0 -1 -2 -1q-3 3 -195 148v-19q33 -24 197 -149v-20h-1l-196 148v-165q0 -2 -46 -18
q-21 -8 -184 -69l-1 2v150h-1q-8 -12 -196 -260h-1v25q0 4 39 53q26 36 159 211v24q-4 -4 -196 -259h-2v27q180 238 198 262v24h-1q-22 -31 -196 -260h-1v27l198 262v24q-184 -242 -196 -260h-2v28l198 262v23l-197 -259h-1v27l198 263v23h-1q-5 -8 -196 -260h-1v26
q0 3 31 43q155 205 155 206v1q-163 122 -186 141v19q0 2 2 2q0 -1 196 -149v18l-198 150v21h1l197 -148v17q-19 15 -164 124q-33 25 -34 27v19q0 2 2 2q8 -8 196 -149v18l-198 150v21h1l196 -148h1v17q-5 5 -189 143q-9 7 -9 8v20h2l196 -148v19q-195 145 -198 149v21h1
l197 -149v191q1 2 146 55q82 31 84 31l1 -1v-171z" />
    <glyph glyph-name="Ugrave" unicode="&#xd9;" horiz-adv-x="1546" 
d="M2 1411h14q2 -1 2 -2v-1141h-2q-16 38 -16 44v1097q0 2 2 2zM36 1411h14q2 -1 2 -2v-1202h-1q-15 19 -17 27v1175q1 2 2 2zM69 1411h15q2 -1 2 -2v-1248h-1q-4 3 -17 20v1228q0 2 1 2zM104 1411h15q1 -1 1 -2v-1283q0 -2 -1 -2l-17 17v1268q0 2 2 2zM138 1411h14
q2 -1 2 -2v-1314h-1q-2 0 -16 13v1301q0 2 1 2zM172 1411h14q2 -1 2 -2v-1337l-1 -1q-16 9 -17 12v1326q0 2 2 2zM206 1411h15q1 -1 1 -2v-1356q0 -2 -1 -2q-14 7 -17 10v1348q1 2 2 2zM240 1411h14q2 -1 2 -2v-1372l-1 -2q-14 6 -16 8v1366q0 2 1 2zM274 1411h15q1 -1 1 -2
v-1386q-18 4 -18 6v1380q1 2 2 2zM308 1411h15q2 -1 2 -2v-1395q0 -1 -2 -1q-16 3 -16 6v1390q0 2 1 2zM343 1411h14q1 -1 1 -2v-1402l-1 -2q-16 3 -16 5v1399q0 2 2 2zM376 1411h15q2 -1 2 -2v-1406l-1 -2q-17 1 -17 4v1404q0 2 1 2zM411 1411h14q2 -1 2 -2v-1408
q0 -1 -2 -1h-14q-1 0 -2 2v1407q0 2 2 2zM1040 1411h489q2 -1 2 -2v-939q0 -176 -96 -294q-5 -12 -54 -59q-134 -117 -305 -117h-324q-2 0 -2 1v435q0 1 2 1h108q106 0 160 94q19 39 19 74v804q0 2 1 2zM443 566h2q0 -7 15 -41v-524q0 -1 -1 -1h-14q-2 0 -2 1v565zM478 501
q3 -5 17 -18v-482q0 -1 -2 -1h-15q-1 0 -1 1v498q0 2 1 2zM513 469l16 -11v-457q0 -1 -1 -1h-15q-2 0 -2 1v467q0 1 2 1zM546 450q16 -5 17 -7v-442q0 -1 -2 -1h-14q-1 0 -1 1v449zM580 441q17 -3 17 -5v-435q0 -1 -2 -1h-14q-2 0 -2 1v438zM615 437h15q1 0 1 -1v-435
q0 -1 -1 -1h-15q-2 0 -2 1v435q1 1 2 1zM649 437h14q2 0 2 -1v-435q0 -1 -2 -1h-14q-1 0 -1 1v435q0 1 1 1zM683 437h15q1 0 1 -1v-435q0 -1 -1 -1h-15q-2 0 -2 1v435q0 1 2 1zM717 437h15q2 0 2 -1v-435q0 -1 -2 -1h-15q-1 0 -1 1v435q0 1 1 1zM568 1455q-2 0 -249 343h452
l129 -343h-332z" />
    <glyph glyph-name="Uacute" unicode="&#xda;" horiz-adv-x="1546" 
d="M2 1411h14q2 -1 2 -2v-1141h-2q-16 38 -16 44v1097q0 2 2 2zM36 1411h14q2 -1 2 -2v-1202h-1q-15 19 -17 27v1175q1 2 2 2zM69 1411h15q2 -1 2 -2v-1248h-1q-4 3 -17 20v1228q0 2 1 2zM104 1411h15q1 -1 1 -2v-1283q0 -2 -1 -2l-17 17v1268q0 2 2 2zM138 1411h14
q2 -1 2 -2v-1314h-1q-2 0 -16 13v1301q0 2 1 2zM172 1411h14q2 -1 2 -2v-1337l-1 -1q-16 9 -17 12v1326q0 2 2 2zM206 1411h15q1 -1 1 -2v-1356q0 -2 -1 -2q-14 7 -17 10v1348q1 2 2 2zM240 1411h14q2 -1 2 -2v-1372l-1 -2q-14 6 -16 8v1366q0 2 1 2zM274 1411h15q1 -1 1 -2
v-1386q-18 4 -18 6v1380q1 2 2 2zM308 1411h15q2 -1 2 -2v-1395q0 -1 -2 -1q-16 3 -16 6v1390q0 2 1 2zM343 1411h14q1 -1 1 -2v-1402l-1 -2q-16 3 -16 5v1399q0 2 2 2zM376 1411h15q2 -1 2 -2v-1406l-1 -2q-17 1 -17 4v1404q0 2 1 2zM411 1411h14q2 -1 2 -2v-1408
q0 -1 -2 -1h-14q-1 0 -2 2v1407q0 2 2 2zM1040 1411h489q2 -1 2 -2v-939q0 -176 -96 -294q-5 -12 -54 -59q-134 -117 -305 -117h-324q-2 0 -2 1v435q0 1 2 1h108q106 0 160 94q19 39 19 74v804q0 2 1 2zM443 566h2q0 -7 15 -41v-524q0 -1 -1 -1h-14q-2 0 -2 1v565zM478 501
q3 -5 17 -18v-482q0 -1 -2 -1h-15q-1 0 -1 1v498q0 2 1 2zM513 469l16 -11v-457q0 -1 -1 -1h-15q-2 0 -2 1v467q0 1 2 1zM546 450q16 -5 17 -7v-442q0 -1 -2 -1h-14q-1 0 -1 1v449zM580 441q17 -3 17 -5v-435q0 -1 -2 -1h-14q-2 0 -2 1v438zM615 437h15q1 0 1 -1v-435
q0 -1 -1 -1h-15q-2 0 -2 1v435q1 1 2 1zM649 437h14q2 0 2 -1v-435q0 -1 -2 -1h-14q-1 0 -1 1v435q0 1 1 1zM683 437h15q1 0 1 -1v-435q0 -1 -1 -1h-15q-2 0 -2 1v435q0 1 2 1zM717 437h15q2 0 2 -1v-435q0 -1 -2 -1h-15q-1 0 -1 1v435q0 1 1 1zM562 1455l129 343h452
q-247 -343 -249 -343h-332z" />
    <glyph glyph-name="Ucircumflex" unicode="&#xdb;" horiz-adv-x="1546" 
d="M2 1411h14q2 -1 2 -2v-1141h-2q-16 38 -16 44v1097q0 2 2 2zM36 1411h14q2 -1 2 -2v-1202h-1q-15 19 -17 27v1175q1 2 2 2zM69 1411h15q2 -1 2 -2v-1248h-1q-4 3 -17 20v1228q0 2 1 2zM104 1411h15q1 -1 1 -2v-1283q0 -2 -1 -2l-17 17v1268q0 2 2 2zM138 1411h14
q2 -1 2 -2v-1314h-1q-2 0 -16 13v1301q0 2 1 2zM172 1411h14q2 -1 2 -2v-1337l-1 -1q-16 9 -17 12v1326q0 2 2 2zM206 1411h15q1 -1 1 -2v-1356q0 -2 -1 -2q-14 7 -17 10v1348q1 2 2 2zM240 1411h14q2 -1 2 -2v-1372l-1 -2q-14 6 -16 8v1366q0 2 1 2zM274 1411h15q1 -1 1 -2
v-1386q-18 4 -18 6v1380q1 2 2 2zM308 1411h15q2 -1 2 -2v-1395q0 -1 -2 -1q-16 3 -16 6v1390q0 2 1 2zM343 1411h14q1 -1 1 -2v-1402l-1 -2q-16 3 -16 5v1399q0 2 2 2zM376 1411h15q2 -1 2 -2v-1406l-1 -2q-17 1 -17 4v1404q0 2 1 2zM411 1411h14q2 -1 2 -2v-1408
q0 -1 -2 -1h-14q-1 0 -2 2v1407q0 2 2 2zM1040 1411h489q2 -1 2 -2v-939q0 -176 -96 -294q-5 -12 -54 -59q-134 -117 -305 -117h-324q-2 0 -2 1v435q0 1 2 1h108q106 0 160 94q19 39 19 74v804q0 2 1 2zM443 566h2q0 -7 15 -41v-524q0 -1 -1 -1h-14q-2 0 -2 1v565zM478 501
q3 -5 17 -18v-482q0 -1 -2 -1h-15q-1 0 -1 1v498q0 2 1 2zM513 469l16 -11v-457q0 -1 -1 -1h-15q-2 0 -2 1v467q0 1 2 1zM546 450q16 -5 17 -7v-442q0 -1 -2 -1h-14q-1 0 -1 1v449zM580 441q17 -3 17 -5v-435q0 -1 -2 -1h-14q-2 0 -2 1v438zM615 437h15q1 0 1 -1v-435
q0 -1 -1 -1h-15q-2 0 -2 1v435q1 1 2 1zM649 437h14q2 0 2 -1v-435q0 -1 -2 -1h-14q-1 0 -1 1v435q0 1 1 1zM683 437h15q1 0 1 -1v-435q0 -1 -1 -1h-15q-2 0 -2 1v435q0 1 2 1zM717 437h15q2 0 2 -1v-435q0 -1 -2 -1h-15q-1 0 -1 1v435q0 1 1 1zM729 1841l259 -140v-227
l-259 121l-252 -121v227z" />
    <glyph glyph-name="Udieresis" unicode="&#xdc;" horiz-adv-x="1546" 
d="M2 1411h14q2 -1 2 -2v-1141h-2q-16 38 -16 44v1097q0 2 2 2zM36 1411h14q2 -1 2 -2v-1202h-1q-15 19 -17 27v1175q1 2 2 2zM69 1411h15q2 -1 2 -2v-1248h-1q-4 3 -17 20v1228q0 2 1 2zM104 1411h15q1 -1 1 -2v-1283q0 -2 -1 -2l-17 17v1268q0 2 2 2zM138 1411h14
q2 -1 2 -2v-1314h-1q-2 0 -16 13v1301q0 2 1 2zM172 1411h14q2 -1 2 -2v-1337l-1 -1q-16 9 -17 12v1326q0 2 2 2zM206 1411h15q1 -1 1 -2v-1356q0 -2 -1 -2q-14 7 -17 10v1348q1 2 2 2zM240 1411h14q2 -1 2 -2v-1372l-1 -2q-14 6 -16 8v1366q0 2 1 2zM274 1411h15q1 -1 1 -2
v-1386q-18 4 -18 6v1380q1 2 2 2zM308 1411h15q2 -1 2 -2v-1395q0 -1 -2 -1q-16 3 -16 6v1390q0 2 1 2zM343 1411h14q1 -1 1 -2v-1402l-1 -2q-16 3 -16 5v1399q0 2 2 2zM376 1411h15q2 -1 2 -2v-1406l-1 -2q-17 1 -17 4v1404q0 2 1 2zM411 1411h14q2 -1 2 -2v-1408
q0 -1 -2 -1h-14q-1 0 -2 2v1407q0 2 2 2zM1040 1411h489q2 -1 2 -2v-939q0 -176 -96 -294q-5 -12 -54 -59q-134 -117 -305 -117h-324q-2 0 -2 1v435q0 1 2 1h108q106 0 160 94q19 39 19 74v804q0 2 1 2zM443 566h2q0 -7 15 -41v-524q0 -1 -1 -1h-14q-2 0 -2 1v565zM478 501
q3 -5 17 -18v-482q0 -1 -2 -1h-15q-1 0 -1 1v498q0 2 1 2zM513 469l16 -11v-457q0 -1 -1 -1h-15q-2 0 -2 1v467q0 1 2 1zM546 450q16 -5 17 -7v-442q0 -1 -2 -1h-14q-1 0 -1 1v449zM580 441q17 -3 17 -5v-435q0 -1 -2 -1h-14q-2 0 -2 1v438zM615 437h15q1 0 1 -1v-435
q0 -1 -1 -1h-15q-2 0 -2 1v435q1 1 2 1zM649 437h14q2 0 2 -1v-435q0 -1 -2 -1h-14q-1 0 -1 1v435q0 1 1 1zM683 437h15q1 0 1 -1v-435q0 -1 -1 -1h-15q-2 0 -2 1v435q0 1 2 1zM717 437h15q2 0 2 -1v-435q0 -1 -2 -1h-15q-1 0 -1 1v435q0 1 1 1zM546 1748h10q45 0 86 -36
q42 -42 42 -96v-2q0 -65 -57 -108q-36 -24 -77 -24q-66 0 -109 57q-23 36 -23 74v4q0 62 54 106q38 25 74 25zM890 1748h10q46 0 86 -36q42 -42 42 -96v-2q0 -65 -57 -108q-36 -24 -76 -24q-66 0 -110 57q-23 36 -23 74v4q0 62 55 106q37 25 73 25z" />
    <glyph glyph-name="Yacute" unicode="&#xdd;" horiz-adv-x="1379" 
d="M1 1418h474v-1l-236 -685h-2l-237 685zM511 1417l-245 -711l-2 -1h-17q0 2 245 712h19zM546 1417q-244 -706 -247 -712h-17l-2 1l246 711h20zM579 1417q-228 -664 -245 -711l-2 -1h-16q-1 0 -1 1l246 711h18zM613 1417l-245 -711l-2 -1h-17q0 2 245 712h19zM648 1417
q-244 -706 -247 -712h-17l-1 1l246 711h19zM681 1417q-228 -664 -245 -711l-2 -1h-15q-2 0 -2 1l246 711h18zM716 1417l-246 -711l-1 -1h-18q0 2 246 712h19zM750 1417q-244 -706 -246 -712h-18l-1 1l246 711h19zM784 1417q-229 -664 -246 -711l-2 -1h-15q-2 0 -2 1l246 711
h19zM818 1417l-246 -711l-1 -1h-17q0 2 245 712h19zM852 1417q-244 -706 -246 -712h-17l-2 1l246 711h19zM886 1417q-229 -664 -246 -711l-1 -1h-16q-2 0 -2 1l246 711h19zM920 1417l-245 -711l-2 -1h-17q0 2 245 712h19zM955 1417q-244 -706 -247 -712h-17l-2 1l246 711h20
zM988 1417q-228 -664 -246 -711l-1 -1h-16q-1 0 -1 1l246 711h18zM1022 1417l-245 -711l-2 -1h-17q0 2 245 712h19zM1057 1417q-244 -706 -247 -712h-17l-1 1l246 711h19zM1090 1417q-228 -664 -245 -711l-2 -1h-15q-2 0 -2 1l246 711h18zM1125 1417l-246 -711l-2 -1h-17
q0 2 245 712h20zM1159 1417q-244 -706 -246 -712h-18l-1 1l246 711h19zM1193 1417q-229 -664 -246 -711l-2 -1h-15q-2 0 -2 1l246 711h19zM1227 1417l-246 -711l-1 -1h-17q0 2 245 712h19zM1261 1417q-244 -706 -246 -712h-17l-2 1l246 711h19zM1295 1417
q-229 -664 -246 -711l-1 -1h-16q-2 0 -2 1l246 711h19zM1329 1417l-245 -711l-2 -1h-17q0 2 245 712h19zM1364 1417q-244 -706 -247 -712h-17l-2 1l246 711h20zM245 704h869q1 0 1 -2v-701q0 -1 -1 -1h-869q-1 0 -1 1v701q0 2 1 2zM556 1455l129 343h452
q-247 -343 -249 -343h-332z" />
    <glyph glyph-name="agrave" unicode="&#xe0;" horiz-adv-x="1870" 
d="M1364 1418q3 -2 17 -47q1 -2 249 -719q225 -650 225 -651v-1h-868q-2 0 -36 99q-21 59 -21 63h464q0 2 -79 214h-467l-2 1q4 10 4 14l-7 20h-1q-9 -28 -13 -35h-17q5 19 22 63q-4 10 -8 22q-1 0 -22 -61q-7 -24 -10 -24h-14q-2 0 -2 2l39 111q-3 3 -8 22h-1
q-13 -40 -46 -135h-17l-1 1l55 161q-7 21 -7 22h-1q-60 -175 -64 -184h-17q0 2 72 212q-7 20 -7 21h-1q-77 -226 -81 -233h-16q-1 0 -1 2q89 256 89 259q-7 21 -8 21q-3 -12 -98 -282h-16l-2 1q104 298 108 308q-2 3 -8 22h-1q-6 -20 -115 -331h-17q5 19 123 358
q-7 21 -7 22q-3 -3 -58 -166l-74 -213l-2 -1h-15q-1 0 -1 2l140 406q-7 20 -7 22h-1q-115 -334 -149 -430h-16l-2 1l158 456q-7 21 -7 23h-1q-20 -60 -166 -480h-17q5 16 174 507q-1 1 -7 22h-1l-171 -497q-11 -31 -13 -32h-15q-2 0 -2 2q188 540 192 554q-7 21 -8 21
l-247 -715l-83 -238h-16q-2 0 -2 1q24 70 318 920q15 41 21 61q-7 19 -7 20h-2l-277 -803l-69 -199h-17l-1 1q99 286 307 889l49 140q-7 19 -7 22q-2 0 -48 -135l-310 -897q-6 -20 -9 -20h-16q0 3 164 477l209 602q-7 21 -7 22h-1q-300 -868 -326 -943q-55 -158 -56 -158
h-16q-1 0 -1 1q242 699 293 847q32 91 97 281q-6 15 -8 22l-289 -836l-110 -315h-16l-2 1q273 785 280 808q120 346 128 370q-4 8 -8 21h-1q-3 -11 -298 -864l-116 -335l-2 -1h-16q0 4 249 723q175 503 175 504q-7 22 -9 22q-5 -18 -185 -536l-247 -713h-16q-2 0 -2 1
q243 699 293 847q145 416 148 429l-6 21h-2l-281 -815l-168 -483h-16l-2 1q310 893 317 916l142 409q-7 19 -7 22q-2 -1 -22 -61q-267 -772 -299 -863q-13 -39 -146 -423l-2 -1h-16q0 2 238 690l237 685q-8 20 -8 22q-20 -57 -313 -903l-171 -494h-16q-2 0 -2 1
q25 70 292 844q196 567 199 573h873zM466 361h1q8 -21 8 -24q-4 -16 -116 -336l-1 -1h-17q0 2 125 361zM485 314q0 -2 8 -24q-94 -274 -100 -290h-17l-1 1l109 313h1zM501 266h1q8 -20 9 -23l-84 -243h-16q-2 0 -2 1q70 200 92 265zM520 219l9 -25l-67 -193l-2 -1h-16
q0 2 72 212q2 7 4 7zM536 171h1q2 0 4 -9h10q0 -3 -49 -143q-5 -17 -8 -19h-15l-2 1q55 156 59 170zM569 162h14q2 -1 2 -2l-56 -160h-16q-2 0 -2 1l56 160zM602 162h16l1 -1l-55 -160l-2 -1h-16q53 158 56 162zM653 162q0 -3 -48 -143q-6 -17 -9 -19h-15l-2 1
q53 153 57 161h17zM671 162h15q1 -1 1 -2l-55 -160h-17q-1 0 -1 1l55 160zM704 162h16l2 -1l-56 -160l-2 -1h-16q53 158 56 162zM755 162q0 -3 -48 -143q-6 -17 -8 -19h-16l-1 1q53 153 56 161h17zM773 162h15q2 -1 2 -2l-56 -160h-16q-2 0 -2 1l56 160zM807 162h15l2 -1
l-56 -160l-1 -1h-17q53 158 57 162zM857 162q0 -3 -48 -143q-6 -17 -8 -19h-16l-1 1q53 153 56 161h17zM875 162h15q2 -1 2 -2l-56 -160h-16q-2 0 -2 1l56 160zM909 162h15l2 -1l-56 -160l-1 -1h-17q54 158 57 162zM812 1455q-2 0 -249 343h452l129 -343h-332z" />
    </font>
</defs>
</svg>
